<?xml version="1.0" encoding="utf-8"?>
<svg x="0pt" y="0pt" width="24pt" height="24pt" viewBox="0 0 24 24" xmlns="http://www.w3.org/2000/svg" xmlns:xlink="http://www.w3.org/1999/xlink">
  <!--Generated by AMDN-->
  <g id="Layer 1">
    <path id="Path 40" style="fill:none;opacity:1;stroke:#000000;stroke-linecap:round;stroke-linejoin:round;stroke-miterlimit:10;stroke-opacity:1;stroke-width:2;" d="M21,10.0174 C21,10.0174,21,15,21,15 C21,15.5304,20.7893,16.0391,20.4142,16.4142 C20.0391,16.7893,19.5304,17,19,17 C19,17,7,17,7,17 C5.66667,18.3333,4.33333,19.6667,3,21 C3,21,3,5,3,5 C3,4.46957,3.21071,3.96086,3.58579,3.58579 C3.96086,3.21071,4.46957,3,5,3 C8.53371,3,10.4904,3,14.0241,3"/>
    <path id="Path 42" style="fill:none;opacity:1;stroke:#000000;stroke-linecap:round;stroke-linejoin:round;stroke-miterlimit:10;stroke-opacity:1;stroke-width:2;" d="M19,2 C19.5359,1.4641,20.317,1.25481,21.049,1.45096 C21.7811,1.64712,22.3529,2.21891,22.549,2.95096 C22.7452,3.68301,22.5359,4.4641,22,5 C22,5,15.5,11.5,15.5,11.5 C14.1667,11.8333,12.8333,12.1667,11.5,12.5 C11.8333,11.1667,12.1667,9.83333,12.5,8.5 C15.6667,5.33333,15.8333,5.16667,19,2 z"/>
    <path id="Path" style="fill:none;opacity:1;stroke:#000000;stroke-linecap:butt;stroke-linejoin:miter;stroke-miterlimit:10;stroke-opacity:1;stroke-width:1;" d="M14.6031,3"/>
    <path id="Path" style="fill:none;opacity:1;stroke:#000000;stroke-linecap:butt;stroke-linejoin:miter;stroke-miterlimit:10;stroke-opacity:1;stroke-width:1;" d="M21,8.76825"/>
    <path id="Path" style="fill:none;opacity:1;stroke:#000000;stroke-linecap:round;stroke-linejoin:round;stroke-miterlimit:10;stroke-opacity:1;stroke-width:2;" d="M7,7 C7,7,10,7,10,7"/>
    <path id="Path" style="fill:none;opacity:1;stroke:#000000;stroke-linecap:round;stroke-linejoin:round;stroke-miterlimit:10;stroke-opacity:1;stroke-width:2;" d="M7,10 C7,10,9,10,9,10"/>
  </g>
</svg>
