<?xml version="1.0" encoding="utf-8"?>
<svg x="0px" y="0px" width="24px" height="24px" viewBox="0 0 24 24" xmlns="http://www.w3.org/2000/svg" xmlns:xlink="http://www.w3.org/1999/xlink">
  <!--Generated by AMDN-->
  <g id="Layer 1">
    <path id="Path 53" style="fill:none;opacity:1;stroke:#000000;stroke-linecap:round;stroke-linejoin:round;stroke-miterlimit:10;stroke-opacity:1;stroke-width:2;" d="M8,6 C8,3.79086,9.79086,2,12,2 C14.2091,2,16,3.79086,16,6 C16,6,8,6,8,6 z"/>
    <path id="Path" style="fill:none;opacity:1;stroke:#000000;stroke-linecap:round;stroke-linejoin:round;stroke-miterlimit:10;stroke-opacity:1;stroke-width:2;" d="M20,7 C20,7,18,9,18,9"/>
    <path id="Path Copy" style="fill:none;opacity:1;stroke:#000000;stroke-linecap:round;stroke-linejoin:round;stroke-miterlimit:10;stroke-opacity:1;stroke-width:2;" d="M20,19 C20,19,18,17,18,17"/>
    <path id="Path" style="fill:none;opacity:1;stroke:#000000;stroke-linecap:round;stroke-linejoin:round;stroke-miterlimit:10;stroke-opacity:1;stroke-width:2;" d="M21,13 C21,13,18,13,18,13"/>
    <path id="Path 52" style="fill:none;opacity:1;stroke:#000000;stroke-linecap:round;stroke-linejoin:round;stroke-miterlimit:10;stroke-opacity:1;stroke-width:2;" d="M16.4351,9 C17.2988,9,17.999,9.70018,17.999,10.5639 C17.999,10.5639,17.999,15.001,17.999,15.001 C17.999,18.3142,15.3132,21,12,21 C8.68584,21,6,18.3142,6,15.001 C6,15.001,6,10.5639,6,10.5639 C6,9.70018,6.70018,9,7.56389,9 C7.56389,9,16.4351,9,16.4351,9 z"/>
    <path id="Path Copy" style="fill:none;opacity:1;stroke:#000000;stroke-linecap:round;stroke-linejoin:round;stroke-miterlimit:10;stroke-opacity:1;stroke-width:2;" d="M4,7 C4,7,6,9,6,9"/>
    <path id="Path Copy 1" style="fill:none;opacity:1;stroke:#000000;stroke-linecap:round;stroke-linejoin:round;stroke-miterlimit:10;stroke-opacity:1;stroke-width:2;" d="M4,19 C4,19,6,17,6,17"/>
    <path id="Path Copy" style="fill:none;opacity:1;stroke:#000000;stroke-linecap:round;stroke-linejoin:round;stroke-miterlimit:10;stroke-opacity:1;stroke-width:2;" d="M3,13 C3,13,6,13,6,13"/>
    <path id="Path" style="fill:none;opacity:1;stroke:#000000;stroke-linecap:round;stroke-linejoin:round;stroke-miterlimit:10;stroke-opacity:1;stroke-width:2;" d="M12,12 C12,12,12,17,12,17"/>
  </g>
</svg>
