<?xml version="1.0" encoding="utf-8"?>
<svg x="0px" y="0px" width="24px" height="24px" viewBox="0 0 24 24" xmlns="http://www.w3.org/2000/svg" xmlns:xlink="http://www.w3.org/1999/xlink">
  <!--Generated by AMDN-->
  <g id="Layer 1">
    <path id="Path 11" style="fill:none;opacity:1;stroke:#000000;stroke-linecap:round;stroke-linejoin:round;stroke-miterlimit:10;stroke-opacity:1;stroke-width:1;" d="M13.5,11 C15.7091,11,17.5,12.6789,17.5,14.75 C17.5,16.8211,15.7091,18.5,13.5,18.5 C13.5,18.5,8.5,18.5,8.5,18.5 C8.5,18.5,8.5,3.5,8.5,3.5 C8.5,3.5,13.5,3.5,13.5,3.5 C15.7091,3.5,17.5,5.17893,17.5,7.25 C17.5,9.32107,15.7091,11,13.5,11 C13.5,11,13.5,11,13.5,11 z"/>
    <path id="Path" style="fill:none;opacity:1;stroke:#000000;stroke-linecap:round;stroke-linejoin:round;stroke-miterlimit:10;stroke-opacity:1;stroke-width:1;" d="M13.5,11 C13.5,11,8.5,11,8.5,11"/>
    <path id="Path 11 Copy" style="fill:none;opacity:1;stroke:#000000;stroke-linecap:round;stroke-linejoin:round;stroke-miterlimit:10;stroke-opacity:1;stroke-width:1;" d="M12.5,11 C14.7091,11,16.5,12.6789,16.5,14.75 C16.5,16.8211,14.7091,18.5,12.5,18.5 C12.5,18.5,7.5,18.5,7.5,18.5 C7.5,18.5,7.5,3.5,7.5,3.5 C7.5,3.5,12.5,3.5,12.5,3.5 C14.7091,3.5,16.5,5.17893,16.5,7.25 C16.5,9.32107,14.7091,11,12.5,11 C12.5,11,12.5,11,12.5,11 z"/>
    <path id="Path Copy" style="fill:none;opacity:1;stroke:#000000;stroke-linecap:round;stroke-linejoin:round;stroke-miterlimit:10;stroke-opacity:1;stroke-width:1;" d="M12.5,11 C12.5,11,7.5,11,7.5,11"/>
  </g>
</svg>
