<!-- Generated by IcoMoon.io -->
<svg version="1.1" xmlns="http://www.w3.org/2000/svg" width="1013" height="768" viewBox="0 0 1013 768">
<g id="icomoon-ignore">
</g>
<path fill="#000" d="M858.381 64.319c-60.408-28.438-130.584-50.8-204.046-63.596l-5.011-0.722c-8.35 14.475-17.312 32.355-25.34 50.736l-1.44 3.7c-34.865-5.531-75.065-8.691-116.005-8.691s-81.141 3.16-120.373 9.25l4.368-0.558c-9.478-22.092-18.439-39.972-28.272-57.293l1.493 2.857c-78.559 13.638-148.778 36.048-214.408 66.653l5.192-2.174c-132.304 195.746-168.169 386.63-150.236 574.804v0c73.246 54.649 158.463 98.548 250.429 127.12l5.969 1.598c19.276-25.643 37.511-54.631 53.289-85.097l1.625-3.451c-33.483-12.616-61.976-26.506-88.957-42.662l2.481 1.377c7.252-5.261 14.346-10.68 21.2-15.941 75.072 36.143 163.229 57.263 256.319 57.263s181.247-21.119 259.942-58.826l-3.623 1.564c6.934 5.659 14.027 11.078 21.2 15.941-24.542 14.801-53.087 28.717-82.882 40.105l-3.753 1.26c17.37 33.874 35.606 62.838 56.050 90.047l-1.135-1.579c98.001-30.045 183.285-73.93 258.776-130.219l-2.219 1.582c21.041-218.221-35.945-407.353-150.635-575.044zM338.331 523.557c-49.973 0-91.258-45.35-91.258-101.141s39.851-101.539 91.099-101.539 92.214 45.748 91.337 101.539-40.249 101.141-91.178 101.141zM674.989 523.557c-50.052 0-91.178-45.35-91.178-101.141s39.851-101.539 91.178-101.539 91.975 45.748 91.099 101.539-40.169 101.141-91.099 101.141z"></path>
</svg>
