<!-- Generated by IcoMoon.io -->
<svg version="1.1" xmlns="http://www.w3.org/2000/svg" width="704" height="512" viewBox="0 0 704 512">
<g id="icomoon-ignore">
</g>
<path d="M528 96.794v-0.794h-336c-88.365 0-160 71.635-160 160s71.635 160 160 160c52.345 0 98.816-25.139 128.007-64h63.985c29.189 38.861 75.662 64 128.008 64 88.366 0 160-71.634 160-160 0-82.965-63.146-151.178-144-159.206zM288 288h-64v64h-64v-64h-64v-64h64v-64h64v64h64v64zM480 288c-17.674 0-32-14.327-32-32s14.326-32 32-32 32 14.327 32 32-14.326 32-32 32zM576 288c-17.674 0-32-14.327-32-32 0-17.674 14.326-32 32-32s32 14.326 32 32c0 17.673-14.326 32-32 32z"></path>
</svg>
