<!-- Generated by IcoMoon.io -->
<svg version="1.1" xmlns="http://www.w3.org/2000/svg" width="512" height="512" viewBox="0 0 512 512">
<g id="icomoon-ignore">
</g>
<path d="M256 0c-141.4 0-256 114.6-256 256s114.6 256 256 256 256-114.6 256-256-114.6-256-256-256zM259.8 448c-106.1 0-192-85.9-192-192s85.9-192 192-192c51.8 0 95.2 18.9 128.6 50.2l-52.1 50.2c-14.3-13.7-39.2-29.6-76.5-29.6-65.6 0-119 54.3-119 121.2s53.5 121.2 119 121.2c76 0 104.5-54.6 108.9-82.8h-108.9v-65.8h181.3c1.6 9.6 3 19.2 3 31.8 0.1 109.7-73.4 187.6-184.3 187.6z"></path>
</svg>
