<?xml version="1.0" encoding="utf-8"?>
<svg x="0px" y="0px" width="24px" height="24px" viewBox="0 0 24 24" xmlns="http://www.w3.org/2000/svg" xmlns:xlink="http://www.w3.org/1999/xlink">
  <!--Generated by AMDN-->
  <g id="Layer 1">
    <g id="Group">
      <path id="Path 59" style="fill:#ff00ff;fill-opacity:1;fill-rule:evenodd;opacity:1;stroke:none;" d="M11.9999,10.8762 C10.8969,10.0139,9.50842,9.5,7.99986,9.5 C7.2198,9.5,6.47183,9.63741,5.77885,9.88934 C6.37289,11.8479,7.86653,13.4153,9.77886,14.1106 C10.1719,12.8148,10.9587,11.6903,11.9999,10.8762 z"/>
      <path id="Path 58" style="fill:#ffff00;fill-opacity:1;fill-rule:evenodd;opacity:1;stroke:none;" d="M11.9999,10.8762 C13.1029,10.0139,14.4914,9.5,16,9.5 C16.7801,9.5,17.5281,9.63743,18.2211,9.88939 C17.6271,11.848,16.1334,13.4154,14.221,14.1107 C13.828,12.8149,13.0412,11.6903,11.9999,10.8762 C11.9999,10.8762,11.9999,10.8762,11.9999,10.8762 z"/>
      <path id="Path 60" style="fill:#ffffff;fill-opacity:1;fill-rule:evenodd;opacity:1;stroke:none;" d="M9.77886,14.1106 C10.1719,12.8148,10.9587,11.6903,11.9999,10.8762 C13.0412,11.6903,13.828,12.8148,14.221,14.1107 C13.528,14.3626,12.7801,14.5,12,14.5 C11.2199,14.5,10.4719,14.3626,9.77888,14.1106 C9.77888,14.1106,9.77886,14.1106,9.77886,14.1106 z"/>
      <path id="Path 57" style="fill:#00ffff;fill-opacity:1;fill-rule:evenodd;opacity:1;stroke:none;" d="M9.77886,14.1106 C9.59751,14.7085,9.5,15.3429,9.5,16 C9.5,18.0813,10.4782,19.9341,11.9999,21.1238 C13.5217,19.9341,14.4999,18.0813,14.4999,16 C14.4999,15.3429,14.4023,14.7085,14.221,14.1107 C13.528,14.3626,12.7801,14.5,12,14.5 C11.2199,14.5,10.4719,14.3626,9.77888,14.1106 C9.77888,14.1106,9.77886,14.1106,9.77886,14.1106 z"/>
      <path id="Path 56" style="fill:#ff0000;fill-opacity:1;fill-rule:evenodd;opacity:1;stroke:none;" d="M5.77885,9.88935 C5.59751,9.29146,5.5,8.65712,5.5,8 C5.5,4.41015,8.41015,1.5,12,1.5 C15.5899,1.5,18.5,4.41015,18.5,8 C18.5,8.65713,18.4025,9.29149,18.2211,9.88939 C17.5281,9.63742,16.7801,9.5,16,9.5 C14.4914,9.5,13.1029,10.0139,11.9999,10.8762 C10.8969,10.0139,9.50842,9.5,7.99986,9.5 C7.21981,9.5,6.47185,9.63741,5.77887,9.88933 C5.77887,9.88933,5.77885,9.88935,5.77885,9.88935 z"/>
      <path id="Path 55" style="fill:#0000ff;fill-opacity:1;fill-rule:evenodd;opacity:1;stroke:none;" d="M5.77885,9.88934 C3.28269,10.7968,1.49986,13.1902,1.49986,16 C1.49986,19.5899,4.41001,22.5,7.99986,22.5 C9.50842,22.5,10.8969,21.9861,11.9999,21.1238 C10.4782,19.9341,9.5,18.0813,9.5,16 C9.5,15.3429,9.59751,14.7085,9.77886,14.1106 C7.86654,13.4153,6.37289,11.8479,5.77884,9.88933 C5.77884,9.88933,5.77885,9.88934,5.77885,9.88934 z"/>
      <path id="Path 54" style="fill:#00ff00;fill-opacity:1;fill-rule:evenodd;opacity:1;stroke:none;" d="M18.2211,9.88939 C20.7172,10.7969,22.5,13.1903,22.5,16 C22.5,19.5899,19.5899,22.5,16,22.5 C14.4914,22.5,13.1029,21.9861,11.9999,21.1238 C13.5217,19.9341,14.4999,18.0813,14.4999,16 C14.4999,15.3429,14.4023,14.7085,14.221,14.1107 C16.1334,13.4154,17.6271,11.848,18.2211,9.88939 z"/>
    </g>
  </g>
</svg>
