<?xml version="1.0" encoding="utf-8"?>
<svg x="0px" y="0px" width="40px" height="24px" viewBox="0 0 40 24" xmlns="http://www.w3.org/2000/svg" xmlns:xlink="http://www.w3.org/1999/xlink">
  <!--Generated by AMDN-->
  <g id="Layer 1">
    <g id="Layer 1">
      <g id="Group">
        <path id="Path 142" style="fill:#000000;fill-opacity:1;fill-rule:evenodd;opacity:1;stroke:none;" d="M19.9995,2.00002 C19.9915,2.00001,19.9835,2,19.9755,2 C8.38693,2,2,3.61435,2,12.0006 C2,18.4113,5.31768,22.0013,10.5423,22 C15.767,21.9987,17.3659,17.8464,19.9755,17.846 C19.9836,17.846,19.9918,17.8458,20,17.8455 C20.0082,17.8458,20.0164,17.846,20.0245,17.846 C22.6341,17.8464,24.233,21.9987,29.4577,22 C34.6823,22.0013,38,18.4113,38,12.0006 C38,3.61435,31.6131,2,20.0245,2 C20.0162,2,20.0078,2.00001,19.9996,2.00002 C19.9996,2.00002,19.9995,2.00002,19.9995,2.00002 z"/>
      </g>
      <path id="Path 5" style="fill:#fbed21;fill-opacity:1;fill-rule:evenodd;opacity:1;stroke:none;" d="M12.1973,19.8358 C15.7904,19.389,17.0714,16.4559,19.0664,16.4557 C19.0731,16.4557,19.0799,16.4555,19.0867,16.4553 C19.0934,16.4555,19.1002,16.4557,19.1069,16.4557 C19.4394,16.4557,19.7521,16.5372,20.059,16.6751 C20.3658,16.5372,20.6785,16.4557,21.011,16.4557 C21.0177,16.4557,21.0245,16.4555,21.0313,16.4553 C21.0381,16.4555,21.0449,16.4557,21.0515,16.4557 C23.0465,16.4559,24.3275,19.389,27.9207,19.8358 C31.6569,19.4021,33.9792,16.4979,33.9792,11.6194 C33.9792,4.91407,29.0441,3.44133,20.059,3.34991 C11.0739,3.44132,6.13872,4.91407,6.13872,11.6194 C6.13872,16.4979,8.46099,19.4021,12.1973,19.8358 z"/>
      <path id="Path 4" style="fill:#8cc63f;fill-opacity:1;fill-rule:evenodd;opacity:1;stroke:none;" d="M12.1973,19.8358 C12.5231,19.8736,12.8597,19.8926,13.2064,19.8925 C16.8633,19.8916,18.3733,17.4327,20.059,16.6751 C19.7521,16.5372,19.4394,16.4557,19.1069,16.4557 C19.1002,16.4557,19.0934,16.4555,19.0867,16.4553 C19.0799,16.4555,19.0731,16.4557,19.0664,16.4557 C17.0714,16.4559,15.7904,19.389,12.1973,19.8358 z"/>
      <path id="Path 3" style="fill:#8cc63f;fill-opacity:1;fill-rule:evenodd;opacity:1;stroke:none;" d="M20.059,3.34991 C20.3715,3.34673,20.6888,3.34522,21.011,3.34522 C21.0177,3.34522,21.0243,3.34523,21.0309,3.34524 C21.0309,3.34524,21.0309,3.34524,21.0309,3.34524 C21.0378,3.34523,21.0447,3.34522,21.0515,3.34522 C30.6395,3.34522,35.9239,4.68088,35.9239,11.6194 C35.9239,16.9234,33.1789,19.8936,28.8562,19.8925 C28.5276,19.8924,28.2163,19.8725,27.9207,19.8358 C31.6569,19.4021,33.9792,16.4979,33.9792,11.6194 C33.9792,4.91407,29.0441,3.44133,20.059,3.34991 C20.059,3.34991,20.059,3.34991,20.059,3.34991 z"/>
      <path id="Path 2" style="fill:#ff1c23;fill-opacity:1;fill-rule:evenodd;opacity:1;stroke:none;" d="M20.059,16.6751 C21.7447,17.4327,23.2546,19.8916,26.9116,19.8925 C27.2583,19.8926,27.5949,19.8736,27.9207,19.8358 C24.3275,19.389,23.0465,16.4559,21.0515,16.4557 C21.0449,16.4557,21.0381,16.4555,21.0313,16.4553 C21.0245,16.4555,21.0177,16.4557,21.011,16.4557 C20.6785,16.4557,20.3658,16.5372,20.059,16.6751 z"/>
      <path id="Path 1" style="fill:#ff1c23;fill-opacity:1;fill-rule:evenodd;opacity:1;stroke:none;" d="M12.1973,19.8358 C11.9016,19.8725,11.5903,19.8924,11.2617,19.8925 C6.939,19.8936,4.19407,16.9234,4.19407,11.6194 C4.19407,4.68088,9.47839,3.34522,19.0664,3.34522 C19.073,3.34522,19.0796,3.34523,19.0862,3.34524 C19.0862,3.34524,19.0863,3.34524,19.0863,3.34524 C19.0931,3.34523,19.1,3.34522,19.1069,3.34522 C19.4291,3.34522,19.7465,3.34673,20.059,3.34991 C11.0739,3.44132,6.13872,4.91407,6.13872,11.6194 C6.13872,16.4979,8.46099,19.4021,12.1973,19.8358 z"/>
    </g>
    <g id="Group">
      <path id="Path Copy 5" style="fill:#8cc63e;fill-opacity:1;fill-rule:nonzero;opacity:1;stroke:none;" d="M22.5466,8.62957 C22.5466,9.04702,22.5466,9.46447,22.5466,9.88193 C22.5435,10.2485,22.8542,10.5633,23.1982,10.5538 C23.5421,10.5633,23.8529,10.2485,23.8497,9.88193 C23.8497,9.46447,23.8497,9.04702,23.8497,8.62956 C23.8529,8.26303,23.5421,7.94816,23.1982,7.95769 C22.8542,7.94816,22.5435,8.26303,22.5466,8.62957 z"/>
      <path id="Path Copy 6" style="fill:#8cc63e;fill-opacity:1;fill-rule:nonzero;opacity:1;stroke:none;" d="M17.3162,8.62956 C17.3162,9.04702,17.3162,9.46447,17.3162,9.88193 C17.3131,10.2485,17.6238,10.5633,17.9678,10.5538 C18.3117,10.5633,18.6224,10.2485,18.6193,9.88193 C18.6193,9.46447,18.6193,9.04702,18.6193,8.62956 C18.6224,8.26303,18.3117,7.94816,17.9678,7.95769 C17.6238,7.94816,17.3131,8.26303,17.3162,8.62956 z"/>
      <path id="Path Copy 1" style="fill:#8cc63e;fill-opacity:1;fill-rule:nonzero;opacity:1;stroke:none;" d="M19.9897,4.38916 C19.9897,8.09264,19.9897,11.7961,19.9897,15.4996 C19.9865,15.8661,20.2972,16.181,20.6412,16.1715 C20.9852,16.181,21.2959,15.8661,21.2927,15.4996 C21.2928,11.7961,21.2928,8.09264,21.2927,4.38916 C21.2959,4.02263,20.9852,3.70776,20.6412,3.71728 C20.2972,3.70776,19.9865,4.02263,19.9897,4.38916 z"/>
      <path id="Path Copy 6" style="fill:#fe1a22;fill-opacity:1;fill-rule:nonzero;opacity:1;stroke:none;" d="M21.4259,8.62957 C21.4259,9.04702,21.4259,9.46447,21.4259,9.88193 C21.4227,10.2485,21.7334,10.5633,22.0774,10.5538 C22.4214,10.5633,22.7321,10.2485,22.7289,9.88193 C22.729,9.46447,22.729,9.04702,22.7289,8.62956 C22.7321,8.26303,22.4214,7.94816,22.0774,7.95769 C21.7334,7.94816,21.4227,8.26303,21.4259,8.62957 z"/>
      <path id="Path Copy 7" style="fill:#fe1a22;fill-opacity:1;fill-rule:nonzero;opacity:1;stroke:none;" d="M16.1955,8.62956 C16.1955,9.04702,16.1955,9.46447,16.1955,9.88193 C16.1923,10.2485,16.503,10.5633,16.847,10.5538 C17.191,10.5633,17.5017,10.2485,17.4985,9.88193 C17.4985,9.46447,17.4985,9.04702,17.4985,8.62956 C17.5017,8.26303,17.191,7.94816,16.847,7.95769 C16.503,7.94816,16.1923,8.26303,16.1955,8.62956 z"/>
      <path id="Path Copy 2" style="fill:#fe1a22;fill-opacity:1;fill-rule:nonzero;opacity:1;stroke:none;" d="M18.8689,4.38916 C18.8689,8.09264,18.8689,11.7961,18.8689,15.4996 C18.8658,15.8661,19.1765,16.181,19.5204,16.1715 C19.8644,16.181,20.1751,15.8661,20.172,15.4996 C20.172,11.7961,20.172,8.09264,20.172,4.38916 C20.1751,4.02263,19.8644,3.70776,19.5204,3.71728 C19.1765,3.70776,18.8658,4.02263,18.8689,4.38916 z"/>
      <path id="Path Copy 4" style="fill:#000000;fill-opacity:1;fill-rule:nonzero;opacity:1;stroke:none;" d="M21.9711,8.62957 C21.9711,9.04702,21.9711,9.46447,21.9711,9.88193 C21.9679,10.2485,22.2787,10.5633,22.6226,10.5538 C22.9666,10.5633,23.2773,10.2485,23.2742,9.88193 C23.2742,9.46447,23.2742,9.04702,23.2742,8.62956 C23.2773,8.26303,22.9666,7.94816,22.6226,7.95769 C22.2787,7.94816,21.9679,8.26303,21.9711,8.62957 z"/>
      <path id="Path Copy 5" style="fill:#000000;fill-opacity:1;fill-rule:nonzero;opacity:1;stroke:none;" d="M16.7407,8.62956 C16.7407,9.04702,16.7407,9.46447,16.7407,9.88193 C16.7375,10.2485,17.0482,10.5633,17.3922,10.5538 C17.7362,10.5633,18.0469,10.2485,18.0438,9.88193 C18.0438,9.46447,18.0438,9.04702,18.0438,8.62956 C18.0469,8.26303,17.7362,7.94816,17.3922,7.95769 C17.0482,7.94816,16.7375,8.26303,16.7407,8.62956 z"/>
      <path id="Path Copy" style="fill:#000000;fill-opacity:1;fill-rule:nonzero;opacity:1;stroke:none;" d="M19.4141,4.38916 C19.4141,8.09264,19.4141,11.7961,19.4141,15.4996 C19.411,15.8661,19.7217,16.181,20.0656,16.1715 C20.4096,16.181,20.7203,15.8661,20.7172,15.4996 C20.7172,11.7961,20.7172,8.09264,20.7172,4.38916 C20.7203,4.02263,20.4096,3.70776,20.0656,3.71728 C19.7217,3.70776,19.411,4.02263,19.4141,4.38916 z"/>
    </g>
  </g>
</svg>
