<?xml version="1.0" encoding="utf-8"?>
<svg x="0pt" y="0pt" width="512pt" height="512pt" viewBox="0 0 512 512" xmlns="http://www.w3.org/2000/svg" xmlns:xlink="http://www.w3.org/1999/xlink">
  <!--Generated by AMDN-->
  <g id="Color">
    <path id="Path" style="fill:#505050;fill-opacity:1;fill-rule:evenodd;opacity:1;stroke:none;" d="M2.49258e-11,97.2342 C2.49258e-11,28.497,28.4969,1.52597e-05,97.2342,1.52597e-05 C97.2342,1.52597e-05,414.766,1.52597e-05,414.766,1.52597e-05 C483.503,1.52597e-05,512,28.497,512,97.2342 C512,97.2342,512,414.766,512,414.766 C512,483.503,483.503,512,414.766,512 C414.766,512,97.2342,512,97.2342,512 C28.4969,512,2.49258e-11,483.503,2.49258e-11,414.766 C2.49258e-11,414.766,2.49258e-11,97.2342,2.49258e-11,97.2342 z"/>
    <g id="Group">
      <path id="Compound Group" style="fill:#ff931d;fill-opacity:1;fill-rule:evenodd;opacity:1;stroke:none;" d="M314.496,248.808 C321.122,248.808,326.494,254.179,326.494,260.805 C326.494,260.805,326.494,321.953,326.494,321.953 C326.494,392.03,269.689,448.821,199.625,448.821 C129.549,448.821,72.7573,392.03,72.7573,321.953 C72.7573,321.953,72.7573,260.805,72.7573,260.805 C72.7573,254.179,78.1287,248.808,84.7548,248.808 C84.7548,248.808,124.194,248.808,124.194,248.808 C130.82,248.808,136.191,254.179,136.191,260.805 C136.191,260.805,136.191,321.953,136.191,321.953 C136.191,356.991,164.587,385.387,199.625,385.387 C234.664,385.387,263.06,356.991,263.06,321.953 C263.06,321.953,263.06,260.805,263.06,260.805 C263.06,254.179,268.431,248.808,275.057,248.808 C275.057,248.808,314.496,248.808,314.496,248.808 z"/>
      <path id="Compound Group" style="fill:#fbed21;fill-opacity:1;fill-rule:evenodd;opacity:1;stroke:none;" d="M394.629,440.618 C387.959,440.618,382.552,435.21,382.552,428.54 C382.552,428.54,382.552,260.902,382.552,260.902 C382.552,254.232,387.959,248.825,394.629,248.825 C394.629,248.825,433.909,248.825,433.909,248.825 C440.579,248.825,445.986,254.232,445.986,260.902 C445.986,260.902,445.986,428.54,445.986,428.54 C445.986,435.21,440.579,440.618,433.909,440.618 C433.909,440.618,394.629,440.618,394.629,440.618 z"/>
    </g>
    <g id="Group">
      <path id="Path 260" style="fill:#ff1c24;fill-opacity:1;fill-rule:nonzero;opacity:1;stroke:none;" d="M90.8834,65.5384 C97.4118,68.2006,94.8933,66.5385,98.8732,69.7885 C98.8732,69.7885,149.849,120.766,149.849,120.766 C149.849,120.766,195.503,75.1098,195.503,75.1098 C199.858,70.757,199.858,70.757,200.825,69.7885 C204.639,66.0977,207.453,65.7027,212.5,65.5289 C212.5,65.5289,214.728,65.5384,214.728,65.5384 C221.257,68.2006,218.738,66.5385,222.718,69.7885 C228.763,75.835,228.763,85.637,222.718,91.6819 C221.75,92.6489,221.75,92.6489,217.397,97.0032 C217.397,97.0032,171.742,142.658,171.742,142.658 C171.742,142.658,222.718,193.633,222.718,193.633 C228.763,199.68,228.763,209.482,222.718,215.527 C216.672,221.573,206.87,221.573,200.825,215.527 C200.825,215.527,149.849,164.551,149.849,164.551 C149.849,164.551,126.086,188.312,126.086,188.312 C126.086,188.312,104.194,210.205,104.194,210.205 C99.8402,214.56,99.8402,214.56,98.8732,215.527 C92.8267,221.573,83.0247,221.573,76.9798,215.527 C70.9349,209.482,70.9349,199.68,76.9798,193.633 C77.9467,192.666,77.9467,192.666,82.3011,188.312 C82.3011,188.312,127.955,142.658,127.955,142.658 C127.955,142.658,76.9798,91.6819,76.9798,91.6819 C70.9349,85.637,70.9349,75.835,76.9798,69.7885 C80.7938,66.0977,83.6061,65.7027,88.6557,65.5289 C88.6557,65.5289,90.8834,65.5384,90.8834,65.5384 z"/>
      <path id="Path 263" style="fill:#8cc63f;fill-opacity:1;fill-rule:nonzero;opacity:1;stroke:none;" d="M258.213,65.2556 C266.762,65.2556,273.694,72.1853,273.694,80.736 C273.694,204.162,273.706,162.881,273.694,204.581 C273.694,213.13,266.762,220.061,258.213,220.061 C249.663,220.061,242.733,213.13,242.733,204.581 C242.733,204.581,242.733,80.736,242.733,80.736 C242.733,72.1853,249.663,65.2556,258.213,65.2556 z"/>
      <path id="Path 265" style="fill:#3da8f4;fill-opacity:1;fill-rule:nonzero;opacity:1;stroke:none;" d="M305.384,65.5289 C305.384,65.5289,307.612,65.5384,307.612,65.5384 C314.141,68.2006,311.622,66.5385,315.6,69.7885 C316.569,70.757,316.569,70.757,320.923,75.1098 C320.923,75.1098,434.124,188.312,434.124,188.312 C438.478,192.666,438.478,192.666,439.447,193.633 C445.492,199.68,445.492,209.482,439.447,215.527 C433.4,221.573,423.598,221.573,417.553,215.527 C417.553,215.527,293.709,91.6819,293.709,91.6819 C287.662,85.637,287.662,75.835,293.709,69.7885 C297.521,66.0977,300.335,65.7027,305.384,65.5289 z"/>
    </g>
    <g id="Group">
      <path id="Path 279" style="fill:#ffffff;fill-opacity:0.754813;fill-rule:nonzero;opacity:1;stroke:none;" d="M349.905,476.554 C338.888,454.027,336.849,449.859,327.006,429.732 C325.926,427.524,323.008,427.009,321.237,428.713 C310.807,438.748,300.377,448.783,289.947,458.818 C287.645,461.033,283.81,459.401,283.81,456.206 C283.81,402.359,283.81,348.512,283.81,294.665 C283.81,291.662,287.252,289.962,289.637,291.787 C331.844,324.084,374.05,356.382,416.256,388.679 C418.762,390.597,417.791,394.579,414.683,395.127 C400.503,397.629,386.322,400.131,372.141,402.633 C369.767,403.052,368.456,405.629,369.515,407.794 C380.085,429.407,390.655,451.019,401.226,472.631 C402.095,474.408,401.379,476.553,399.617,477.452 C387.567,483.599,375.517,489.747,363.467,495.894 C361.663,496.815,359.454,496.078,358.564,494.258 C358.564,494.258,349.905,476.554,349.905,476.554 z"/>
      <path id="Path 278" style="fill:#000000;fill-opacity:1;fill-rule:nonzero;opacity:1;stroke:none;" d="M326.151,405.77 C327.41,404.559,329.484,404.925,330.252,406.495 C341.821,430.149,353.39,453.803,364.958,477.457 C365.591,478.75,367.161,479.274,368.444,478.62 C373.32,476.132,378.196,473.645,383.073,471.157 C384.325,470.518,384.834,468.993,384.216,467.73 C372.628,444.036,361.04,420.342,349.451,396.647 C348.698,395.108,349.63,393.276,351.318,392.978 C362.654,390.978,373.99,388.978,385.326,386.978 C387.535,386.588,388.226,383.758,386.444,382.395 C357.989,360.619,329.533,338.844,301.078,317.069 C299.383,315.772,296.936,316.981,296.936,319.115 C296.936,355.352,296.936,391.589,296.936,427.825 C296.936,430.097,299.662,431.257,301.299,429.682 C307.812,423.415,309.277,422.006,318.169,413.45 C318.169,413.45,326.151,405.77,326.151,405.77 z"/>
    </g>
  </g>
</svg>
