<?xml version="1.0" encoding="utf-8"?>
<svg x="0px" y="0px" width="24px" height="24px" viewBox="0 0 24 24" xmlns="http://www.w3.org/2000/svg" xmlns:xlink="http://www.w3.org/1999/xlink">
  <!--Generated by AMDN-->
  <g id="Layer 1">
    <path id="Path" style="fill:#9e9e9e;fill-opacity:1;fill-rule:nonzero;opacity:1;stroke:#000000;stroke-linecap:round;stroke-linejoin:round;stroke-miterlimit:10;stroke-opacity:1;stroke-width:1;" d="M10.5,14.5 C10.5,14.5,7.5,15.5,7.5,17.5 C7.5,19.5,10.5,19.5,10.5,19.5"/>
    <path id="Path Copy" style="fill:#9e9e9e;fill-opacity:1;fill-rule:nonzero;opacity:1;stroke:#000000;stroke-linecap:round;stroke-linejoin:round;stroke-miterlimit:10;stroke-opacity:1;stroke-width:1;" d="M18.5001,14.5 C18.5001,14.5,21.5001,15.5,21.5001,17.5 C21.5001,19.5,18.5001,19.5,18.5001,19.5"/>
    <path id="Path" style="fill:#ffffff;fill-opacity:1;fill-rule:evenodd;opacity:1;stroke:#000000;stroke-linecap:round;stroke-linejoin:round;stroke-miterlimit:10;stroke-opacity:1;stroke-width:1;" d="M7,5.09091 C7,3.93613,7.89543,3,9,3 C9,3,20,3,20,3 C21.1046,3,22,3.93613,22,5.09091 C22,5.09091,22,12.4091,22,12.4091 C22,13.5639,21.1046,14.5,20,14.5 C20,14.5,9,14.5,9,14.5 C7.89543,14.5,7,13.5639,7,12.4091 C7,12.4091,7,5.09091,7,5.09091 z"/>
    <path id="Path" style="fill:#ffffff;fill-opacity:1;fill-rule:nonzero;opacity:1;stroke:#000000;stroke-linecap:round;stroke-linejoin:round;stroke-miterlimit:10;stroke-opacity:1;stroke-width:1;" d="M14.5,5.5 C14.5,5.5,14.5,11.5,14.5,11.5"/>
    <path id="Path" style="fill:#ffffff;fill-opacity:1;fill-rule:nonzero;opacity:1;stroke:#000000;stroke-linecap:round;stroke-linejoin:round;stroke-miterlimit:10;stroke-opacity:1;stroke-width:1;" d="M16.5,7.5 C16.5,7.5,16.5,8.5,16.5,8.5"/>
    <path id="Path Copy" style="fill:#ffffff;fill-opacity:1;fill-rule:nonzero;opacity:1;stroke:#000000;stroke-linecap:round;stroke-linejoin:round;stroke-miterlimit:10;stroke-opacity:1;stroke-width:1;" d="M12.5,7.5 C12.5,7.5,12.5,8.5,12.5,8.5"/>
    <g id="Group"/>
    <path id="Path" style="fill:none;opacity:1;stroke:#000000;stroke-linecap:round;stroke-linejoin:round;stroke-miterlimit:10;stroke-opacity:1;stroke-width:1;" d="M18.5,21.5 C18.5,21.5,17.5,20.5,17.5,20.5 C17.5,20.5,16.5,21.5,16.5,21.5"/>
    <path id="Path Copy" style="fill:none;opacity:1;stroke:#000000;stroke-linecap:round;stroke-linejoin:round;stroke-miterlimit:10;stroke-opacity:1;stroke-width:1;" d="M12.5,21.5 C12.5,21.5,11.5,20.5,11.5,20.5 C11.5,20.5,10.5,21.5,10.5,21.5"/>
    <path id="Path" style="fill:#e4e4e4;fill-opacity:1;fill-rule:evenodd;opacity:1;stroke:#000000;stroke-linecap:round;stroke-linejoin:round;stroke-miterlimit:10;stroke-opacity:1;stroke-width:1;" d="M10.5,14.5 C10.5,14.5,18.5,14.5,18.5,14.5 C18.5,14.5,18.5,19.5,18.5,19.5 C18.5,19.5,10.5,19.5,10.5,19.5 C10.5,19.5,10.5,14.5,10.5,14.5 z"/>
    <g id="Group">
      <g id="Group">
        <path id="Path Copy" style="fill:#5e78ca;fill-opacity:1;fill-rule:nonzero;opacity:1;stroke:#f2f2f2;stroke-linecap:round;stroke-linejoin:round;stroke-miterlimit:10;stroke-opacity:1;stroke-width:1;" d="M14,16.5 C14,16.5,16,16.5,16,16.5 C16,16.5,14.529,19.5,14.529,19.5"/>
        <path id="Path" style="fill:#5e78ca;fill-opacity:1;fill-rule:evenodd;opacity:1;stroke:none;" d="M3.58938,8.5 C3.58938,8.5,12.5894,8.5,12.5894,8.5 C12.5894,8.5,14.529,19.5,14.529,19.5 C14.529,19.5,5.52898,19.5,5.52898,19.5 C5.52898,19.5,3.58938,8.5,3.58938,8.5 z"/>
        <path id="Path" style="fill:#5e78ca;fill-opacity:1;fill-rule:nonzero;opacity:1;stroke:#f2f2f2;stroke-linecap:round;stroke-linejoin:round;stroke-miterlimit:10;stroke-opacity:1;stroke-width:1;" d="M12.5894,8.5 C12.5894,8.5,11.1184,11.5,11.1184,11.5 C11.1184,11.5,2.11836,11.5,2.11836,11.5 C2.11836,11.5,3.58938,8.5,3.58938,8.5"/>
        <path id="Path" style="fill:#5e78ca;fill-opacity:1;fill-rule:nonzero;opacity:1;stroke:#f2f2f2;stroke-linecap:round;stroke-linejoin:round;stroke-miterlimit:10;stroke-opacity:1;stroke-width:1;" d="M12.5894,8.5 C12.5894,8.5,14.529,19.5,14.529,19.5"/>
        <path id="Path Copy" style="fill:#5e78ca;fill-opacity:1;fill-rule:nonzero;opacity:1;stroke:#f2f2f2;stroke-linecap:round;stroke-linejoin:round;stroke-miterlimit:10;stroke-opacity:1;stroke-width:1;" d="M4.11836,11.5 C4.11836,11.5,5.52898,19.5,5.52898,19.5"/>
      </g>
      <path id="Path Copy" style="fill:#9e9e9e;fill-opacity:1;fill-rule:nonzero;opacity:1;stroke:#000000;stroke-linecap:round;stroke-linejoin:round;stroke-miterlimit:10;stroke-opacity:1;stroke-width:1;" d="M9.24134,12.5 C10.7547,12.5,12.1979,13.7268,12.4648,15.2402 C12.4648,15.2402,12.4648,15.2402,12.4648,15.2402 C12.6848,16.4883,11.8515,17.5,10.6034,17.5 C10.6034,17.5,10.5532,17.5,10.5532,17.5 C10.1721,17.5,9.91769,17.8089,9.98488,18.19 C9.98488,18.19,9.98488,18.19,9.98488,18.19 C10.2098,19.4658,9.35798,20.5,8.0822,20.5 C8.0822,20.5,6.3922,20.5,6.3922,20.5 C5.10049,20.5,3.86873,19.4529,3.64096,18.1612 C3.64096,18.1612,3.12073,15.2108,3.12073,15.2108 C2.85675,13.7137,3.8564,12.5,5.35352,12.5 C5.35352,12.5,9.24134,12.5,9.24134,12.5 z"/>
    </g>
  </g>
</svg>
