<?xml version="1.0" encoding="utf-8"?>
<svg x="0px" y="0px" width="48px" height="48px" viewBox="0 0 48 48" xmlns="http://www.w3.org/2000/svg" xmlns:xlink="http://www.w3.org/1999/xlink">
  <!--Generated by AMDN-->
  <g id="Layer 1">
    <g id="Group">
      <path id="Path 32" style="fill:#006736;fill-opacity:1;fill-rule:evenodd;opacity:1;stroke:#000000;stroke-linecap:round;stroke-linejoin:round;stroke-miterlimit:10;stroke-opacity:1;stroke-width:2;" d="M18.402,4.794 C18.402,4.794,17,9,17,9 C17,9,17,15,17,15 C17,15,15,15,15,15 C15,15,13,11,13,11 C13,11,11,13,11,13 C11,13,11,19,11,19 C11,19,15,19,15,19 C15,19,21,23,21,23 C21,23,27,25,27,25 C27,25,27,29,27,29 C27,29,15.6886,42.1966,15.6886,42.1966 C15.4567,42.0905,15.2271,41.98,15,41.8654 C15,41.8654,15,31,15,31 C15,31,9,29,9,29 C9,29,9,19,9,19 C9,19,7,15,7,15 C7,15,7,13.4592,7,13.4592 C9.57314,9.31806,13.6172,6.18626,18.402,4.794 z"/>
      <path id="Path 30" style="fill:#3da8f4;fill-opacity:1;fill-rule:evenodd;opacity:1;stroke:#000000;stroke-linecap:round;stroke-linejoin:round;stroke-miterlimit:10;stroke-opacity:1;stroke-width:2;" d="M7,13.4592 C5.09827,16.5197,4,20.1316,4,24 C4,31.8085,8.47484,38.5718,15,41.8654 C15,41.8654,15,31,15,31 C15,31,9,29,9,29 C9,29,9,19,9,19 C9,19,7,15,7,15 C7,15,7,13.4592,7,13.4592 z"/>
      <path id="Path 29" style="fill:#3da8f4;fill-opacity:1;fill-rule:evenodd;opacity:1;stroke:#000000;stroke-linecap:round;stroke-linejoin:round;stroke-miterlimit:10;stroke-opacity:1;stroke-width:2;" d="M18.402,4.794 C20.1784,4.27712,22.0568,4,24,4 C27.5689,4,30.9195,4.93481,33.8203,6.57293 C33.8203,6.57293,29,13,29,13 C29,13,31,19,31,19 C31,19,37,21,37,21 C37,21,39,29,39,29 C39,29,37.3515,38.8911,37.3515,38.8911 C33.8109,42.0677,29.1311,44,24,44 C21.0345,44,18.2198,43.3546,15.6886,42.1966 C15.6886,42.1966,27,29,27,29 C27,29,27,25,27,25 C27,25,21,23,21,23 C21,23,15,19,15,19 C15,19,11,19,11,19 C11,19,11,13,11,13 C11,13,13,11,13,11 C13,11,15,15,15,15 C15,15,17,15,17,15 C17,15,17,9,17,9 C17,9,18.402,4.794,18.402,4.794 z"/>
      <path id="Path 31" style="fill:#006736;fill-opacity:1;fill-rule:evenodd;opacity:1;stroke:#000000;stroke-linecap:round;stroke-linejoin:round;stroke-miterlimit:10;stroke-opacity:1;stroke-width:2;" d="M33.8203,6.57293 C33.8203,6.57293,29,13,29,13 C29,13,31,19,31,19 C31,19,37,21,37,21 C37,21,39,29,39,29 C39,29,37.3515,38.8911,37.3515,38.8911 C41.4326,35.2295,44,29.9146,44,24 C44,16.5232,39.8973,10.0047,33.8203,6.57293 z"/>
    </g>
  </g>
</svg>
