<?xml version="1.0" encoding="utf-8"?>
<svg x="0pt" y="0pt" width="48pt" height="48pt" viewBox="0 0 48 48" xmlns="http://www.w3.org/2000/svg" xmlns:xlink="http://www.w3.org/1999/xlink">
  <!--Generated by AMDN-->
  <g id="Layer 1">
    <g id="Layer 1">
      <g id="Group">
        <path id="Path" style="fill:#ffffff;fill-opacity:1;fill-rule:evenodd;opacity:1;stroke:#000000;stroke-linecap:round;stroke-linejoin:round;stroke-miterlimit:10;stroke-opacity:1;stroke-width:2;" d="M3,33 C3,31.8954,3.89543,31,5,31 C5,31,43,31,43,31 C44.1046,31,45,31.8954,45,33 C45,33,45,43,45,43 C45,44.1046,44.1046,45,43,45 C43,45,5,45,5,45 C3.89543,45,3,44.1046,3,43 C3,43,3,33,3,33 z"/>
        <g id="Group">
          <path id="Path" style="fill:#ffffff;fill-opacity:1;fill-rule:evenodd;opacity:1;stroke:#ed247b;stroke-linecap:round;stroke-linejoin:round;stroke-miterlimit:10;stroke-opacity:1;stroke-width:2;" d="M7,35 C7,35,7,36.3431,7,38 C7,39.6569,8.34315,41,10,41 C11.6569,41,13,39.6569,13,38 C13,36.3431,13,35,13,35"/>
          <path id="Path" style="fill:#ffffff;fill-opacity:1;fill-rule:nonzero;opacity:1;stroke:#ed247b;stroke-linecap:round;stroke-linejoin:round;stroke-miterlimit:10;stroke-opacity:1;stroke-width:2;" d="M17,35 C17,35,17,41,17,41"/>
        </g>
        <g id="Group">
          <path id="Path" style="fill:#ed247b;fill-opacity:1;fill-rule:evenodd;opacity:1;stroke:none;" d="M38,33 C40.7614,33,43,35.2386,43,38 C43,40.7614,40.7614,43,38,43 C35.2386,43,33,40.7614,33,38 C33,35.2386,35.2386,33,38,33 z"/>
          <path id="Path" style="fill:#ed247b;fill-opacity:1;fill-rule:nonzero;opacity:1;stroke:#ffffff;stroke-linecap:round;stroke-linejoin:round;stroke-miterlimit:10;stroke-opacity:1;stroke-width:2;" d="M40,36 C40,36,36,40,36,40"/>
          <path id="Path" style="fill:#ed247b;fill-opacity:1;fill-rule:nonzero;opacity:1;stroke:#ffffff;stroke-linecap:round;stroke-linejoin:round;stroke-miterlimit:10;stroke-opacity:1;stroke-width:2;" d="M36,36 C36,36,40,40,40,40"/>
        </g>
      </g>
      <g id="Group">
        <path id="Path" style="fill:#9e9e9e;fill-opacity:1;fill-rule:nonzero;opacity:1;stroke:#000000;stroke-linecap:round;stroke-linejoin:round;stroke-miterlimit:10;stroke-opacity:1;stroke-width:2;" d="M15.9736,21.0096 C15.9736,21.0096,9.97361,23.0096,9.97361,27.0096 C9.97361,31.0096,15.9736,31.0096,15.9736,31.0096"/>
        <path id="Path Copy" style="fill:#9e9e9e;fill-opacity:1;fill-rule:nonzero;opacity:1;stroke:#000000;stroke-linecap:round;stroke-linejoin:round;stroke-miterlimit:10;stroke-opacity:1;stroke-width:2;" d="M31.9736,21.0096 C31.9736,21.0096,37.9736,23.0096,37.9736,27.0096 C37.9736,31.0096,31.9736,31.0096,31.9736,31.0096"/>
        <path id="Path" style="fill:none;opacity:1;stroke:#000000;stroke-linecap:round;stroke-linejoin:round;stroke-miterlimit:10;stroke-opacity:1;stroke-width:2;" d="M31,33 C31,33,29.4868,31,29.4868,31 C29.4868,31,27.9736,33,27.9736,33"/>
        <path id="Path Copy" style="fill:none;opacity:1;stroke:#000000;stroke-linecap:round;stroke-linejoin:round;stroke-miterlimit:10;stroke-opacity:1;stroke-width:2;" d="M19.9736,33 C19.9736,33,17.9736,31,17.9736,31 C17.9736,31,15.9736,33,15.9736,33"/>
        <path id="Path" style="fill:#e4e4e4;fill-opacity:1;fill-rule:evenodd;opacity:1;stroke:#000000;stroke-linecap:round;stroke-linejoin:round;stroke-miterlimit:10;stroke-opacity:1;stroke-width:2;" d="M15.9736,21 C15.9736,21,31.9736,21,31.9736,21 C31.9736,21,31.9736,31,31.9736,31 C31.9736,31,15.9736,31,15.9736,31 C15.9736,31,15.9736,21,15.9736,21 z"/>
        <path id="Path" style="fill:#ffffff;fill-opacity:1;fill-rule:evenodd;opacity:1;stroke:#000000;stroke-linecap:round;stroke-linejoin:round;stroke-miterlimit:10;stroke-opacity:1;stroke-width:2;" d="M9,7.18182 C9,4.87226,10.7924,3,13.0035,3 C13.0035,3,35.0229,3,35.0229,3 C37.234,3,39.0264,4.87226,39.0264,7.18182 C39.0264,7.18182,39.0264,21.8182,39.0264,21.8182 C39.0264,24.1277,37.234,26,35.0229,26 C35.0229,26,13.0035,26,13.0035,26 C10.7924,26,9,24.1277,9,21.8182 C9,21.8182,9,7.18182,9,7.18182 z"/>
        <path id="Path" style="fill:#ffffff;fill-opacity:1;fill-rule:nonzero;opacity:1;stroke:#000000;stroke-linecap:round;stroke-linejoin:round;stroke-miterlimit:10;stroke-opacity:1;stroke-width:2;" d="M24,11 C24,11,24,23,24,23"/>
        <path id="Path" style="fill:#ffffff;fill-opacity:1;fill-rule:nonzero;opacity:1;stroke:#000000;stroke-linecap:round;stroke-linejoin:round;stroke-miterlimit:10;stroke-opacity:1;stroke-width:2;" d="M28,15 C28,15,28,17,28,17"/>
        <path id="Path Copy" style="fill:#ffffff;fill-opacity:1;fill-rule:nonzero;opacity:1;stroke:#000000;stroke-linecap:round;stroke-linejoin:round;stroke-miterlimit:10;stroke-opacity:1;stroke-width:2;" d="M20,15 C20,15,20,17,20,17"/>
      </g>
    </g>
  </g>
</svg>
