<?xml version="1.0" encoding="utf-8"?>
<svg x="0px" y="0px" width="24px" height="24px" viewBox="0 0 24 24" xmlns="http://www.w3.org/2000/svg" xmlns:xlink="http://www.w3.org/1999/xlink">
  <!--Generated by AMDN-->
  <g id="Layer 1">
    <path id="Path" style="fill:#9e9e9e;fill-opacity:1;fill-rule:nonzero;opacity:1;stroke:#000000;stroke-linecap:round;stroke-linejoin:round;stroke-miterlimit:10;stroke-opacity:1;stroke-width:1;" d="M8.00478,14.2548 C8.00478,14.2548,5.00478,15.2548,5.00478,17.2548 C5.00478,19.2548,8.00478,19.2548,8.00478,19.2548"/>
    <path id="Path Copy" style="fill:#9e9e9e;fill-opacity:1;fill-rule:nonzero;opacity:1;stroke:#000000;stroke-linecap:round;stroke-linejoin:round;stroke-miterlimit:10;stroke-opacity:1;stroke-width:1;" d="M16.0049,14.2548 C16.0049,14.2548,19.0049,15.2548,19.0049,17.2548 C19.0049,19.2548,16.0049,19.2548,16.0049,19.2548"/>
    <path id="Path" style="fill:#ffffff;fill-opacity:1;fill-rule:evenodd;opacity:1;stroke:#000000;stroke-linecap:round;stroke-linejoin:round;stroke-miterlimit:10;stroke-opacity:1;stroke-width:1;" d="M4.50478,4.84569 C4.50478,3.69091,5.40021,2.75478,6.50478,2.75478 C6.50478,2.75478,17.5048,2.75478,17.5048,2.75478 C18.6094,2.75478,19.5048,3.69091,19.5048,4.84569 C19.5048,4.84569,19.5048,12.1639,19.5048,12.1639 C19.5048,13.3187,18.6094,14.2548,17.5048,14.2548 C17.5048,14.2548,6.50478,14.2548,6.50478,14.2548 C5.40021,14.2548,4.50478,13.3186,4.50478,12.1639 C4.50478,12.1639,4.50478,4.84569,4.50478,4.84569 z"/>
    <path id="Path" style="fill:#ffffff;fill-opacity:1;fill-rule:nonzero;opacity:1;stroke:#000000;stroke-linecap:round;stroke-linejoin:round;stroke-miterlimit:10;stroke-opacity:1;stroke-width:1;" d="M12.0048,5.25478 C12.0048,5.25478,12.0048,11.2548,12.0048,11.2548"/>
    <path id="Path" style="fill:#ffffff;fill-opacity:1;fill-rule:nonzero;opacity:1;stroke:#000000;stroke-linecap:round;stroke-linejoin:round;stroke-miterlimit:10;stroke-opacity:1;stroke-width:1;" d="M14.0048,7.25478 C14.0048,7.25478,14.0048,8.25478,14.0048,8.25478"/>
    <path id="Path Copy" style="fill:#ffffff;fill-opacity:1;fill-rule:nonzero;opacity:1;stroke:#000000;stroke-linecap:round;stroke-linejoin:round;stroke-miterlimit:10;stroke-opacity:1;stroke-width:1;" d="M10.0048,7.25478 C10.0048,7.25478,10.0048,8.25478,10.0048,8.25478"/>
    <path id="Path" style="fill:none;opacity:1;stroke:#000000;stroke-linecap:round;stroke-linejoin:round;stroke-miterlimit:10;stroke-opacity:1;stroke-width:1;" d="M16.0048,21.2548 C16.0048,21.2548,15.0048,20.2548,15.0048,20.2548 C15.0048,20.2548,14.0048,21.2548,14.0048,21.2548"/>
    <path id="Path Copy" style="fill:none;opacity:1;stroke:#000000;stroke-linecap:round;stroke-linejoin:round;stroke-miterlimit:10;stroke-opacity:1;stroke-width:1;" d="M10.0048,21.2548 C10.0048,21.2548,9.00478,20.2548,9.00478,20.2548 C9.00478,20.2548,8.00478,21.2548,8.00478,21.2548"/>
    <path id="Path" style="fill:#e4e4e4;fill-opacity:1;fill-rule:evenodd;opacity:1;stroke:#000000;stroke-linecap:round;stroke-linejoin:round;stroke-miterlimit:10;stroke-opacity:1;stroke-width:1;" d="M8.00478,14.2548 C8.00478,14.2548,16.0048,14.2548,16.0048,14.2548 C16.0048,14.2548,16.0048,19.2548,16.0048,19.2548 C16.0048,19.2548,8.00478,19.2548,8.00478,19.2548 C8.00478,19.2548,8.00478,14.2548,8.00478,14.2548 z"/>
  </g>
</svg>
