<?xml version="1.0" encoding="utf-8"?>
<svg x="0px" y="0px" width="48px" height="48px" viewBox="0 0 48 48" xmlns="http://www.w3.org/2000/svg" xmlns:xlink="http://www.w3.org/1999/xlink">
  <!--Generated by AMDN-->
  <g id="Layer 1">
    <g id="Group">
      <g id="Group">
        <path id="Path 17" style="fill:#3ea9f5;fill-opacity:1;fill-rule:evenodd;opacity:1;stroke:none;" d="M23.9725,47 C23.9725,47,39,47,39,47 C43.4183,47,47,43.4183,47,39 C47,39,47,9,47,9 C47,4.58172,43.4183,1,39,1 C39,1,9,1,9,1 C4.58172,1,1,4.58172,1,9 C1,9,1,39,1,39 C1,41.6412,2.27995,43.9835,4.25342,45.4404 C4.08812,44.8215,4,44.171,4,43.5 C4,39.3579,7.35786,36,11.5,36 C15.1444,36,18.1817,38.5994,18.859,42.0453 C19.0684,42.0154,19.2824,42,19.5,42 C21.9853,42,24,44.0147,24,46.5 C24,46.669,23.9907,46.8358,23.9725,47 z"/>
        <path id="Path 18" style="fill:#ffffff;fill-opacity:1;fill-rule:evenodd;opacity:1;stroke:none;" d="M4.25342,45.4404 C4.08812,44.8215,4,44.171,4,43.5 C4,39.3579,7.35786,36,11.5,36 C15.1444,36,18.1817,38.5994,18.859,42.0453 C19.0684,42.0154,19.2824,42,19.5,42 C21.9853,42,24,44.0147,24,46.5 C24,46.669,23.9907,46.8358,23.9725,47 C23.9725,47,9,47,9,47 C7.22294,47,5.58121,46.4206,4.25342,45.4404 z"/>
      </g>
      <path id="Path" style="fill:none;opacity:1;stroke:#000000;stroke-linecap:round;stroke-linejoin:round;stroke-miterlimit:10;stroke-opacity:1;stroke-width:2;" d="M35,35 C35,35,32.1716,35,32.1716,35 C32.1716,35,32.1716,37.8284,32.1716,37.8284"/>
      <path id="Path Copy" style="fill:none;opacity:1;stroke:#000000;stroke-linecap:round;stroke-linejoin:round;stroke-miterlimit:10;stroke-opacity:1;stroke-width:2;" d="M31,39 C31,39,28.1716,39,28.1716,39 C28.1716,39,28.1716,41.8284,28.1716,41.8284"/>
      <path id="Path Copy" style="fill:#9e9e9e;fill-opacity:1;fill-rule:nonzero;opacity:1;stroke:#000000;stroke-linecap:round;stroke-linejoin:round;stroke-miterlimit:10;stroke-opacity:1;stroke-width:2;" d="M7.48047,16 C4.45369,16,2,18.4537,2,21.4805 C2,21.4805,2,21.4805,2,21.4805 C2,23.9765,4.02346,26,6.51953,26 C6.51953,26,6.61997,26,6.61997,26 C7.38213,26,8,26.6179,8,27.38 C8,27.38,8,27.38,8,27.38 C8,29.9316,10.0684,32,12.62,32 C12.62,32,16,32,16,32 C18.5834,32,20.6777,29.9057,20.6777,27.3223 C20.6777,27.3223,20.6777,21.4215,20.6777,21.4215 C20.6777,18.4273,18.2504,16,15.2561,16 C15.2561,16,7.48047,16,7.48047,16 z"/>
      <path id="Path" style="fill:#e4e4e4;fill-opacity:1;fill-rule:evenodd;opacity:1;stroke:#000000;stroke-linecap:round;stroke-linejoin:round;stroke-miterlimit:10;stroke-opacity:1;stroke-width:2;" d="M17,29 C17,29,33,29,33,29 C33,29,33,29,33,29 C33,34.5228,28.5228,39,23,39 C23,39,23,39,23,39 C19.6863,39,17,36.3137,17,33 C17,33,17,29,17,29 z"/>
      <path id="Path Copy" style="fill:#9e9e9e;fill-opacity:1;fill-rule:nonzero;opacity:1;stroke:#000000;stroke-linecap:round;stroke-linejoin:round;stroke-miterlimit:10;stroke-opacity:1;stroke-width:2;" d="M40.5195,16 C43.5463,16,46,18.4537,46,21.4805 C46,21.4805,46,21.4805,46,21.4805 C46,23.9765,43.9765,26,41.4805,26 C41.4805,26,41.38,26,41.38,26 C40.6179,26,40,26.6179,40,27.38 C40,27.38,40,27.38,40,27.38 C40,29.9316,37.9316,32,35.38,32 C35.38,32,32,32,32,32 C29.4166,32,27.3223,29.9057,27.3223,27.3223 C27.3223,27.3223,27.3223,21.4215,27.3223,21.4215 C27.3223,18.4273,29.7496,16,32.7439,16 C32.7439,16,40.5195,16,40.5195,16 z"/>
      <g id="Group">
        <path id="Path" style="fill:#ffffff;fill-opacity:1;fill-rule:evenodd;opacity:1;stroke:#000000;stroke-linecap:round;stroke-linejoin:round;stroke-miterlimit:10;stroke-opacity:1;stroke-width:2;" d="M6,10.1818 C6,7.87226,7.79086,6,10,6 C10,6,32,6,32,6 C34.2091,6,36,7.87226,36,10.1818 C36,10.1818,36,24.8182,36,24.8182 C36,27.1277,34.2091,29,32,29 C32,29,10,29,10,29 C7.79086,29,6,27.1277,6,24.8182 C6,24.8182,6,10.1818,6,10.1818 z"/>
        <path id="Path" style="fill:#ffffff;fill-opacity:1;fill-rule:nonzero;opacity:1;stroke:#000000;stroke-linecap:round;stroke-linejoin:round;stroke-miterlimit:10;stroke-opacity:1;stroke-width:2;" d="M21,11 C21,11,21,23,21,23"/>
        <path id="Path" style="fill:#ffffff;fill-opacity:1;fill-rule:nonzero;opacity:1;stroke:#000000;stroke-linecap:round;stroke-linejoin:round;stroke-miterlimit:10;stroke-opacity:1;stroke-width:2;" d="M25,15 C25,15,25,17,25,17"/>
        <path id="Path Copy" style="fill:#ffffff;fill-opacity:1;fill-rule:nonzero;opacity:1;stroke:#000000;stroke-linecap:round;stroke-linejoin:round;stroke-miterlimit:10;stroke-opacity:1;stroke-width:2;" d="M17,15 C17,15,17,17,17,17"/>
      </g>
    </g>
  </g>
</svg>
