<svg xmlns="http://www.w3.org/2000/svg"><defs><font id="icomoon" horiz-adv-x="1024"><font-face units-per-em="1024" ascent="960" descent="-64"/><glyph horiz-adv-x="512"/><glyph unicode="" glyph-name="airplay" d="M213.333 256h-42.667c-11.776 0-22.4 4.736-30.165 12.501S128 286.89 128 298.666v426.667c0 11.776 4.736 22.4 12.501 30.165s18.389 12.501 30.165 12.501h682.667c11.776 0 22.4-4.736 30.165-12.501s12.501-18.389 12.501-30.165V298.666c0-11.776-4.736-22.4-12.501-30.165S865.109 256 853.333 256h-42.667c-23.552 0-42.667-19.115-42.667-42.667s19.115-42.667 42.667-42.667h42.667c35.328 0 67.413 14.379 90.496 37.504s37.504 55.168 37.504 90.496v426.667c0 35.328-14.379 67.413-37.504 90.496s-55.168 37.504-90.496 37.504H170.666c-35.328 0-67.413-14.379-90.496-37.504s-37.504-55.168-37.504-90.496V298.666c0-35.328 14.379-67.413 37.504-90.496s55.168-37.504 90.496-37.504h42.667c23.552 0 42.667 19.115 42.667 42.667S236.885 256 213.333 256zm331.435 69.974c-1.493 1.835-3.371 3.712-5.461 5.461-18.091 15.104-45.013 12.629-60.075-5.461l-213.333-256A42.479 42.479 0 0 1 256 42.667C256 19.115 275.115 0 298.667 0h426.667c9.6-.043 19.328 3.2 27.307 9.899 18.091 15.104 20.565 41.984 5.461 60.075zM512 232.022 634.24 85.334H389.76z"/><glyph unicode="" glyph-name="bell" d="M725.333 597.334c0-171.136 40.405-278.187 78.976-341.333H219.69c38.571 63.147 78.976 170.197 78.976 341.333 0 58.923 23.851 112.213 62.464 150.869s91.947 62.464 150.869 62.464 112.213-23.851 150.869-62.464 62.464-91.947 62.464-150.869zm85.334 0c0 82.475-33.493 157.184-87.467 211.2S594.475 896.001 512 896.001s-157.184-33.493-211.2-87.467-87.467-128.725-87.467-211.2c0-261.419-102.101-343.339-109.355-348.757-19.328-13.141-24.448-39.424-11.477-58.923 8.192-12.245 21.589-18.901 35.499-18.987h768c23.552 0 42.667 19.115 42.667 42.667 0 14.464-7.168 27.221-18.304 35.029-7.509 5.547-109.696 87.467-109.696 348.971zM548.907 64.086c-5.931-10.197-15.317-17.024-25.941-19.84s-22.187-1.579-32.384 4.309c-6.912 4.011-12.075 9.472-15.317 15.232-11.691 20.48-37.717 27.605-58.197 15.915s-27.605-37.717-15.915-58.197c10.667-18.731 26.581-35.115 46.635-46.763 30.549-17.749 65.493-21.376 97.109-12.971s60.117 28.928 77.824 59.477c11.819 20.395 4.864 46.507-15.488 58.325s-46.507 4.864-58.325-15.488z"/><glyph unicode="" glyph-name="bell-off" d="M548.907 64.086c-5.931-10.197-15.317-17.024-25.941-19.84s-22.187-1.579-32.384 4.309c-6.912 4.011-12.075 9.472-15.317 15.232-11.691 20.48-37.717 27.605-58.197 15.915s-27.605-37.717-15.915-58.197c10.667-18.731 26.581-35.115 46.635-46.763 30.549-17.749 65.493-21.376 97.109-12.971s60.117 28.928 77.824 59.477c11.819 20.395 4.864 46.507-15.488 58.325s-46.507 4.864-58.325-15.488zm261.76 534.229c-.171 82.048-33.451 156.416-87.168 210.261-53.931 54.101-128.597 87.68-211.072 87.808-61.781.085-119.424-18.645-166.4-50.347-19.499-13.184-24.661-39.723-11.477-59.264s39.723-24.661 59.264-11.477c32.597 22.016 72.875 35.371 116.48 35.712 61.781-.469 114.517-24.277 152.789-62.72 38.485-38.613 62.208-91.733 62.251-150.443-1.792-70.741 7.381-148.309 28.373-225.152 6.229-22.741 29.653-36.139 52.395-29.909s36.139 29.653 29.909 52.395c-18.901 69.333-26.965 138.667-25.344 200.875V597.121zm-512.171-18.517 323.84-323.797H219.691c37.205 60.928 76.075 162.645 78.805 323.797zM12.501 865.835 219.69 658.646c-4.523-21.035-6.613-41.984-6.357-61.867 0-260.864-102.101-342.784-109.355-348.203-19.328-13.141-24.448-39.424-11.477-58.923 8.192-12.245 21.589-18.901 35.499-18.987h579.669L951.168-72.833c16.683-16.683 43.691-16.683 60.331 0s16.683 43.691 0 60.331L72.832 926.165c-16.683 16.683-43.691 16.683-60.331 0s-16.683-43.691 0-60.331z"/><glyph unicode="" glyph-name="bookmark" d="M785.877 7.936C792.746 2.987 801.365 0 810.666 0c23.552 0 42.667 19.115 42.667 42.667v682.667c0 35.328-14.379 67.413-37.504 90.496s-55.168 37.504-90.496 37.504H298.666c-35.328 0-67.413-14.379-90.496-37.504s-37.504-55.168-37.504-90.496V42.667c-.043-8.491 2.56-17.237 7.936-24.789 13.696-19.157 40.363-23.637 59.52-9.899l273.877 195.584zM768 125.568 536.789 290.731c-15.147 10.837-34.944 10.325-49.579 0L255.999 125.568v599.765c0 11.776 4.736 22.4 12.501 30.165s18.389 12.501 30.165 12.501h426.667c11.776 0 22.4-4.736 30.165-12.501s12.501-18.389 12.501-30.165z"/><glyph unicode="" glyph-name="camera" d="M1024 128v469.333c0 35.328-14.379 67.413-37.504 90.496S931.328 725.333 896 725.333H748.16l-72.661 109.013c-7.765 11.52-20.736 18.987-35.499 18.987H384c-13.909-.085-27.307-6.741-35.499-18.987L275.84 725.333H128c-35.328 0-67.413-14.379-90.496-37.504S0 632.661 0 597.333V128c0-35.328 14.379-67.413 37.504-90.496S92.672 0 128 0h768c35.328 0 67.413 14.379 90.496 37.504S1024 92.672 1024 128zm-85.333 0c0-11.776-4.736-22.4-12.501-30.165s-18.389-12.501-30.165-12.501h-768c-11.776 0-22.4 4.736-30.165 12.501S85.335 116.224 85.335 128v469.333c0 11.776 4.736 22.4 12.501 30.165s18.389 12.501 30.165 12.501h170.667c14.763 0 27.733 7.467 35.499 18.987l72.661 109.013h210.347l72.661-109.013c8.192-12.245 21.589-18.901 35.499-18.987h170.667c11.776 0 22.4-4.736 30.165-12.501s12.501-18.389 12.501-30.165zM725.333 384c0 58.88-23.936 112.299-62.464 150.869S570.88 597.333 512 597.333s-112.299-23.936-150.869-62.464S298.667 442.88 298.667 384s23.936-112.299 62.464-150.869S453.12 170.667 512 170.667s112.299 23.936 150.869 62.464S725.333 325.12 725.333 384zM640 384c0-35.371-14.293-67.285-37.504-90.496S547.371 256 512 256s-67.285 14.293-90.496 37.504S384 348.629 384 384s14.293 67.285 37.504 90.496S476.629 512 512 512s67.285-14.293 90.496-37.504S640 419.371 640 384z"/><glyph unicode="" glyph-name="check" d="M823.168 712.832 384 273.664 200.832 456.832c-16.683 16.683-43.691 16.683-60.331 0s-16.683-43.691 0-60.331l213.333-213.333c16.683-16.683 43.691-16.683 60.331 0l469.333 469.333c16.683 16.683 16.683 43.691 0 60.331s-43.691 16.683-60.331 0z"/><glyph unicode="" glyph-name="chevron-down" d="m225.835 524.502 256-256c16.683-16.683 43.691-16.683 60.331 0l256 256c16.683 16.683 16.683 43.691 0 60.331s-43.691 16.683-60.331 0L512 358.998 286.165 584.833c-16.683 16.683-43.691 16.683-60.331 0s-16.683-43.691 0-60.331z"/><glyph unicode="" glyph-name="chevron-left" d="M670.165 200.832 444.33 426.667l225.835 225.835c16.683 16.683 16.683 43.691 0 60.331s-43.691 16.683-60.331 0l-256-256c-16.683-16.683-16.683-43.691 0-60.331l256-256c16.683-16.683 43.691-16.683 60.331 0s16.683 43.691 0 60.331z"/><glyph unicode="" glyph-name="chevron-right" d="m414.165 140.502 256 256c16.683 16.683 16.683 43.691 0 60.331l-256 256c-16.683 16.683-43.691 16.683-60.331 0s-16.683-43.691 0-60.331l225.835-225.835-225.835-225.835c-16.683-16.683-16.683-43.691 0-60.331s43.691-16.683 60.331 0z"/><glyph unicode="" glyph-name="chevron-up" d="m798.165 328.832-256 256c-16.683 16.683-43.691 16.683-60.331 0l-256-256c-16.683-16.683-16.683-43.691 0-60.331s43.691-16.683 60.331 0L512 494.336l225.835-225.835c16.683-16.683 43.691-16.683 60.331 0s16.683 43.691 0 60.331z"/><glyph unicode="" glyph-name="code" d="m712.832 140.502 256 256c16.683 16.683 16.683 43.691 0 60.331l-256 256c-16.683 16.683-43.691 16.683-60.331 0s-16.683-43.691 0-60.331l225.835-225.835-225.835-225.835c-16.683-16.683-16.683-43.691 0-60.331s43.691-16.683 60.331 0zm-401.664 572.33-256-256c-16.683-16.683-16.683-43.691 0-60.331l256-256c16.683-16.683 43.691-16.683 60.331 0s16.683 43.691 0 60.331L145.664 426.667l225.835 225.835c16.683 16.683 16.683 43.691 0 60.331s-43.691 16.683-60.331 0z"/><glyph unicode="" glyph-name="corner-up-left" d="M896 85.334v298.667c0 58.88-23.936 112.299-62.464 150.869s-91.989 62.464-150.869 62.464H273.664l140.501 140.501c16.683 16.683 16.683 43.691 0 60.331s-43.691 16.683-60.331 0L140.501 584.833c-4.096-4.096-7.168-8.789-9.259-13.824s-3.243-10.539-3.243-16.341 1.152-11.307 3.243-16.341a42.567 42.567 0 0 1 9.259-13.824L353.834 311.17c16.683-16.683 43.691-16.683 60.331 0s16.683 43.691 0 60.331L273.664 512.002h409.003c35.371 0 67.285-14.293 90.496-37.504s37.504-55.125 37.504-90.496V85.335c0-23.552 19.115-42.667 42.667-42.667s42.667 19.115 42.667 42.667z"/><glyph unicode="" glyph-name="corner-up-right" d="M213.333 85.334v298.667c0 35.371 14.293 67.285 37.504 90.496s55.125 37.504 90.496 37.504h409.003L609.835 371.5c-16.683-16.683-16.683-43.691 0-60.331s43.691-16.683 60.331 0l213.333 213.333a43.018 43.018 0 0 1 9.259 13.824 42.932 42.932 0 0 1 0 32.683 42.567 42.567 0 0 1-9.259 13.824L670.166 798.166c-16.683 16.683-43.691 16.683-60.331 0s-16.683-43.691 0-60.331l140.501-140.501H341.333c-58.88 0-112.299-23.936-150.869-62.464S128 442.881 128 384.001V85.334c0-23.552 19.115-42.667 42.667-42.667s42.667 19.115 42.667 42.667z"/><glyph unicode="" glyph-name="crop" d="M301.952 636.715 683.051 640c11.435 0 22.016-4.736 29.781-12.501s12.501-18.389 12.501-30.165v-384h-384c-11.776 0-22.4 4.736-30.165 12.501s-12.501 18.389-12.501 29.781zm-258.901-2.261 173.568 1.493-3.285-379.563c0-35.712 14.379-67.755 37.504-90.88S306.006 128 341.334 128h384V-42.667c0-23.552 19.115-42.667 42.667-42.667s42.667 19.115 42.667 42.667V128h170.667c23.552 0 42.667 19.115 42.667 42.667s-19.115 42.667-42.667 42.667H810.668v384c0 35.328-14.379 67.413-37.504 90.496s-55.168 37.504-90.88 37.504l-379.563-3.285 1.493 173.568c.213 23.595-18.731 42.837-42.283 43.051s-42.837-18.731-43.051-42.283l-1.536-175.061-175.061-1.536C18.731 719.575-.213 700.332 0 676.737s19.456-42.496 43.051-42.283z"/><glyph unicode="" glyph-name="database" d="M170.667 725.248s.128 4.053 9.088 12.288c10.453 9.6 28.629 20.608 55.723 31.147 63.957 24.96 163.029 41.984 276.523 41.984s212.565-17.024 276.565-41.984c27.051-10.539 45.269-21.547 55.723-31.147 8.747-8.064 9.045-11.989 9.045-12.288 0-.128-.299-4.053-9.088-12.117-10.453-9.6-28.629-20.608-55.723-31.147C724.566 657.024 625.494 640 512 640s-212.565 17.024-276.565 41.984c-27.051 10.539-45.269 21.547-55.723 31.147-8.875 8.192-9.045 12.117-9.045 12.117zm682.666-406.613V127.872c-1.749-4.139-4.096-7.723-9.259-12.416-10.453-9.6-28.629-20.565-55.595-31.061-63.787-24.832-162.517-41.728-276.48-41.728s-212.693 16.896-276.48 41.728c-27.008 10.496-45.141 21.461-55.595 31.061-5.12 4.693-7.509 8.277-8.491 10.325l-.256 192.597c10.581-5.376 21.76-10.325 33.365-14.848 76.672-29.824 186.752-47.531 307.456-47.531s230.784 17.707 307.456 47.531c11.819 4.608 23.168 9.6 33.877 15.104zm0 298.88V426.539c-1.749-4.139-4.096-7.723-9.259-12.416-10.453-9.6-28.629-20.565-55.595-31.061-63.787-24.832-162.517-41.728-276.48-41.728s-212.693 16.896-276.48 41.728c-27.008 10.496-45.141 21.461-55.595 31.061-5.12 4.693-7.509 8.277-8.491 10.325a47.478 47.478 0 0 1-.384 4.992l-.213 188.032c10.581-5.461 21.888-10.411 33.621-15.019 76.843-29.952 187.221-47.787 307.541-47.787s230.699 17.835 307.541 47.787c11.776 4.608 23.125 9.6 33.792 15.061zm-768 107.819V128.001a86.1 86.1 0 0 1 .299-7.424c2.432-28.373 18.133-51.072 36.565-68.011 21.248-19.499 50.133-35.157 82.347-47.701C281.216-24.959 391.296-42.666 512-42.666S742.784-24.959 819.456 4.865c32.213 12.544 61.099 28.203 82.347 47.701 18.432 16.939 34.133 39.637 36.565 68.011.213 2.475.299 4.949.299 7.424v597.333a80.28 80.28 0 0 1-.299 7.168c-2.347 28.331-18.005 50.987-36.352 67.84-21.248 19.584-50.219 35.285-82.475 47.872C742.698 878.166 632.32 896.001 512 896.001s-230.699-17.835-307.541-47.787c-32.256-12.587-61.227-28.331-82.475-47.872-18.347-16.853-34.005-39.552-36.352-67.84a80.657 80.657 0 0 1-.299-7.168z"/><glyph unicode="" glyph-name="download" d="M853.333 298.667V128c0-11.776-4.736-22.4-12.501-30.165s-18.389-12.501-30.165-12.501H213.334c-11.776 0-22.4 4.736-30.165 12.501S170.668 116.224 170.668 128v170.667c0 23.552-19.115 42.667-42.667 42.667s-42.667-19.115-42.667-42.667V128c0-35.328 14.379-67.413 37.504-90.496S178.006 0 213.334 0h597.333c35.328 0 67.413 14.379 90.496 37.504S938.667 92.672 938.667 128v170.667c0 23.552-19.115 42.667-42.667 42.667s-42.667-19.115-42.667-42.667zM554.667 401.664v409.003c0 23.552-19.115 42.667-42.667 42.667s-42.667-19.115-42.667-42.667V401.664L328.832 542.165c-16.683 16.683-43.691 16.683-60.331 0s-16.683-43.691 0-60.331l213.333-213.333c3.925-3.925 8.619-7.083 13.824-9.259s10.795-3.243 16.341-3.243c10.923 0 21.845 4.181 30.165 12.501l213.333 213.333c16.683 16.683 16.683 43.691 0 60.331s-43.691 16.683-60.331 0z"/><glyph unicode="" glyph-name="download-cloud" d="M469.333 426.667V145.664l-97.835 97.835c-16.683 16.683-43.691 16.683-60.331 0s-16.683-43.691 0-60.331L481.834 12.501a43.018 43.018 0 0 1 13.824-9.259 42.932 42.932 0 0 1 32.683 0 42.567 42.567 0 0 1 13.824 9.259l170.667 170.667c16.683 16.683 16.683 43.691 0 60.331s-43.691 16.683-60.331 0l-97.835-97.835v281.003c0 23.552-19.115 42.667-42.667 42.667s-42.667-19.115-42.667-42.667zm446.08-294.741c57.813 40.661 93.696 100.992 104.96 165.461s-2.133 133.376-42.795 191.189c-35.2 50.091-85.248 83.755-140.245 99.157a260.665 260.665 0 0 1-69.163 9.6h-22.315c-30.805 87.808-91.179 158.293-166.699 203.008-84.523 50.005-188.245 67.797-290.944 41.472S103.124 749.866 53.119 665.344-14.678 477.099 11.647 374.4c15.829-61.696 45.867-116.267 84.608-159.317 15.787-17.493 42.752-18.944 60.245-3.157s18.944 42.752 3.157 60.245c-29.525 32.811-52.992 75.093-65.408 123.435-20.523 79.915-6.699 160.469 32.256 226.304s102.912 116.736 182.827 137.216 160.469 6.699 226.304-32.256 116.736-102.912 137.216-182.827c4.949-18.56 21.589-32.043 41.387-32.043h53.589a174.059 174.059 0 0 0 46.507-6.443c36.736-10.283 69.931-32.64 93.44-66.048 27.136-38.571 36.053-84.395 28.544-127.488s-31.403-83.2-69.973-110.293c-19.285-13.568-23.893-40.149-10.368-59.435s40.149-23.893 59.435-10.368z"/><glyph unicode="" glyph-name="external-link" d="M725.333 384V128c0-11.776-4.736-22.4-12.501-30.165s-18.389-12.501-30.165-12.501H213.334c-11.776 0-22.4 4.736-30.165 12.501S170.668 116.224 170.668 128v469.333c0 11.776 4.736 22.4 12.501 30.165s18.389 12.501 30.165 12.501h256c23.552 0 42.667 19.115 42.667 42.667s-19.115 42.667-42.667 42.667h-256c-35.328 0-67.413-14.379-90.496-37.504s-37.504-55.168-37.504-90.496V128c0-35.328 14.379-67.413 37.504-90.496S178.006 0 213.334 0h469.333c35.328 0 67.413 14.379 90.496 37.504S810.667 92.672 810.667 128v256c0 23.552-19.115 42.667-42.667 42.667S725.333 407.552 725.333 384zm-268.501-72.832 396.501 396.501V554.666c0-23.552 19.115-42.667 42.667-42.667s42.667 19.115 42.667 42.667v256a42.5 42.5 0 0 1-12.459 30.122l-.085.085a42.487 42.487 0 0 1-13.781 9.216 42.45 42.45 0 0 1-16.341 3.243h-256c-23.552 0-42.667-19.115-42.667-42.667s19.115-42.667 42.667-42.667h153.003L396.503 371.497c-16.683-16.683-16.683-43.691 0-60.331s43.691-16.683 60.331 0z"/><glyph unicode="" glyph-name="eye" d="M4.523 445.739c-5.803-11.691-6.229-25.728 0-38.144 0 0 16.896-33.664 47.787-78.635 19.243-27.989 44.288-61.099 74.965-94.635 38.144-41.771 85.504-84.779 141.611-119.467 68.053-42.069 149.589-72.192 243.115-72.192s175.061 30.123 243.115 72.192c56.107 34.688 103.467 77.696 141.611 119.467 30.635 33.536 55.723 66.645 74.965 94.635 30.891 44.971 47.787 78.635 47.787 78.635 5.803 11.691 6.229 25.728 0 38.144 0 0-16.896 33.664-47.787 78.635-19.243 27.989-44.288 61.099-74.965 94.635-38.144 41.771-85.504 84.779-141.611 119.467-68.053 42.069-149.589 72.192-243.115 72.192s-175.061-30.123-243.115-72.192c-56.107-34.688-103.467-77.696-141.611-119.467-30.677-33.536-55.723-66.603-74.965-94.635-30.891-44.971-47.787-78.635-47.787-78.635zm86.784-19.072c6.955 11.989 17.365 29.056 31.317 49.408 17.493 25.429 40.107 55.296 67.627 85.376 34.347 37.589 75.733 74.923 123.477 104.448 57.6 35.584 123.776 59.435 198.272 59.435s140.672-23.851 198.229-59.435c47.744-29.525 89.131-66.859 123.477-104.448 27.477-30.08 50.133-59.947 67.627-85.376 13.995-20.352 24.405-37.376 31.317-49.408-6.955-11.989-17.365-29.056-31.317-49.408-17.493-25.429-40.107-55.296-67.627-85.376-34.347-37.589-75.733-74.923-123.477-104.448C652.672 151.851 586.496 128 512 128s-140.672 23.851-198.229 59.435c-47.744 29.525-89.131 66.859-123.477 104.448-27.477 30.08-50.133 59.947-67.627 85.376-13.995 20.352-24.405 37.419-31.36 49.408zm591.36 0c0 47.104-19.157 89.856-50.005 120.661s-73.557 50.005-120.661 50.005-89.856-19.157-120.661-50.005-50.005-73.557-50.005-120.661 19.157-89.856 50.005-120.661 73.557-50.005 120.661-50.005 89.856 19.157 120.661 50.005 50.005 73.557 50.005 120.661zm-85.334 0c0-23.595-9.515-44.843-25.003-60.331s-36.736-25.003-60.331-25.003-44.843 9.515-60.331 25.003-25.003 36.736-25.003 60.331 9.515 44.843 25.003 60.331 36.736 25.003 60.331 25.003 44.843-9.515 60.331-25.003 25.003-36.736 25.003-60.331z"/><glyph unicode="" glyph-name="eye-off" d="M432.128 716.203c27.776 6.485 55.296 9.429 79.36 9.131 75.008 0 141.184-23.851 198.741-59.435 47.744-29.525 89.131-66.859 123.477-104.448 27.477-30.08 50.133-59.947 67.627-85.376 13.952-20.267 24.32-37.291 31.275-49.28-23.296-40.661-49.493-77.696-75.861-108.459-15.317-17.877-13.269-44.843 4.608-60.16s44.843-13.269 60.16 4.608c34.901 40.704 68.736 90.112 97.408 143.787 6.315 11.904 6.955 26.368.555 39.211 0 0-16.896 33.664-47.787 78.635-19.243 27.989-44.288 61.099-74.965 94.635-38.144 41.771-85.504 84.779-141.611 119.467-68.053 42.027-149.589 72.149-242.603 72.149-31.317.384-65.707-3.371-99.84-11.349-22.955-5.376-37.205-28.331-31.829-51.285s28.331-37.205 51.285-31.829zm-4.309-265.728 107.989-107.989c-7.765-2.603-15.872-4.011-24.021-4.309-21.888-.768-43.947 6.784-61.184 22.869s-26.325 37.547-27.093 59.435c-.341 10.155 1.067 20.309 4.309 30.037zM255.275 623.062l108.928-108.928c-18.517-29.483-27.136-63.317-25.941-96.683 1.536-43.605 19.755-86.741 54.229-118.827s78.763-47.232 122.368-45.696c29.525 1.024 58.837 9.728 84.651 25.941l99.072-99.072c-58.795-34.091-123.52-51.029-187.051-51.797-73.984 0-140.16 23.851-197.717 59.435-47.744 29.525-89.131 66.859-123.477 104.448-27.477 30.08-50.133 59.947-67.627 85.376-13.909 20.267-24.32 37.248-31.232 49.237 44.8 77.739 101.376 144.171 163.883 196.565zM12.501 865.835 194.73 683.606C120.874 620.502 55.253 540.331 5.077 446.849c-6.315-11.904-6.997-26.411-.555-39.253 0 0 16.896-33.664 47.787-78.635 19.243-27.989 44.288-61.099 74.965-94.635 38.144-41.771 85.504-84.779 141.611-119.467 68.053-42.069 149.589-72.192 243.627-72.192 85.035 1.024 171.477 25.643 248.107 75.051L951.168-72.831c16.683-16.683 43.691-16.683 60.331 0s16.683 43.691 0 60.331L632.79 366.209l-.299.299-179.584 179.627c-.341.299-.683.683-1.024 1.024L72.832 926.167c-16.683 16.683-43.691 16.683-60.331 0s-16.683-43.691 0-60.331z"/><glyph unicode="" glyph-name="fast-forward" d="M597.333 215.254v422.827l271.829-211.413zm-469.333 0v422.827l271.829-211.413zM111.531 94.336l384 298.667c10.709 8.32 16.341 20.736 16.469 33.28V128c0-23.552 19.115-42.667 42.667-42.667 9.899 0 19.029 3.371 26.197 9.003l384 298.667c18.603 14.464 21.931 41.259 7.467 59.861-2.304 2.944-4.907 5.504-7.467 7.467l-384 298.667c-18.603 14.464-45.397 11.136-59.861-7.467-6.101-7.851-9.045-17.109-9.003-26.197v-298.24a42.539 42.539 0 0 1-9.003 25.771c-2.304 2.944-4.907 5.504-7.467 7.467l-384 298.667c-18.603 14.464-45.397 11.136-59.861-7.467-6.101-7.851-9.045-17.109-9.003-26.197V128.002c0-23.552 19.115-42.667 42.667-42.667 9.899 0 19.029 3.371 26.197 9.003z"/><glyph unicode="" glyph-name="file" d="M750.336 597.334H597.333v153.003zm133.163-12.502L584.832 883.499c-3.925 3.925-8.619 7.083-13.824 9.259s-10.795 3.243-16.341 3.243H256c-35.328 0-67.413-14.379-90.496-37.504S128 803.329 128 768.001V85.334c0-35.328 14.379-67.413 37.504-90.496S220.672-42.666 256-42.666h512c35.328 0 67.413 14.379 90.496 37.504S896 50.006 896 85.334v469.333c0 11.776-4.779 22.443-12.501 30.165zM512 810.667v-256C512 531.115 531.115 512 554.667 512h256V85.333c0-11.776-4.736-22.4-12.501-30.165s-18.389-12.501-30.165-12.501h-512c-11.776 0-22.4 4.736-30.165 12.501s-12.501 18.389-12.501 30.165V768c0 11.776 4.736 22.4 12.501 30.165s18.389 12.501 30.165 12.501z"/><glyph unicode="" glyph-name="file-minus" d="M750.336 640H640v110.336zm133.163-12.501-256 256c-3.925 3.925-8.619 7.083-13.824 9.259s-10.795 3.243-16.341 3.243H256.001c-35.328 0-67.413-14.379-90.496-37.504s-37.504-55.168-37.504-90.496V85.334c0-35.328 14.379-67.413 37.504-90.496s55.168-37.504 90.496-37.504h512c35.328 0 67.413 14.379 90.496 37.504s37.504 55.168 37.504 90.496v512c0 11.776-4.779 22.443-12.501 30.165zM554.667 810.667V597.334c0-23.552 19.115-42.667 42.667-42.667h213.333V85.334c0-11.776-4.736-22.4-12.501-30.165s-18.389-12.501-30.165-12.501h-512c-11.776 0-22.4 4.736-30.165 12.501s-12.501 18.389-12.501 30.165v682.667c0 11.776 4.736 22.4 12.501 30.165s18.389 12.501 30.165 12.501zM384 256h256c23.552 0 42.667 19.115 42.667 42.667S663.552 341.334 640 341.334H384c-23.552 0-42.667-19.115-42.667-42.667S360.448 256 384 256z"/><glyph unicode="" glyph-name="file-plus" d="M750.336 640H640v110.336zm133.163-12.501-256 256c-3.925 3.925-8.619 7.083-13.824 9.259s-10.795 3.243-16.341 3.243H256.001c-35.328 0-67.413-14.379-90.496-37.504s-37.504-55.168-37.504-90.496V85.334c0-35.328 14.379-67.413 37.504-90.496s55.168-37.504 90.496-37.504h512c35.328 0 67.413 14.379 90.496 37.504s37.504 55.168 37.504 90.496v512c0 11.776-4.779 22.443-12.501 30.165zM554.667 810.667V597.334c0-23.552 19.115-42.667 42.667-42.667h213.333V85.334c0-11.776-4.736-22.4-12.501-30.165s-18.389-12.501-30.165-12.501h-512c-11.776 0-22.4 4.736-30.165 12.501s-12.501 18.389-12.501 30.165v682.667c0 11.776 4.736 22.4 12.501 30.165s18.389 12.501 30.165 12.501zM384 256h85.333v-85.333C469.333 147.115 488.448 128 512 128s42.667 19.115 42.667 42.667V256H640c23.552 0 42.667 19.115 42.667 42.667S663.552 341.334 640 341.334h-85.333v85.333c0 23.552-19.115 42.667-42.667 42.667s-42.667-19.115-42.667-42.667v-85.333H384c-23.552 0-42.667-19.115-42.667-42.667S360.448 256 384 256z"/><glyph unicode="" glyph-name="file-text" d="M750.336 640H640v110.336zm133.163-12.501-256 256c-3.925 3.925-8.619 7.083-13.824 9.259s-10.795 3.243-16.341 3.243H256.001c-35.328 0-67.413-14.379-90.496-37.504s-37.504-55.168-37.504-90.496V85.334c0-35.328 14.379-67.413 37.504-90.496s55.168-37.504 90.496-37.504h512c35.328 0 67.413 14.379 90.496 37.504s37.504 55.168 37.504 90.496v512c0 11.776-4.779 22.443-12.501 30.165zM554.667 810.667V597.334c0-23.552 19.115-42.667 42.667-42.667h213.333V85.334c0-11.776-4.736-22.4-12.501-30.165s-18.389-12.501-30.165-12.501h-512c-11.776 0-22.4 4.736-30.165 12.501s-12.501 18.389-12.501 30.165v682.667c0 11.776 4.736 22.4 12.501 30.165s18.389 12.501 30.165 12.501zm128-384H341.334c-23.552 0-42.667-19.115-42.667-42.667s19.115-42.667 42.667-42.667h341.333c23.552 0 42.667 19.115 42.667 42.667s-19.115 42.667-42.667 42.667zm0-170.667H341.334c-23.552 0-42.667-19.115-42.667-42.667s19.115-42.667 42.667-42.667h341.333c23.552 0 42.667 19.115 42.667 42.667S706.219 256 682.667 256zm-256 341.334h-85.333c-23.552 0-42.667-19.115-42.667-42.667S317.782 512 341.334 512h85.333c23.552 0 42.667 19.115 42.667 42.667s-19.115 42.667-42.667 42.667z"/><glyph unicode="" glyph-name="filter" d="M846.72 768 564.736 434.603c-6.272-7.381-10.069-17.024-10.069-27.563V111.701l-85.333 42.667V407.04c.043 9.685-3.285 19.499-10.069 27.563L177.281 768zm91.947 85.334H85.334c-23.552 0-42.667-19.115-42.667-42.667 0-10.539 3.797-20.181 10.069-27.563L384 391.424V128c0-16.597 9.472-31.019 23.595-38.144L578.262 4.523c21.077-10.539 46.72-2.005 57.259 19.072 3.072 6.229 4.523 12.843 4.48 19.072v348.757l331.264 391.68c15.232 18.005 12.971 44.928-5.035 60.117-8.064 6.827-17.877 10.155-27.563 10.112z"/><glyph unicode="" glyph-name="flag" d="M213.333 367.062v420.651c18.773 9.301 58.24 22.955 128 22.955 54.656 0 100.736-17.963 154.837-39.595 52.565-21.035 113.152-45.739 186.496-45.739 55.381 0 97.195 7.467 128 16.939V321.622c-18.773-9.301-58.24-22.955-128-22.955-54.656 0-100.736 17.963-154.837 39.595-52.565 21.035-113.152 45.739-186.496 45.739-55.381 0-97.195-7.467-128-16.939zm0-367.062v275.712c18.773 9.301 58.24 22.955 128 22.955 54.656 0 100.736-17.963 154.837-39.595 52.565-21.035 113.152-45.739 186.496-45.739 138.539 0 192.299 46.635 200.832 55.168 8.32 8.32 12.501 19.243 12.501 30.165v512c0 23.552-19.115 42.667-42.667 42.667-11.307 0-21.589-4.395-29.227-11.605-4.096-3.328-41.984-31.061-141.44-31.061-54.656 0-100.736 17.963-154.837 39.595-52.565 21.035-113.152 45.739-186.496 45.739-138.539 0-192.299-46.635-200.832-55.168-8.32-8.32-12.501-19.243-12.501-30.165V.001c0-23.552 19.115-42.667 42.667-42.667S213.333-23.551 213.333.001z"/><glyph unicode="" glyph-name="folder" d="M981.333 128v469.333c0 35.328-14.379 67.413-37.504 90.496s-55.168 37.504-90.496 37.504H492.16l-72.661 109.013c-7.765 11.52-20.736 18.987-35.499 18.987H170.667c-35.328 0-67.413-14.379-90.496-37.504s-37.504-55.168-37.504-90.496V128c0-35.328 14.379-67.413 37.504-90.496S135.339 0 170.667 0h682.667c35.328 0 67.413 14.379 90.496 37.504S981.334 92.672 981.334 128zM896 128c0-11.776-4.736-22.4-12.501-30.165s-18.389-12.501-30.165-12.501H170.667c-11.776 0-22.4 4.736-30.165 12.501S128.001 116.224 128.001 128v597.333c0 11.776 4.736 22.4 12.501 30.165s18.389 12.501 30.165 12.501h190.507l72.661-109.013c8.192-12.245 21.589-18.901 35.499-18.987h384c11.776 0 22.4-4.736 30.165-12.501S896 609.109 896 597.333z"/><glyph unicode="" glyph-name="folder-minus" d="M981.333 128v469.333c0 35.328-14.379 67.413-37.504 90.496s-55.168 37.504-90.496 37.504H492.16l-72.661 109.013c-7.765 11.52-20.736 18.987-35.499 18.987H170.667c-35.328 0-67.413-14.379-90.496-37.504s-37.504-55.168-37.504-90.496V128c0-35.328 14.379-67.413 37.504-90.496S135.339 0 170.667 0h682.667c35.328 0 67.413 14.379 90.496 37.504S981.334 92.672 981.334 128zM896 128c0-11.776-4.736-22.4-12.501-30.165s-18.389-12.501-30.165-12.501H170.667c-11.776 0-22.4 4.736-30.165 12.501S128.001 116.224 128.001 128v597.333c0 11.776 4.736 22.4 12.501 30.165s18.389 12.501 30.165 12.501h190.507l72.661-109.013c8.192-12.245 21.589-18.901 35.499-18.987h384c11.776 0 22.4-4.736 30.165-12.501S896 609.109 896 597.333zM384 298.667h256c23.552 0 42.667 19.115 42.667 42.667S663.552 384.001 640 384.001H384c-23.552 0-42.667-19.115-42.667-42.667s19.115-42.667 42.667-42.667z"/><glyph unicode="" glyph-name="folder-plus" d="M981.333 128v469.333c0 35.328-14.379 67.413-37.504 90.496s-55.168 37.504-90.496 37.504H492.16l-72.661 109.013c-7.765 11.52-20.736 18.987-35.499 18.987H170.667c-35.328 0-67.413-14.379-90.496-37.504s-37.504-55.168-37.504-90.496V128c0-35.328 14.379-67.413 37.504-90.496S135.339 0 170.667 0h682.667c35.328 0 67.413 14.379 90.496 37.504S981.334 92.672 981.334 128zM896 128c0-11.776-4.736-22.4-12.501-30.165s-18.389-12.501-30.165-12.501H170.667c-11.776 0-22.4 4.736-30.165 12.501S128.001 116.224 128.001 128v597.333c0 11.776 4.736 22.4 12.501 30.165s18.389 12.501 30.165 12.501h190.507l72.661-109.013c8.192-12.245 21.589-18.901 35.499-18.987h384c11.776 0 22.4-4.736 30.165-12.501S896 609.109 896 597.333zM384 298.667h85.333v-85.333c0-23.552 19.115-42.667 42.667-42.667s42.667 19.115 42.667 42.667v85.333H640c23.552 0 42.667 19.115 42.667 42.667S663.552 384.001 640 384.001h-85.333v85.333c0 23.552-19.115 42.667-42.667 42.667s-42.667-19.115-42.667-42.667v-85.333H384c-23.552 0-42.667-19.115-42.667-42.667s19.115-42.667 42.667-42.667z"/><glyph unicode="" glyph-name="home" d="M101.803 588.331c-10.069-7.851-16.469-20.011-16.469-33.664V85.334c0-35.328 14.379-67.413 37.504-90.496s55.168-37.504 90.496-37.504h597.333c35.328 0 67.413 14.379 90.496 37.504s37.504 55.168 37.504 90.496v469.333c-.043 12.8-5.717 25.301-16.469 33.664l-384 298.667c-15.275 11.733-36.736 12.16-52.395 0zM682.667 42.667v384c0 23.552-19.115 42.667-42.667 42.667H384c-23.552 0-42.667-19.115-42.667-42.667v-384h-128c-11.776 0-22.4 4.736-30.165 12.501s-12.501 18.389-12.501 30.165v448.469L512 799.274l341.333-265.472V85.333c0-11.776-4.736-22.4-12.501-30.165s-18.389-12.501-30.165-12.501zm-256 0V384h170.667V42.667z"/><glyph unicode="" glyph-name="image" d="M213.333 853.334c-35.328 0-67.413-14.379-90.496-37.504s-37.504-55.168-37.504-90.496V128.001c0-35.328 14.379-67.413 37.504-90.496S178.005.001 213.333.001h597.333c35.328 0 67.413 14.379 90.496 37.504s37.504 55.168 37.504 90.496v597.333c0 35.328-14.379 67.413-37.504 90.496s-55.168 37.504-90.496 37.504zm256-277.334c0 29.44-11.989 56.149-31.232 75.435s-45.995 31.232-75.435 31.232-56.149-11.989-75.435-31.232S255.999 605.44 255.999 576s11.989-56.149 31.232-75.435 45.995-31.232 75.435-31.232 56.149 11.989 75.435 31.232S469.333 546.56 469.333 576zM384 576c0-5.888-2.347-11.179-6.229-15.104s-9.216-6.229-15.104-6.229-11.179 2.347-15.104 6.229-6.229 9.216-6.229 15.104 2.347 11.179 6.229 15.104 9.216 6.229 15.104 6.229 11.179-2.347 15.104-6.229S384 581.888 384 576zM316.331 85.334 682.667 451.67l170.667-170.667V128c0-11.776-4.736-22.4-12.501-30.165s-18.389-12.501-30.165-12.501zm537.002 316.33L712.832 542.165c-16.683 16.683-43.691 16.683-60.331 0L198.357 88.021c-5.76 2.133-10.88 5.504-15.189 9.813-7.765 7.765-12.501 18.389-12.501 30.165v597.333c0 11.776 4.736 22.4 12.501 30.165s18.389 12.501 30.165 12.501h597.333c11.776 0 22.4-4.736 30.165-12.501s12.501-18.389 12.501-30.165z"/><glyph unicode="" glyph-name="layers" d="M512 805.632 843.264 640 512 474.368 180.736 640zm-19.072 85.846L66.261 678.145c-21.077-10.539-29.611-36.139-19.072-57.216 4.309-8.661 11.136-15.189 19.072-19.072l426.667-213.333c12.459-6.229 26.453-5.803 38.144 0l426.667 213.333c21.077 10.539 29.611 36.181 19.072 57.259a42.507 42.507 0 0 1-19.072 19.072L531.072 891.521c-12.459 6.229-26.453 5.803-38.144 0zM66.261 175.19 492.928-38.143c12.459-6.229 26.453-5.803 38.144 0L957.739 175.19c21.077 10.539 29.611 36.181 19.072 57.259s-36.181 29.611-57.259 19.072L512 47.702 104.405 251.478c-21.077 10.539-46.72 2.005-57.259-19.072s-2.005-46.72 19.072-57.259zm0 213.333L492.928 175.19c12.459-6.229 26.453-5.803 38.144 0l426.667 213.333c21.077 10.539 29.611 36.181 19.072 57.259s-36.181 29.611-57.259 19.072L512 261.035 104.405 464.811c-21.077 10.539-46.72 2.005-57.259-19.072s-2.005-46.72 19.072-57.259z"/><glyph unicode="" glyph-name="link" d="M392.491 358.443c42.325-56.619 103.68-90.709 168.448-100.053s133.248 6.059 189.867 48.384c10.197 7.637 19.84 16 27.947 24.235L906.54 458.796c49.621 51.371 73.472 117.376 72.363 182.827s-27.264 130.603-78.123 179.669c-50.005 48.299-114.688 72.192-179.157 71.808-63.659-.341-127.317-24.363-176.512-71.808l-73.856-73.429c-16.725-16.597-16.811-43.648-.171-60.331s43.648-16.811 60.331-.171l72.917 72.491c32.853 31.659 75.221 47.659 117.76 47.915 43.051.256 86.016-15.659 119.381-47.872 33.92-32.768 51.328-76.075 52.096-119.808s-15.147-87.637-47.36-121.003L717.996 390.871c-4.864-4.949-11.221-10.539-18.261-15.787-37.76-28.245-83.285-38.485-126.592-32.256s-84.096 28.928-112.299 66.688c-14.123 18.859-40.832 22.741-59.733 8.619s-22.741-40.832-8.619-59.733zm239.018 136.448c-42.325 56.619-103.68 90.709-168.448 100.053s-133.291-6.059-189.909-48.384c-10.197-7.637-19.797-16-27.947-24.235L117.418 394.538c-49.621-51.371-73.472-117.376-72.363-182.827S72.319 81.108 123.178 32.042c50.005-48.299 114.688-72.192 179.157-71.808 63.659.341 127.317 24.363 176.512 71.808l73.515 73.515c16.683 16.683 16.683 43.691 0 60.331s-43.691 16.683-60.331 0L419.668 93.44c-32.853-31.659-75.221-47.659-117.76-47.915-43.051-.256-86.016 15.659-119.381 47.872-33.92 32.768-51.328 76.075-52.096 119.808s15.147 87.637 47.36 121.003l128.213 128.213c4.864 4.949 11.221 10.539 18.261 15.787 37.76 28.245 83.285 38.485 126.592 32.256s84.096-28.928 112.299-66.688c14.123-18.859 40.832-22.741 59.733-8.619s22.741 40.832 8.619 59.733z"/><glyph unicode="" glyph-name="lock" d="M213.333 426.667h597.333c11.776 0 22.4-4.736 30.165-12.501s12.501-18.389 12.501-30.165V85.334c0-11.776-4.736-22.4-12.501-30.165s-18.389-12.501-30.165-12.501H213.333c-11.776 0-22.4 4.736-30.165 12.501s-12.501 18.389-12.501 30.165v298.667c0 11.776 4.736 22.4 12.501 30.165s18.389 12.501 30.165 12.501zM768 512v128c0 70.699-28.715 134.741-74.965 181.035S582.699 896 512 896s-134.741-28.715-181.035-74.965S256 710.699 256 640V512h-42.667c-35.328 0-67.413-14.379-90.496-37.504S85.333 419.328 85.333 384V85.333c0-35.328 14.379-67.413 37.504-90.496s55.168-37.504 90.496-37.504h597.333c35.328 0 67.413 14.379 90.496 37.504s37.504 55.168 37.504 90.496V384c0 35.328-14.379 67.413-37.504 90.496S845.994 512 810.666 512zm-426.667 0v128c0 47.147 19.072 89.728 50.005 120.661s73.515 50.005 120.661 50.005 89.728-19.072 120.661-50.005S682.665 687.146 682.665 640V512z"/><glyph unicode="" glyph-name="log-in" d="M640 768h170.667c11.776 0 22.4-4.736 30.165-12.501s12.501-18.389 12.501-30.165V128.001c0-11.776-4.736-22.4-12.501-30.165s-18.389-12.501-30.165-12.501H640c-23.552 0-42.667-19.115-42.667-42.667S616.448.001 640 .001h170.667c35.328 0 67.413 14.379 90.496 37.504s37.504 55.168 37.504 90.496v597.333c0 35.328-14.379 67.413-37.504 90.496s-55.168 37.504-90.496 37.504H640c-23.552 0-42.667-19.115-42.667-42.667S616.448 768 640 768zM537.003 469.334H128c-23.552 0-42.667-19.115-42.667-42.667S104.448 384 128 384h409.003L396.502 243.499c-16.683-16.683-16.683-43.691 0-60.331s43.691-16.683 60.331 0l213.333 213.333c4.096 4.096 7.168 8.789 9.259 13.824s3.243 10.539 3.243 16.341c0 5.547-1.067 11.136-3.243 16.341a42.567 42.567 0 0 1-9.259 13.824L456.833 670.164c-16.683 16.683-43.691 16.683-60.331 0s-16.683-43.691 0-60.331z"/><glyph unicode="" glyph-name="log-out" d="M384 85.334H213.333c-11.776 0-22.4 4.736-30.165 12.501S170.667 116.224 170.667 128v597.333c0 11.776 4.736 22.4 12.501 30.165s18.389 12.501 30.165 12.501H384c23.552 0 42.667 19.115 42.667 42.667S407.552 853.333 384 853.333H213.333c-35.328 0-67.413-14.379-90.496-37.504s-37.504-55.168-37.504-90.496V128c0-35.328 14.379-67.413 37.504-90.496S178.005 0 213.333 0H384c23.552 0 42.667 19.115 42.667 42.667S407.552 85.334 384 85.334zm409.003 384H384c-23.552 0-42.667-19.115-42.667-42.667S360.448 384 384 384h409.003L652.502 243.499c-16.683-16.683-16.683-43.691 0-60.331s43.691-16.683 60.331 0l213.333 213.333a43.018 43.018 0 0 1 9.259 13.824c6.4 15.445 3.328 33.92-9.259 46.507L712.833 670.165c-16.683 16.683-43.691 16.683-60.331 0s-16.683-43.691 0-60.331z"/><glyph unicode="" glyph-name="map" d="M298.667 779.819V195.414L85.334 73.515V657.92zM725.333 73.515V657.92l213.333 121.899V195.456zM662.827-37.76a42.39 42.39 0 0 1 11.221-4.011c1.408-.299 2.859-.512 4.309-.64s2.901-.213 4.352-.213l-.043-.043h.043c7.381 0 14.677 1.963 21.163 5.632l.64.384 298.027 170.283c13.653 7.808 21.376 22.101 21.461 37.035v682.667c0 23.552-19.115 42.667-42.667 42.667-7.808 0-15.104-2.091-21.163-5.632L681.343 731.052 361.215 891.137c-3.541 1.792-7.296 3.2-11.264 4.011-1.451.299-2.859.512-4.309.64s-2.901.213-4.352.213h.043-.043c-7.381 0-14.677-1.963-21.12-5.632l-.64-.341L21.503 719.703C7.807 711.895.084 697.602-.001 682.668V.001c0-23.552 19.115-42.667 42.667-42.667 7.808 0 15.104 2.091 21.163 5.632l278.827 159.317zM640 656.299V69.035l-256 128v587.264z"/><glyph unicode="" glyph-name="map-pin" d="M938.667 512c0 117.803-47.787 224.555-124.971 301.696S629.803 938.667 512 938.667 287.445 890.88 210.304 813.696 85.333 629.803 85.333 512c0-24.277 2.261-48.128 6.4-71.509 11.691-66.048 38.357-128.171 71.765-184.32C280.063 60.288 488.319-78.165 488.319-78.165c14.123-9.259 32.64-9.771 47.317 0 0 0 208.299 138.453 324.821 334.336 33.408 56.149 60.075 118.272 71.765 184.32 4.181 23.381 6.443 47.232 6.443 71.509zm-85.334 0c0-18.944-1.749-37.845-5.077-56.661-9.429-53.333-31.445-105.728-61.099-155.563C705.578 162.645 572.288 54.571 515.413 12.203 455.765 51.286 319.658 160.555 236.8 299.776c-29.653 49.835-51.669 102.229-61.099 155.563-3.285 18.816-5.035 37.717-5.035 56.661 0 94.251 38.144 179.541 99.968 241.365s147.115 99.968 241.365 99.968 179.541-38.144 241.365-99.968S853.332 606.25 853.332 512zm-170.666 0c0 47.104-19.157 89.856-50.005 120.661s-73.557 50.005-120.661 50.005-89.856-19.157-120.661-50.005S341.335 559.104 341.335 512s19.157-89.856 50.005-120.661 73.557-50.005 120.661-50.005 89.856 19.157 120.661 50.005S682.667 464.896 682.667 512zm-85.334 0c0-23.595-9.515-44.843-25.003-60.331s-36.736-25.003-60.331-25.003-44.843 9.515-60.331 25.003-25.003 36.736-25.003 60.331 9.515 44.843 25.003 60.331 36.736 25.003 60.331 25.003 44.843-9.515 60.331-25.003 25.003-36.736 25.003-60.331z"/><glyph unicode="" glyph-name="maximize" d="M341.333 853.334h-128c-35.328 0-67.413-14.379-90.496-37.504s-37.504-55.168-37.504-90.496v-128c0-23.552 19.115-42.667 42.667-42.667s42.667 19.115 42.667 42.667v128c0 11.776 4.736 22.4 12.501 30.165S201.557 768 213.333 768h128C364.885 768 384 787.115 384 810.667s-19.115 42.667-42.667 42.667zm597.334-256v128c0 35.328-14.379 67.413-37.504 90.496s-55.168 37.504-90.496 37.504h-128c-23.552 0-42.667-19.115-42.667-42.667S659.115 768 682.667 768h128c11.776 0 22.4-4.736 30.165-12.501s12.501-18.389 12.501-30.165v-128c0-23.552 19.115-42.667 42.667-42.667s42.667 19.115 42.667 42.667zM682.667 0h128c35.328 0 67.413 14.379 90.496 37.504S938.667 92.672 938.667 128v128c0 23.552-19.115 42.667-42.667 42.667S853.333 279.552 853.333 256V128c0-11.776-4.736-22.4-12.501-30.165s-18.389-12.501-30.165-12.501h-128C659.115 85.334 640 66.219 640 42.667S659.115 0 682.667 0zM85.333 256V128c0-35.328 14.379-67.413 37.504-90.496S178.005 0 213.333 0h128C364.885 0 384 19.115 384 42.667s-19.115 42.667-42.667 42.667h-128c-11.776 0-22.4 4.736-30.165 12.501S170.667 116.224 170.667 128v128c0 23.552-19.115 42.667-42.667 42.667S85.333 279.552 85.333 256z"/><glyph unicode="" glyph-name="message-circle" d="M938.667 448.128v21.205c0 .725-.043 1.621-.085 2.475-5.803 99.755-47.488 190.336-112.725 258.176-68.352 71.125-162.731 117.419-268.843 123.264-.683.043-1.536.085-2.347.085h-20.864c-59.947.683-122.965-13.227-181.931-43.008-52.181-26.496-97.749-63.488-133.931-108.16-56.405-69.717-89.899-158.08-89.941-253.696-.597-54.4 10.795-111.36 35.157-165.419L87.552 56.191a42.25 42.25 0 0 1 0-26.965c7.467-22.357 31.616-34.432 53.973-26.965l226.731 75.563c49.493-22.485 105.984-35.243 165.376-35.115 58.539.384 115.797 13.141 168.149 36.949 81.579 37.163 151.04 101.248 193.749 186.667 27.477 53.291 43.307 115.84 43.136 181.803zm-85.334-.256c.128-52.267-12.459-101.333-33.664-142.464-34.176-68.352-88.832-118.827-153.259-148.139-41.387-18.859-86.827-28.971-133.376-29.269-52.096-.128-101.163 12.459-142.293 33.664-10.624 5.504-22.528 6.059-33.067 2.56l-162.261-54.101 54.101 162.261c3.755 11.221 2.56 22.912-2.389 32.725-23.552 46.677-34.304 96.171-33.792 142.421.043 76.331 26.411 145.92 70.955 200.917 28.629 35.371 64.768 64.725 106.24 85.76 46.592 23.552 96.085 34.304 142.336 33.792h19.456c83.712-4.565 158.037-41.003 212.011-97.152 51.285-53.376 84.139-124.416 89.003-202.795z"/><glyph unicode="" glyph-name="mic" d="M512 853.334c23.595 0 44.843-9.515 60.331-25.003s25.003-36.736 25.003-60.331V426.667c0-23.595-9.515-44.843-25.003-60.331S535.595 341.333 512 341.333s-44.843 9.515-60.331 25.003-25.003 36.736-25.003 60.331V768c0 23.595 9.515 44.843 25.003 60.331s36.736 25.003 60.331 25.003zm0 85.333c-47.104 0-89.856-19.157-120.661-50.005s-50.005-73.557-50.005-120.661V426.668c0-47.104 19.157-89.856 50.005-120.661S464.896 256.002 512 256.002s89.856 19.157 120.661 50.005 50.005 73.557 50.005 120.661v341.333c0 47.104-19.157 89.856-50.005 120.661S559.104 938.667 512 938.667zm-170.667-1024h341.333c23.552 0 42.667 19.115 42.667 42.667S706.218.001 682.666.001h-128V87.98c77.184 9.643 146.432 45.056 198.699 97.323 61.696 61.739 99.968 147.115 99.968 241.365v85.333c0 23.552-19.115 42.667-42.667 42.667s-42.667-19.115-42.667-42.667v-85.333c0-70.699-28.587-134.656-74.965-181.035s-110.336-74.965-181.035-74.965-134.656 28.587-181.035 74.965-74.965 110.336-74.965 181.035v85.333c0 23.552-19.115 42.667-42.667 42.667s-42.667-19.115-42.667-42.667v-85.333c0-94.251 38.272-179.627 99.968-241.365 52.267-52.267 121.472-87.68 198.699-97.323V.001h-128c-23.552 0-42.667-19.115-42.667-42.667s19.115-42.667 42.667-42.667z"/><glyph unicode="" glyph-name="mic-off" d="M534.016 344.32c-6.997-1.877-14.336-2.859-21.931-2.859-23.68.043-44.928 9.515-60.373 24.96-15.488 15.445-25.045 36.693-25.045 60.245v25.003zm148.651 195.84V768c.043 47.061-19.072 89.813-49.877 120.704s-73.515 50.048-120.619 50.091c-43.264.043-82.901-16.085-113.024-42.752-27.136-24.021-46.592-56.619-54.357-93.739-4.821-23.083 9.984-45.653 33.067-50.475s45.653 9.984 50.475 33.067c3.925 18.773 13.739 35.2 27.349 47.275 14.933 13.227 34.389 21.205 55.808 21.291 24.363-.128 45.483-9.643 60.885-25.045 15.488-15.531 25.003-36.779 24.96-60.416v-227.84c0-23.552 19.115-42.667 42.667-42.667s42.667 19.115 42.667 42.667zM768 512v-85.333c0-16.043-1.493-31.573-3.968-44.587-4.352-23.168 10.88-45.483 34.048-49.835s45.483 10.88 49.835 34.048c3.499 18.517 5.419 39.339 5.419 60.373v85.333c0 23.552-19.115 42.667-42.667 42.667S768 535.551 768 511.999zM341.333-85.333h341.333c23.552 0 42.667 19.115 42.667 42.667S706.218.001 682.666.001h-128v86.357c61.696 8.064 119.083 31.232 167.851 69.419L951.168-72.874c16.683-16.683 43.691-16.683 60.331 0s16.683 43.691 0 60.331L762.411 236.545a41.796 41.796 0 0 1-7.211 9.344c-2.688 2.645-5.632 4.821-8.747 6.613L72.832 926.166c-16.683 16.683-43.691 16.683-60.331 0s-16.683-43.691 0-60.331l328.832-328.832V426.667c.043-47.147 19.243-89.856 50.091-120.661s73.6-49.92 120.704-49.877c31.531.043 61.141 8.619 86.485 23.595l63.019-63.019c-40.917-29.568-88.661-45.568-137.045-47.915A42.618 42.618 0 0 1 512 170.667c-4.395 0-8.576-.64-12.587-1.877-60.459 2.944-119.979 27.179-166.613 72.832-49.195 48.171-74.795 111.275-76.715 175.189-.085 4.779-.085 9.557-.085 9.557V512c0 23.552-19.115 42.667-42.667 42.667S170.666 535.552 170.666 512v-85.035c0-6.357.128-12.715.128-12.715 2.56-85.077 36.736-169.344 102.315-233.6 55.424-54.315 124.757-85.888 196.224-94.848V-.001h-128c-23.552 0-42.667-19.115-42.667-42.667s19.115-42.667 42.667-42.667z"/><glyph unicode="" glyph-name="minimize" d="M298.667 810.667v-128c0-11.776-4.736-22.4-12.501-30.165s-18.389-12.501-30.165-12.501h-128c-23.552 0-42.667-19.115-42.667-42.667s19.115-42.667 42.667-42.667h128c35.328 0 67.413 14.379 90.496 37.504s37.504 55.168 37.504 90.496v128c0 23.552-19.115 42.667-42.667 42.667s-42.667-19.115-42.667-42.667zM896 640H768c-11.776 0-22.4 4.736-30.165 12.501s-12.501 18.389-12.501 30.165v128c0 23.552-19.115 42.667-42.667 42.667S640 834.218 640 810.666v-128c0-35.328 14.379-67.413 37.504-90.496s55.168-37.504 90.496-37.504h128c23.552 0 42.667 19.115 42.667 42.667S919.552 640 896 640zM725.333 42.667v128c0 11.776 4.736 22.4 12.501 30.165s18.389 12.501 30.165 12.501h128c23.552 0 42.667 19.115 42.667 42.667s-19.115 42.667-42.667 42.667h-128c-35.328 0-67.413-14.379-90.496-37.504s-37.504-55.168-37.504-90.496v-128C639.999 19.115 659.114 0 682.666 0s42.667 19.115 42.667 42.667zM128 213.334h128c11.776 0 22.4-4.736 30.165-12.501s12.501-18.389 12.501-30.165v-128c0-23.552 19.115-42.667 42.667-42.667S384 19.116 384 42.668v128c0 35.328-14.379 67.413-37.504 90.496S291.328 298.668 256 298.668H128c-23.552 0-42.667-19.115-42.667-42.667s19.115-42.667 42.667-42.667z"/><glyph unicode="" glyph-name="minus" d="M213.333 384h597.333c23.552 0 42.667 19.115 42.667 42.667s-19.115 42.667-42.667 42.667H213.333c-23.552 0-42.667-19.115-42.667-42.667S189.781 384 213.333 384z"/><glyph unicode="" glyph-name="moon" d="M938.496 389.035a42.342 42.342 0 0 1-8.021 29.056c-13.867 19.029-40.576 23.211-59.605 9.344-40.533-29.568-87.893-46.336-136.021-49.579-58.368-3.925-117.973 12.075-168.533 49.408-56.875 42.027-91.264 103.04-100.992 167.893s5.291 133.291 47.317 190.123c6.059 8.149 9.216 18.56 8.149 29.483-2.261 23.467-23.125 40.619-46.592 38.315-96.341-9.387-184.064-50.347-251.52-113.109C148.609 671.062 98.859 575.83 88.833 467.5c-10.837-117.291 26.923-227.968 96.683-311.936S357.121 14.209 474.455 3.372s227.968 26.923 311.936 96.683S927.746 271.66 938.583 388.994zm-103.637-76.459c-20.907-58.155-56.96-108.501-103.083-146.816-67.243-55.851-155.648-86.016-249.515-77.355s-175.275 54.528-231.125 121.771-86.016 155.648-77.355 249.515c7.979 86.699 47.659 162.731 106.965 217.856 33.365 31.061 72.96 55.467 116.523 71.339-19.456-53.931-24.619-111.189-16.384-166.357 12.928-86.315 58.88-167.851 134.656-223.872 67.328-49.792 147.115-71.168 224.939-65.92 32.085 2.133 63.829 8.832 94.293 19.84z"/><glyph unicode="" glyph-name="more-horizontal" d="M597.333 426.667c0 23.552-9.6 44.928-25.003 60.331s-36.779 25.003-60.331 25.003-44.928-9.6-60.331-25.003-25.003-36.779-25.003-60.331 9.6-44.928 25.003-60.331 36.779-25.003 60.331-25.003 44.928 9.6 60.331 25.003 25.003 36.779 25.003 60.331zm298.667 0c0 23.552-9.6 44.928-25.003 60.331s-36.779 25.003-60.331 25.003-44.928-9.6-60.331-25.003-25.003-36.779-25.003-60.331 9.6-44.928 25.003-60.331 36.779-25.003 60.331-25.003 44.928 9.6 60.331 25.003S896 403.115 896 426.667zm-597.333 0c0 23.552-9.6 44.928-25.003 60.331s-36.779 25.003-60.331 25.003-44.928-9.6-60.331-25.003-25.003-36.779-25.003-60.331 9.6-44.928 25.003-60.331 36.779-25.003 60.331-25.003 44.928 9.6 60.331 25.003 25.003 36.779 25.003 60.331z"/><glyph unicode="" glyph-name="more-vertical" d="M597.333 426.667c0 23.552-9.6 44.928-25.003 60.331s-36.779 25.003-60.331 25.003-44.928-9.6-60.331-25.003-25.003-36.779-25.003-60.331 9.6-44.928 25.003-60.331 36.779-25.003 60.331-25.003 44.928 9.6 60.331 25.003 25.003 36.779 25.003 60.331zm0 298.667c0 23.552-9.6 44.928-25.003 60.331s-36.779 25.003-60.331 25.003-44.928-9.6-60.331-25.003-25.003-36.779-25.003-60.331 9.6-44.928 25.003-60.331S488.447 640 511.999 640s44.928 9.6 60.331 25.003 25.003 36.779 25.003 60.331zm0-597.334c0 23.552-9.6 44.928-25.003 60.331s-36.779 25.003-60.331 25.003-44.928-9.6-60.331-25.003-25.003-36.779-25.003-60.331 9.6-44.928 25.003-60.331 36.779-25.003 60.331-25.003 44.928 9.6 60.331 25.003 25.003 36.779 25.003 60.331z"/><glyph unicode="" glyph-name="mouse-pointer" d="m207.232 731.435 524.117-218.368-208.341-70.741c-12.16-4.181-22.272-13.653-26.667-26.667L425.6 207.318zm347.861-408.192L780.501 97.835c16.683-16.683 43.691-16.683 60.331 0s16.683 43.691 0 60.331L615.424 383.574l250.368 85.035c22.315 7.595 34.261 31.829 26.667 54.101-4.096 12.075-13.056 21.077-23.979 25.643L144.427 850.006c-21.76 9.045-46.72-1.237-55.808-22.997-4.565-10.923-4.224-22.699 0-32.811L390.272 70.145c9.045-21.76 34.048-32.043 55.808-22.997 11.733 4.907 20.139 14.421 23.979 25.643z"/><glyph unicode="" glyph-name="move" d="M469.333 750.336V469.333H188.33l55.168 55.168c16.683 16.683 16.683 43.691 0 60.331s-43.691 16.683-60.331 0l-128-128c-7.723-7.723-12.501-18.389-12.501-30.165 0-5.803 1.152-11.307 3.243-16.341s5.163-9.728 9.259-13.824l128-128c16.683-16.683 43.691-16.683 60.331 0s16.683 43.691 0 60.331l-55.168 55.168h281.003V102.998l-55.168 55.168c-16.683 16.683-43.691 16.683-60.331 0s-16.683-43.691 0-60.331l128-128c4.096-4.096 8.789-7.168 13.824-9.259s10.539-3.243 16.341-3.243c5.547 0 11.136 1.067 16.341 3.243a42.567 42.567 0 0 1 13.824 9.259l128 128c16.683 16.683 16.683 43.691 0 60.331s-43.691 16.683-60.331 0l-55.168-55.168v281.003h281.003l-55.168-55.168c-16.683-16.683-16.683-43.691 0-60.331s43.691-16.683 60.331 0l128 128a42.567 42.567 0 0 1 9.259 13.824c6.4 15.445 3.328 33.92-9.259 46.507l-128 128c-16.683 16.683-43.691 16.683-60.331 0s-16.683-43.691 0-60.331l55.168-55.168H554.666v281.003l55.168-55.168c16.683-16.683 43.691-16.683 60.331 0s16.683 43.691 0 60.331l-128 128a43.018 43.018 0 0 1-13.824 9.259 42.932 42.932 0 0 1-32.683 0 42.567 42.567 0 0 1-13.824-9.259l-128-128c-16.683-16.683-16.683-43.691 0-60.331s43.691-16.683 60.331 0z"/><glyph unicode="" glyph-name="music" d="M341.333 170.667c0-23.595-9.515-44.843-25.003-60.331s-36.736-25.003-60.331-25.003-44.843 9.515-60.331 25.003-25.003 36.736-25.003 60.331 9.515 44.843 25.003 60.331 36.736 25.003 60.331 25.003 44.843-9.515 60.331-25.003 25.003-36.736 25.003-60.331zM938.667 256v554.667c0 2.133-.171 4.565-.597 6.997-3.883 23.253-25.856 38.955-49.109 35.072l-512-85.333c-20.309-3.456-35.627-20.992-35.627-42.069V318.507c-25.088 14.507-54.272 22.827-85.333 22.827-47.104 0-89.856-19.157-120.661-50.005s-50.005-73.557-50.005-120.661 19.157-89.856 50.005-120.661S208.897.002 256.001.002s89.856 19.157 120.661 50.005 50.005 73.557 50.005 120.661v518.528l426.667 71.125v-356.48c-25.088 14.507-54.272 22.827-85.333 22.827-47.104 0-89.856-19.157-120.661-50.005s-50.005-73.557-50.005-120.661 19.157-89.856 50.005-120.661 73.557-50.005 120.661-50.005 89.856 19.157 120.661 50.005 50.005 73.557 50.005 120.661zm-85.334 0c0-23.595-9.515-44.843-25.003-60.331s-36.736-25.003-60.331-25.003-44.843 9.515-60.331 25.003-25.003 36.736-25.003 60.331 9.515 44.843 25.003 60.331 36.736 25.003 60.331 25.003 44.843-9.515 60.331-25.003 25.003-36.736 25.003-60.331z"/><glyph unicode="" glyph-name="paperclip" d="M884.608 497.366 492.501 105.259c-41.685-41.685-96.256-62.507-150.955-62.507s-109.269 20.821-150.955 62.507-62.507 96.256-62.507 150.955 20.821 109.269 62.507 150.955l392.107 392.107c25.003 25.003 57.728 37.504 90.581 37.504s65.536-12.501 90.581-37.504 37.504-57.728 37.504-90.581-12.501-65.536-37.504-90.581L371.327 226.007c-8.363-8.363-19.243-12.544-30.208-12.544s-21.845 4.181-30.208 12.501-12.501 19.2-12.501 30.208 4.181 21.845 12.501 30.208l362.24 361.813c16.683 16.64 16.683 43.648.043 60.331s-43.648 16.683-60.331.043l-362.24-361.813c-25.003-25.003-37.504-57.856-37.504-90.539s12.501-65.536 37.504-90.539 57.856-37.504 90.539-37.504 65.536 12.501 90.539 37.504l392.533 392.107c41.685 41.685 62.507 96.341 62.507 150.912s-20.864 109.269-62.507 150.912-96.341 62.507-150.912 62.507-109.269-20.864-150.912-62.507L130.303 467.5c-58.325-58.325-87.509-134.869-87.509-211.285s29.184-152.96 87.509-211.285 134.869-87.509 211.285-87.509 152.96 29.184 211.285 87.509L944.98 437.037c16.683 16.683 16.683 43.691 0 60.331s-43.691 16.683-60.331 0z"/><glyph unicode="" glyph-name="pause" d="M256 810.667c-23.552 0-42.667-19.115-42.667-42.667V85.333c0-23.552 19.115-42.667 42.667-42.667h170.667c23.552 0 42.667 19.115 42.667 42.667V768c0 23.552-19.115 42.667-42.667 42.667zm42.667-85.333H384V128.001h-85.333zm298.666 85.333c-23.552 0-42.667-19.115-42.667-42.667V85.333c0-23.552 19.115-42.667 42.667-42.667H768c23.552 0 42.667 19.115 42.667 42.667V768c0 23.552-19.115 42.667-42.667 42.667zM640 725.334h85.333V128.001H640z"/><glyph unicode="" glyph-name="play" d="M236.416 846.55c-6.528 4.267-14.507 6.784-23.083 6.784-23.552 0-42.667-19.115-42.667-42.667v-768c-.043-7.765 2.133-15.872 6.784-23.083 12.757-19.84 39.125-25.557 58.965-12.8l597.333 384c4.864 3.072 9.344 7.424 12.8 12.8 12.757 19.84 6.997 46.208-12.8 58.965zM256 732.502l475.776-305.835L256 120.832z"/><glyph unicode="" glyph-name="plus" d="M213.333 384h256V128c0-23.552 19.115-42.667 42.667-42.667s42.667 19.115 42.667 42.667v256h256c23.552 0 42.667 19.115 42.667 42.667s-19.115 42.667-42.667 42.667h-256v256c0 23.552-19.115 42.667-42.667 42.667s-42.667-19.115-42.667-42.667v-256h-256c-23.552 0-42.667-19.115-42.667-42.667S189.781 384 213.333 384z"/><glyph unicode="" glyph-name="refresh" d="M189.995 540.416c31.445 88.875 95.872 156.544 174.763 194.219s172.032 45.184 260.864 13.739c50.603-17.92 94.123-46.421 127.275-80.213l120.747-113.493H725.335c-23.552 0-42.667-19.115-42.667-42.667s19.115-42.667 42.667-42.667h256.469c5.845.043 11.435 1.323 16.469 3.499 5.077 2.176 9.771 5.376 13.824 9.6l1.536 1.664c3.2 3.712 5.675 7.808 7.381 12.16s2.731 9.003 2.944 13.909c.043.64.043 1.237.043 1.835v256c0 23.552-19.115 42.667-42.667 42.667s-42.667-19.115-42.667-42.667V610.604L813.824 727.895c-42.325 43.093-96.896 78.635-159.701 100.864-111.061 39.296-227.627 29.824-326.101-17.152S148.865 679.938 109.569 568.876c-7.893-22.187 3.755-46.549 25.941-54.443s46.592 3.755 54.443 25.984zM85.333 242.688l126.08-118.485C293.717 41.814 402.986.128 512.128.086s218.411 41.6 301.739 124.885c47.104 47.104 81.109 102.699 100.736 159.787 7.68 22.272-4.181 46.549-26.496 54.229s-46.549-4.181-54.229-26.496c-15.403-44.8-42.368-89.216-80.341-127.189-66.688-66.645-153.984-99.925-241.365-99.925s-174.677 33.365-242.304 100.949L150.401 298.667h148.267c23.552 0 42.667 19.115 42.667 42.667s-19.115 42.667-42.667 42.667H42.199c-5.845-.043-11.435-1.323-16.469-3.499-5.077-2.176-9.771-5.376-13.824-9.6l-1.536-1.664c-3.2-3.712-5.675-7.808-7.381-12.16S.258 348.075.045 343.169c-.043-.64-.043-1.237-.043-1.835v-256c0-23.552 19.115-42.667 42.667-42.667s42.667 19.115 42.667 42.667z"/><glyph unicode="" glyph-name="rewind" d="M426.667 215.254 154.838 426.667 426.667 638.08zM912.469 94.336c7.168-5.632 16.299-9.003 26.197-9.003 23.552 0 42.667 19.115 42.667 42.667v597.333c.043 9.088-2.901 18.347-9.003 26.197-14.464 18.603-41.259 21.931-59.861 7.467l-384-298.667c-2.603-1.963-5.205-4.523-7.467-7.467-5.973-7.68-8.917-16.725-9.003-25.771v298.24c.043 9.088-2.901 18.347-9.003 26.197-14.464 18.603-41.259 21.931-59.861 7.467l-384-298.667c-2.603-1.963-5.205-4.523-7.467-7.467-14.464-18.603-11.136-45.397 7.467-59.861l384-298.667c7.168-5.632 16.299-9.003 26.197-9.003 23.552 0 42.667 19.115 42.667 42.667v298.283c.128-12.587 5.76-24.96 16.469-33.28zM896 215.254 624.171 426.667 896 638.08z"/><glyph unicode="" glyph-name="help" d="M981.333 426.667c0 129.579-52.565 246.997-137.472 331.861S641.578 896 512 896s-246.997-52.565-331.861-137.472S42.667 556.245 42.667 426.667 95.232 179.67 180.139 94.806 382.422-42.666 512-42.666 758.997 9.899 843.861 94.806s137.472 202.283 137.472 331.861zm-85.333 0c0-106.069-42.923-201.984-112.469-271.531S618.07 42.667 512 42.667 310.016 85.59 240.469 155.136 128 320.597 128 426.667s42.923 201.984 112.469 271.531S405.93 810.667 512 810.667s201.984-42.923 271.531-112.469S896 532.737 896 426.667zM428.075 540.502c7.808 22.229 23.851 39.168 43.605 48.64s42.965 11.392 65.195 3.541c19.541-6.869 34.944-20.053 44.8-36.651 7.808-13.099 12.117-28.373 12.203-44.245 0-6.613-1.664-13.184-4.992-19.797-3.413-6.827-8.661-13.867-15.701-20.907-30.251-30.251-78.123-46.592-78.123-46.592-22.357-7.467-34.432-31.616-26.965-53.973s31.616-34.432 53.973-26.965c0 0 65.877 21.589 111.488 67.2 11.904 11.904 23.253 26.197 31.701 43.093 8.533 17.067 13.995 36.608 13.995 58.411-.171 31.189-8.704 61.312-24.192 87.424-19.755 33.195-50.773 59.819-89.813 73.557-44.459 15.616-91.093 11.733-130.432-7.125s-71.595-52.821-87.211-97.28c-7.851-22.229 3.84-46.592 26.069-54.4s46.592 3.883 54.4 26.069zM512 170.667c23.552 0 42.667 19.115 42.667 42.667S535.552 256.001 512 256.001s-42.667-19.115-42.667-42.667 19.115-42.667 42.667-42.667z"/><glyph unicode="" glyph-name="settings" d="M682.667 426.667c0 47.104-19.157 89.856-50.005 120.661s-73.557 50.005-120.661 50.005-89.856-19.157-120.661-50.005-50.005-73.557-50.005-120.661 19.157-89.856 50.005-120.661 73.557-50.005 120.661-50.005 89.856 19.157 120.661 50.005 50.005 73.557 50.005 120.661zm-85.334 0c0-23.595-9.515-44.843-25.003-60.331s-36.736-25.003-60.331-25.003-44.843 9.515-60.331 25.003-25.003 36.736-25.003 60.331 9.515 44.843 25.003 60.331 36.736 25.003 60.331 25.003 44.843-9.515 60.331-25.003 25.003-36.736 25.003-60.331zm269.44-145.237c1.963 4.48 4.779 8.149 8.192 10.965 4.779 3.925 10.709 6.229 17.195 6.272H896c35.328 0 67.413 14.379 90.496 37.504S1024 391.339 1024 426.667s-14.379 67.413-37.504 90.496-55.168 37.504-90.496 37.504h-6.784a29.195 29.195 0 0 0-13.141 3.243c-5.419 2.816-9.813 7.339-12.459 13.312a37.12 37.12 0 0 0-.171 3.797 29.237 29.237 0 0 0-2.091 7.168c.853 14.251 3.285 19.371 7.168 23.339l2.645 2.645c24.96 25.003 37.461 57.856 37.419 90.539s-12.544 65.536-37.589 90.539c-25.003 24.96-57.856 37.461-90.539 37.419s-65.536-12.544-90.453-37.504l-1.963-1.963a29.37 29.37 0 0 0-12.288-7.083c-5.973-1.664-12.416-1.365-18.688 1.408a28.974 28.974 0 0 0-10.795 8.107c-3.925 4.779-6.229 10.709-6.272 17.195v3.84c0 35.328-14.379 67.413-37.504 90.496s-55.168 37.504-90.496 37.504-67.413-14.379-90.496-37.504-37.504-55.168-37.504-90.496v-6.784a29.195 29.195 0 0 0-3.243-13.141c-2.816-5.419-7.339-9.813-13.312-12.459a37.12 37.12 0 0 0-3.797-.171 29.237 29.237 0 0 0-7.168-2.091c-14.293.896-19.413 3.328-23.381 7.211l-2.645 2.645c-25.003 24.96-57.813 37.461-90.539 37.461s-65.493-12.544-90.539-37.632c-24.96-25.003-37.461-57.813-37.461-90.539s12.544-65.536 37.504-90.453l2.048-2.005a29.37 29.37 0 0 0 7.083-12.288c1.664-5.973 1.365-12.416-1.323-18.517a40.582 40.582 0 0 0-.896-2.219 29.11 29.11 0 0 0-8.149-11.733c-4.693-4.053-10.667-6.528-16.341-6.656H128c-35.328 0-67.413-14.379-90.496-37.504S0 458.582 0 423.254s14.379-67.413 37.504-90.496S92.672 295.254 128 295.254h6.784a29.195 29.195 0 0 0 13.141-3.243c5.461-2.859 9.941-7.424 12.629-13.696a29.237 29.237 0 0 0 2.091-7.168c-.853-14.251-3.285-19.371-7.168-23.339l-2.645-2.645c-24.96-25.003-37.461-57.856-37.419-90.539s12.544-65.536 37.589-90.539c25.003-24.96 57.856-37.461 90.539-37.419s65.536 12.544 90.453 37.504l2.005 2.048a29.37 29.37 0 0 0 12.288 7.083c5.973 1.664 12.416 1.365 18.517-1.323a40.582 40.582 0 0 0 2.219-.896 29.11 29.11 0 0 0 11.733-8.149c4.053-4.693 6.528-10.667 6.656-16.341v-3.925c0-35.328 14.379-67.413 37.504-90.496s55.168-37.504 90.496-37.504 67.413 14.379 90.496 37.504 37.504 55.168 37.504 90.496v6.784a29.195 29.195 0 0 0 3.243 13.141c2.859 5.461 7.424 9.941 13.696 12.629a29.237 29.237 0 0 0 7.168 2.091c14.251-.853 19.371-3.285 23.339-7.168l2.645-2.645c25.003-24.96 57.856-37.461 90.539-37.419s65.536 12.544 90.539 37.589c24.96 25.003 37.461 57.856 37.419 90.539s-12.544 65.536-37.504 90.453l-2.048 2.005a29.37 29.37 0 0 0-7.083 12.288c-1.664 5.973-1.365 12.416 1.323 18.517zm-81.877 260.352c-.512 8.576-1.621 12.672-3.243 16.299v-3.413c0-1.835.128-3.584.341-5.333.896-2.56 1.835-5.077 2.901-7.552.171-3.84.213-3.883.213-3.925 10.624-24.789 29.184-43.947 51.541-55.595 15.829-8.235 33.493-12.715 51.669-12.928h7.68c11.776 0 22.4-4.736 30.165-12.501s12.501-18.389 12.501-30.165-4.736-22.4-12.501-30.165-18.389-12.501-30.165-12.501h-3.84c-27.179-.128-52.053-9.728-71.467-25.728-13.781-11.349-24.789-25.899-32-42.368-10.965-24.832-12.288-51.627-5.419-76.032a114.263 114.263 0 0 1 27.819-48.469l3.072-3.115c8.363-8.363 12.544-19.2 12.544-30.165s-4.139-21.845-12.459-30.165c-8.405-8.405-19.243-12.587-30.251-12.587s-21.845 4.139-30.165 12.459l-2.603 2.603c-19.755 19.328-44.373 29.952-69.632 32.085a114.577 114.577 0 0 1-55.168-9.045c-24.661-10.581-43.819-29.141-55.467-51.456-8.235-15.829-12.715-33.493-12.928-51.669v-7.723c0-11.776-4.736-22.4-12.501-30.165S527.186.004 515.41.004s-22.4 4.736-30.165 12.501-12.501 18.389-12.501 30.165v3.84c-.64 28.16-10.88 52.992-27.477 72.192a113.988 113.988 0 0 1-45.141 31.744c-24.533 10.539-50.901 11.691-74.923 4.949a114.263 114.263 0 0 1-48.469-27.819l-3.115-3.072c-8.363-8.363-19.2-12.544-30.165-12.544s-21.845 4.139-30.165 12.459c-8.405 8.405-12.587 19.243-12.587 30.251s4.139 21.845 12.459 30.165l2.603 2.603c19.328 19.755 29.952 44.373 32.085 69.632a114.577 114.577 0 0 1-9.045 55.168c-10.581 24.661-29.141 43.819-51.456 55.467-15.829 8.235-33.493 12.715-51.669 12.928l-7.68-.043c-11.776 0-22.4 4.736-30.165 12.501s-12.501 18.389-12.501 30.165 4.736 22.4 12.501 30.165 18.389 12.501 30.165 12.501h3.84c28.16.64 52.992 10.88 72.192 27.477a113.988 113.988 0 0 1 31.744 45.141c10.539 24.533 11.691 50.901 4.949 74.923a114.263 114.263 0 0 1-27.819 48.469l-3.115 3.115c-8.363 8.363-12.544 19.2-12.544 30.165s4.139 21.845 12.459 30.165c8.405 8.405 19.243 12.587 30.251 12.587s21.845-4.139 30.165-12.459l2.603-2.603c19.755-19.328 44.373-29.952 69.632-32.085 15.787-1.365 31.787.597 46.976 5.845 4.096.512 7.936 1.536 11.349 3.072-1.323-.043-2.603-.128-3.797-.171-8.576-.512-12.672-1.621-16.299-3.243h3.413c1.835 0 3.584.128 5.333.341 2.56.896 5.077 1.835 7.552 2.901 3.84.171 3.883.213 3.925.213 24.789 10.624 43.947 29.184 55.595 51.541 8.235 15.787 12.715 33.493 12.928 51.627v7.723c0 11.776 4.736 22.4 12.501 30.165s18.389 12.501 30.165 12.501 22.4-4.736 30.165-12.501 12.501-18.389 12.501-30.165v-3.84c.128-27.179 9.728-52.053 25.728-71.467 11.349-13.781 25.899-24.789 42.496-32.043 24.661-10.88 51.456-12.203 75.861-5.333a114.263 114.263 0 0 1 48.469 27.819l3.115 3.072c8.363 8.363 19.2 12.544 30.165 12.544s21.845-4.139 30.165-12.459c8.405-8.405 12.587-19.243 12.587-30.251s-4.139-21.845-12.459-30.165l-2.603-2.603c-19.328-19.755-29.952-44.373-32.085-69.632-1.365-15.787.597-31.787 5.845-46.976.512-4.053 1.579-7.893 3.072-11.349-.043 1.365-.085 2.645-.171 3.797z"/><glyph unicode="" glyph-name="share" d="M128 426.667V85.334c0-35.328 14.379-67.413 37.504-90.496S220.672-42.666 256-42.666h512c35.328 0 67.413 14.379 90.496 37.504S896 50.006 896 85.334v341.333c0 23.552-19.115 42.667-42.667 42.667s-42.667-19.115-42.667-42.667V85.334c0-11.776-4.736-22.4-12.501-30.165S779.776 42.668 768 42.668H256c-11.776 0-22.4 4.736-30.165 12.501s-12.501 18.389-12.501 30.165v341.333c0 23.552-19.115 42.667-42.667 42.667S128 450.219 128 426.667zm341.333 323.669V298.667C469.333 275.115 488.448 256 512 256s42.667 19.115 42.667 42.667v451.669l97.835-97.835c16.683-16.683 43.691-16.683 60.331 0s16.683 43.691 0 60.331L542.166 883.499a43.018 43.018 0 0 1-13.824 9.259 42.932 42.932 0 0 1-32.683 0 42.567 42.567 0 0 1-13.824-9.259L311.168 712.832c-16.683-16.683-16.683-43.691 0-60.331s43.691-16.683 60.331 0z"/><glyph unicode="" glyph-name="begin" d="M784 52.011a42.63 42.63 0 0 1 26.667-9.344c23.552 0 42.667 19.115 42.667 42.667v682.667c.043 9.301-3.029 18.731-9.344 26.667-14.72 18.389-41.557 21.376-59.989 6.656L357.334 459.991a40.88 40.88 0 0 1-6.656-6.656c-14.72-18.389-11.733-45.269 6.656-59.989zm-16 122.112L452.309 426.667 768 679.211zM256 128v597.333C256 748.885 236.885 768 213.333 768s-42.667-19.115-42.667-42.667V128c0-23.552 19.115-42.667 42.667-42.667S256 104.448 256 128z"/><glyph unicode="" glyph-name="skip-forward" d="M240 801.323a42.63 42.63 0 0 1-26.667 9.344c-23.552 0-42.667-19.115-42.667-42.667V85.333c-.043-9.301 3.029-18.731 9.344-26.667 14.72-18.389 41.557-21.376 59.989-6.656l426.667 341.333a40.88 40.88 0 0 1 6.656 6.656c14.72 18.389 11.733 45.269-6.656 59.989zm16-122.112 315.691-252.544L256 174.123zm512 46.123V128.001c0-23.552 19.115-42.667 42.667-42.667s42.667 19.115 42.667 42.667v597.333c0 23.552-19.115 42.667-42.667 42.667S768 748.886 768 725.334z"/><glyph unicode="" glyph-name="forbidden" d="M981.333 426.667c0 129.579-52.565 246.997-137.472 331.861S641.578 896 512 896s-246.997-52.565-331.861-137.472S42.667 556.245 42.667 426.667 95.232 179.67 180.139 94.806 382.422-42.666 512-42.666 758.997 9.899 843.861 94.806s137.472 202.283 137.472 331.861zM812.032 186.966 272.299 726.699c65.707 52.565 149.035 83.968 239.701 83.968 106.069 0 201.984-42.923 271.531-112.469S896 532.737 896 426.667c0-90.667-31.403-173.995-83.968-239.701zM211.968 666.368l539.733-539.733C685.994 74.07 602.666 42.667 512 42.667c-106.069 0-201.984 42.923-271.531 112.469S128 320.597 128 426.667c0 90.667 31.403 173.995 83.968 239.701z"/><glyph unicode="" glyph-name="square" d="M213.333 853.334c-35.328 0-67.413-14.379-90.496-37.504s-37.504-55.168-37.504-90.496V128.001c0-35.328 14.379-67.413 37.504-90.496S178.005.001 213.333.001h597.333c35.328 0 67.413 14.379 90.496 37.504s37.504 55.168 37.504 90.496v597.333c0 35.328-14.379 67.413-37.504 90.496s-55.168 37.504-90.496 37.504zm0-85.334h597.333c11.776 0 22.4-4.736 30.165-12.501s12.501-18.389 12.501-30.165V128.001c0-11.776-4.736-22.4-12.501-30.165s-18.389-12.501-30.165-12.501H213.333c-11.776 0-22.4 4.736-30.165 12.501s-12.501 18.389-12.501 30.165v597.333c0 11.776 4.736 22.4 12.501 30.165S201.557 768 213.333 768z"/><glyph unicode="" glyph-name="star" d="M550.272 872.235c-3.925 8.064-10.581 15.019-19.371 19.371-21.12 10.411-46.72 1.749-57.131-19.371L351.829 625.238 79.146 585.345c-8.875-1.237-17.536-5.419-24.363-12.416-16.469-16.896-16.085-43.904.768-60.331L252.799 320.47 206.25 49.025c-1.536-8.832-.256-18.389 4.309-27.051 10.965-20.864 36.779-28.885 57.643-17.92l243.797 128.213L755.839 4.054c7.936-4.224 17.408-5.931 27.051-4.309 23.211 3.968 38.827 26.027 34.859 49.28L771.2 320.47l197.248 192.128a42.314 42.314 0 0 1 12.459 24.405c3.413 23.296-12.715 44.971-36.053 48.384l-272.64 39.851zM512 756.95l93.568-189.611c6.443-13.013 18.603-21.291 32.085-23.339l209.323-30.592-151.424-147.499c-10.411-10.155-14.549-24.277-12.288-37.76l35.712-208.341L531.84 218.24c-12.843 6.741-27.605 6.315-39.723 0l-187.136-98.432 35.712 208.341c2.475 14.336-2.517 28.203-12.288 37.76L176.981 513.408l209.365 30.635c14.336 2.091 25.984 11.093 32.085 23.296z"/><glyph unicode="" glyph-name="sun" d="M768 426.667c0 70.699-28.715 134.741-74.965 181.035S582.699 682.667 512 682.667s-134.741-28.715-181.035-74.965S256 497.366 256 426.667s28.715-134.741 74.965-181.035S441.301 170.667 512 170.667s134.741 28.715 181.035 74.965S768 355.968 768 426.667zm-85.333 0c0-47.147-19.072-89.728-50.005-120.661s-73.515-50.005-120.661-50.005-89.728 19.072-120.661 50.005-50.005 73.515-50.005 120.661 19.072 89.728 50.005 120.661 73.515 50.005 120.661 50.005 89.728-19.072 120.661-50.005 50.005-73.515 50.005-120.661zM469.333 896v-85.333C469.333 787.115 488.448 768 512 768s42.667 19.115 42.667 42.667V896c0 23.552-19.115 42.667-42.667 42.667S469.333 919.552 469.333 896zm0-853.333v-85.333c0-23.552 19.115-42.667 42.667-42.667s42.667 19.115 42.667 42.667v85.333c0 23.552-19.115 42.667-42.667 42.667s-42.667-19.115-42.667-42.667zM149.888 728.448l60.587-60.587c16.683-16.683 43.691-16.683 60.331 0s16.683 43.691 0 60.331l-60.587 60.587c-16.683 16.683-43.691 16.683-60.331 0s-16.683-43.691 0-60.331zm603.307-603.306 60.587-60.587c16.683-16.683 43.691-16.683 60.331 0s16.683 43.691 0 60.331l-60.587 60.587c-16.683 16.683-43.691 16.683-60.331 0s-16.683-43.691 0-60.331zM42.667 384H128c23.552 0 42.667 19.115 42.667 42.667S151.552 469.334 128 469.334H42.667C19.115 469.334 0 450.219 0 426.667S19.115 384 42.667 384zM896 384h85.333c23.552 0 42.667 19.115 42.667 42.667s-19.115 42.667-42.667 42.667H896c-23.552 0-42.667-19.115-42.667-42.667S872.448 384 896 384zM210.219 64.555l60.587 60.587c16.683 16.683 16.683 43.691 0 60.331s-43.691 16.683-60.331 0l-60.587-60.587c-16.683-16.683-16.683-43.691 0-60.331s43.691-16.683 60.331 0zm603.306 603.307 60.587 60.587c16.683 16.683 16.683 43.691 0 60.331s-43.691 16.683-60.331 0l-60.587-60.587c-16.683-16.683-16.683-43.691 0-60.331s43.691-16.683 60.331 0z"/><glyph unicode="" glyph-name="tag" d="M908.672 336.342c24.875 25.003 37.291 57.685 37.291 90.24.043 32.597-12.373 65.365-37.291 90.453L542.165 883.542c-7.723 7.68-18.389 12.459-30.165 12.459H85.333c-23.552 0-42.667-19.115-42.667-42.667V426.667c0-10.923 4.181-21.845 12.501-30.208L421.759 30.294c25.003-24.96 57.856-37.461 90.539-37.419s65.536 12.544 90.453 37.504zm-60.331 60.33-305.92-305.92c-8.363-8.363-19.2-12.544-30.165-12.544s-21.845 4.139-30.165 12.459L128 444.374v366.293h366.336l354.005-354.005c8.192-8.235 12.331-19.072 12.331-30.037 0-10.923-4.139-21.717-12.331-29.952zM298.667 597.334c23.552 0 42.667 19.115 42.667 42.667s-19.115 42.667-42.667 42.667S256 663.553 256 640.001s19.115-42.667 42.667-42.667z"/><glyph unicode="" glyph-name="terminal" d="m200.832 183.168 256 256c16.683 16.683 16.683 43.691 0 60.331l-256 256c-16.683 16.683-43.691 16.683-60.331 0s-16.683-43.691 0-60.331l225.835-225.835-225.835-225.835c-16.683-16.683-16.683-43.691 0-60.331s43.691-16.683 60.331 0zM512 85.334h341.333c23.552 0 42.667 19.115 42.667 42.667s-19.115 42.667-42.667 42.667H512c-23.552 0-42.667-19.115-42.667-42.667S488.448 85.334 512 85.334z"/><glyph unicode="" glyph-name="thumbs-down" d="M469.333 298.667c0 23.552-19.115 42.667-42.667 42.667H184.362c-2.773.085-6.528.469-6.528.469-11.648 1.749-21.419 8.021-27.947 16.896s-9.6 20.053-7.851 31.659l58.88 383.915c1.579 10.197 6.656 19.115 13.867 25.6 7.637 6.869 17.707 10.923 29.269 10.795h438.613V393.047L528.724 46.679c-13.099 4.181-24.832 11.435-34.389 20.992-15.488 15.488-25.003 36.736-25.003 60.331zM384 256V128c0-47.104 19.157-89.856 50.005-120.661s73.557-50.005 120.661-50.005c17.28 0 32.171 10.283 38.997 25.344l170.667 384c2.56 5.717 3.712 11.733 3.669 17.323v469.333c0 23.552-19.115 42.667-42.667 42.667h-481.28c-32.725.384-63.232-11.989-86.229-32.555-21.547-19.285-36.565-45.909-41.259-76.075l-58.88-384.085c-5.333-34.987 4.096-68.864 23.467-95.189s48.939-45.355 83.84-50.645c7.04-1.067 14.208-1.579 20.992-1.451zm341.333 554.667h113.92c15.403.256 28.757-5.077 38.912-14.165 9.088-8.149 15.531-19.2 17.835-31.829V475.094c-1.579-14.507-8.875-26.88-19.413-35.541-10.027-8.277-22.912-13.056-36.736-12.843l-114.517-.043c-23.552 0-42.667-19.115-42.667-42.667s19.115-42.667 42.667-42.667h113.323c34.56-.512 66.944 11.52 92.16 32.256 26.539 21.803 45.184 53.376 50.176 90.027.213 1.707.341 3.712.341 5.717V768c0 1.792-.128 3.797-.384 5.845-4.736 34.261-21.547 64.427-45.867 86.187-25.6 22.912-59.605 36.608-95.829 35.925h-113.92c-23.552 0-42.667-19.115-42.667-42.667s19.115-42.667 42.667-42.667z"/><glyph unicode="" glyph-name="thumbs-up" d="M554.667 554.667c0-23.552 19.115-42.667 42.667-42.667h242.304c2.773-.085 6.528-.469 6.528-.469 11.648-1.749 21.419-8.021 27.947-16.896s9.6-20.053 7.851-31.659l-58.88-383.915c-1.579-10.197-6.656-19.115-13.867-25.6-7.68-6.869-17.707-10.923-29.269-10.795H341.335v417.621l153.941 346.368c13.099-4.181 24.832-11.435 34.389-20.992 15.488-15.488 25.003-36.736 25.003-60.331zM640 597.334v128c0 47.104-19.157 89.856-50.005 120.661S516.438 896 469.334 896c-17.28 0-32.171-10.283-38.997-25.344l-170.667-384c-2.56-5.717-3.712-11.733-3.669-17.323V0c0-23.552 19.115-42.667 42.667-42.667h481.28c32.725-.384 63.232 11.989 86.229 32.555 21.547 19.285 36.565 45.909 41.259 76.075l58.88 384.085c5.333 34.987-4.096 68.864-23.467 95.189s-48.939 45.355-83.84 50.645c-7.04 1.067-14.208 1.579-20.992 1.451zM298.667 42.667h-128c-11.776 0-22.4 4.736-30.165 12.501s-12.501 18.389-12.501 30.165V384c0 11.776 4.736 22.4 12.501 30.165s18.389 12.501 30.165 12.501h128c23.552 0 42.667 19.115 42.667 42.667S322.219 512 298.667 512h-128c-35.328 0-67.413-14.379-90.496-37.504S42.667 419.328 42.667 384V85.333c0-35.328 14.379-67.413 37.504-90.496s55.168-37.504 90.496-37.504h128c23.552 0 42.667 19.115 42.667 42.667s-19.115 42.667-42.667 42.667z"/><glyph unicode="" glyph-name="trash" d="M768 640V85.333c0-11.776-4.736-22.4-12.501-30.165s-18.389-12.501-30.165-12.501H298.667c-11.776 0-22.4 4.736-30.165 12.501s-12.501 18.389-12.501 30.165V640zm-42.667 85.334v42.667c0 35.328-14.379 67.413-37.504 90.496s-55.168 37.504-90.496 37.504H426.666c-35.328 0-67.413-14.379-90.496-37.504s-37.504-55.168-37.504-90.496v-42.667H127.999c-23.552 0-42.667-19.115-42.667-42.667S104.447 640 127.999 640h42.667V85.333c0-35.328 14.379-67.413 37.504-90.496s55.168-37.504 90.496-37.504h426.667c35.328 0 67.413 14.379 90.496 37.504s37.504 55.168 37.504 90.496V640H896c23.552 0 42.667 19.115 42.667 42.667S919.552 725.334 896 725.334zm-341.333 0v42.667c0 11.776 4.736 22.4 12.501 30.165s18.389 12.501 30.165 12.501h170.667c11.776 0 22.4-4.736 30.165-12.501s12.501-18.389 12.501-30.165v-42.667z"/><glyph unicode="" glyph-name="unlock" d="M213.333 426.667h597.333c11.776 0 22.4-4.736 30.165-12.501s12.501-18.389 12.501-30.165V85.334c0-11.776-4.736-22.4-12.501-30.165s-18.389-12.501-30.165-12.501H213.333c-11.776 0-22.4 4.736-30.165 12.501s-12.501 18.389-12.501 30.165v298.667c0 11.776 4.736 22.4 12.501 30.165s18.389 12.501 30.165 12.501zm128 85.333v128c-.043 47.189 18.987 89.813 49.877 120.789 30.848 30.891 73.344 50.005 120.363 50.091 43.947-.128 83.115-16.128 113.152-42.667 27.221-24.107 46.805-56.832 54.613-94.251 4.821-23.083 27.392-37.888 50.475-33.067s37.888 27.392 33.067 50.475a258.18 258.18 0 0 1-81.579 140.757c-45.227 40.021-104.619 64.171-169.515 64.085-70.699-.085-134.699-28.843-180.949-75.179S255.914 710.654 256 639.998v-128h-42.667c-35.328 0-67.413-14.379-90.496-37.504s-37.504-55.168-37.504-90.496V85.331c0-35.328 14.379-67.413 37.504-90.496s55.168-37.504 90.496-37.504h597.333c35.328 0 67.413 14.379 90.496 37.504s37.504 55.168 37.504 90.496v298.667c0 35.328-14.379 67.413-37.504 90.496s-55.168 37.504-90.496 37.504z"/><glyph unicode="" glyph-name="upload" d="M853.333 298.667V128c0-11.776-4.736-22.4-12.501-30.165s-18.389-12.501-30.165-12.501H213.334c-11.776 0-22.4 4.736-30.165 12.501S170.668 116.224 170.668 128v170.667c0 23.552-19.115 42.667-42.667 42.667s-42.667-19.115-42.667-42.667V128c0-35.328 14.379-67.413 37.504-90.496S178.006 0 213.334 0h597.333c35.328 0 67.413 14.379 90.496 37.504S938.667 92.672 938.667 128v170.667c0 23.552-19.115 42.667-42.667 42.667s-42.667-19.115-42.667-42.667zm-384 409.003V298.667C469.333 275.115 488.448 256 512 256s42.667 19.115 42.667 42.667V707.67l140.501-140.501c16.683-16.683 43.691-16.683 60.331 0s16.683 43.691 0 60.331L542.166 840.833a43.018 43.018 0 0 1-13.824 9.259 42.932 42.932 0 0 1-32.683 0 42.567 42.567 0 0 1-13.824-9.259L268.502 627.5c-16.683-16.683-16.683-43.691 0-60.331s43.691-16.683 60.331 0z"/><glyph unicode="" glyph-name="upload-cloud" d="M469.333 323.67V42.667C469.333 19.115 488.448 0 512 0s42.667 19.115 42.667 42.667V323.67l97.835-97.835c16.683-16.683 43.691-16.683 60.331 0s16.683 43.691 0 60.331L542.166 456.833c-3.925 3.925-8.619 7.083-13.824 9.259s-10.795 3.243-16.341 3.243c-10.923 0-21.845-4.181-30.165-12.501L311.169 286.167c-16.683-16.683-16.683-43.691 0-60.331s43.691-16.683 60.331 0zm421.078-207.104c62.037 33.835 104.576 89.685 123.051 152.491s13.013 132.779-20.821 194.816c-28.971 53.12-74.112 91.947-126.251 113.621-30.891 12.843-64.213 19.627-98.091 19.84h-22.485c-30.933 87.765-91.477 158.208-167.125 202.752-84.608 49.835-188.373 67.456-291.029 40.917S102.785 748.758 52.908 664.15s-67.456-188.373-40.917-291.029C27.863 311.809 57.772 257.537 96.258 214.7c15.744-17.536 42.752-18.944 60.245-3.2s18.944 42.752 3.2 60.245c-29.355 32.64-52.693 74.667-65.109 122.752-20.651 79.872-6.997 160.469 31.829 226.347s102.699 116.907 182.571 137.557 160.469 6.997 226.347-31.829 116.907-102.699 137.557-182.571c4.949-18.56 21.589-32 41.344-32h53.461c22.869-.171 45.269-4.736 65.92-13.312 34.773-14.464 64.725-40.235 84.053-75.648 22.571-41.387 26.24-87.936 13.867-129.877s-40.661-79.104-82.048-101.632c-20.693-11.264-28.331-37.205-17.024-57.899s37.205-28.331 57.899-17.024z"/><glyph unicode="" glyph-name="user" d="M896 42.667V128c0 58.88-23.936 112.299-62.464 150.869s-91.989 62.464-150.869 62.464H341.334c-58.88 0-112.299-23.936-150.869-62.464S128.001 186.88 128.001 128V42.667C128.001 19.115 147.116 0 170.668 0s42.667 19.115 42.667 42.667V128c0 35.371 14.293 67.285 37.504 90.496S305.964 256 341.335 256h341.333c35.371 0 67.285-14.293 90.496-37.504s37.504-55.125 37.504-90.496V42.667C810.668 19.115 829.783 0 853.335 0s42.667 19.115 42.667 42.667zM725.333 640c0 58.88-23.936 112.299-62.464 150.869S570.88 853.333 512 853.333s-112.299-23.936-150.869-62.464S298.667 698.88 298.667 640s23.936-112.299 62.464-150.869S453.12 426.667 512 426.667s112.299 23.936 150.869 62.464S725.333 581.12 725.333 640zM640 640c0-35.371-14.293-67.285-37.504-90.496S547.371 512 512 512s-67.285 14.293-90.496 37.504S384 604.629 384 640s14.293 67.285 37.504 90.496S476.629 768 512 768s67.285-14.293 90.496-37.504S640 675.371 640 640z"/><glyph unicode="" glyph-name="user-minus" d="M725.333 42.667V128c0 58.88-23.936 112.299-62.464 150.869S570.88 341.333 512 341.333H213.333c-58.88 0-112.299-23.936-150.869-62.464S0 186.88 0 128V42.667C0 19.115 19.115 0 42.667 0s42.667 19.115 42.667 42.667V128c0 35.371 14.293 67.285 37.504 90.496S177.963 256 213.334 256h298.667c35.371 0 67.285-14.293 90.496-37.504s37.504-55.125 37.504-90.496V42.667C640.001 19.115 659.116 0 682.668 0s42.667 19.115 42.667 42.667zM576 640c0 58.88-23.936 112.299-62.464 150.869s-91.989 62.464-150.869 62.464-112.299-23.936-150.869-62.464S149.334 698.88 149.334 640s23.936-112.299 62.464-150.869 91.989-62.464 150.869-62.464 112.299 23.936 150.869 62.464S576 581.12 576 640zm-85.333 0c0-35.371-14.293-67.285-37.504-90.496S398.038 512 362.667 512s-67.285 14.293-90.496 37.504-37.504 55.125-37.504 90.496 14.293 67.285 37.504 90.496S327.296 768 362.667 768s67.285-14.293 90.496-37.504 37.504-55.125 37.504-90.496zm490.666-128h-256c-23.552 0-42.667-19.115-42.667-42.667s19.115-42.667 42.667-42.667h256c23.552 0 42.667 19.115 42.667 42.667S1004.885 512 981.333 512z"/><glyph unicode="" glyph-name="user-plus" d="M725.333 42.667V128c0 58.88-23.936 112.299-62.464 150.869S570.88 341.333 512 341.333H213.333c-58.88 0-112.299-23.936-150.869-62.464S0 186.88 0 128V42.667C0 19.115 19.115 0 42.667 0s42.667 19.115 42.667 42.667V128c0 35.371 14.293 67.285 37.504 90.496S177.963 256 213.334 256h298.667c35.371 0 67.285-14.293 90.496-37.504s37.504-55.125 37.504-90.496V42.667C640.001 19.115 659.116 0 682.668 0s42.667 19.115 42.667 42.667zM576 640c0 58.88-23.936 112.299-62.464 150.869s-91.989 62.464-150.869 62.464-112.299-23.936-150.869-62.464S149.334 698.88 149.334 640s23.936-112.299 62.464-150.869 91.989-62.464 150.869-62.464 112.299 23.936 150.869 62.464S576 581.12 576 640zm-85.333 0c0-35.371-14.293-67.285-37.504-90.496S398.038 512 362.667 512s-67.285 14.293-90.496 37.504-37.504 55.125-37.504 90.496 14.293 67.285 37.504 90.496S327.296 768 362.667 768s67.285-14.293 90.496-37.504 37.504-55.125 37.504-90.496zm490.666-128H896v85.333C896 620.885 876.885 640 853.333 640s-42.667-19.115-42.667-42.667V512h-85.333c-23.552 0-42.667-19.115-42.667-42.667s19.115-42.667 42.667-42.667h85.333v-85.333c0-23.552 19.115-42.667 42.667-42.667S896 317.781 896 341.333v85.333h85.333c23.552 0 42.667 19.115 42.667 42.667S1004.885 512 981.333 512z"/><glyph unicode="" glyph-name="user-x" d="M725.333 42.667V128c0 58.88-23.936 112.299-62.464 150.869S570.88 341.333 512 341.333H213.333c-58.88 0-112.299-23.936-150.869-62.464S0 186.88 0 128V42.667C0 19.115 19.115 0 42.667 0s42.667 19.115 42.667 42.667V128c0 35.371 14.293 67.285 37.504 90.496S177.963 256 213.334 256h298.667c35.371 0 67.285-14.293 90.496-37.504s37.504-55.125 37.504-90.496V42.667C640.001 19.115 659.116 0 682.668 0s42.667 19.115 42.667 42.667zM576 640c0 58.88-23.936 112.299-62.464 150.869s-91.989 62.464-150.869 62.464-112.299-23.936-150.869-62.464S149.334 698.88 149.334 640s23.936-112.299 62.464-150.869 91.989-62.464 150.869-62.464 112.299 23.936 150.869 62.464S576 581.12 576 640zm-85.333 0c0-35.371-14.293-67.285-37.504-90.496S398.038 512 362.667 512s-67.285 14.293-90.496 37.504-37.504 55.125-37.504 90.496 14.293 67.285 37.504 90.496S327.296 768 362.667 768s67.285-14.293 90.496-37.504 37.504-55.125 37.504-90.496zm460.501-12.501-76.501-76.501-76.501 76.501c-16.683 16.683-43.691 16.683-60.331 0s-16.683-43.691 0-60.331l76.501-76.501-76.501-76.501c-16.683-16.683-16.683-43.691 0-60.331s43.691-16.683 60.331 0l76.501 76.501 76.501-76.501c16.683-16.683 43.691-16.683 60.331 0s16.683 43.691 0 60.331l-76.501 76.501 76.501 76.501c16.683 16.683 16.683 43.691 0 60.331s-43.691 16.683-60.331 0z"/><glyph unicode="" glyph-name="users" d="M768 42.667V128c0 58.88-23.936 112.299-62.464 150.869s-91.989 62.464-150.869 62.464H213.334c-58.88 0-112.299-23.936-150.869-62.464S.001 186.88.001 128V42.667C.001 19.115 19.116 0 42.668 0s42.667 19.115 42.667 42.667V128c0 35.371 14.293 67.285 37.504 90.496S177.964 256 213.335 256h341.333c35.371 0 67.285-14.293 90.496-37.504s37.504-55.125 37.504-90.496V42.667C682.668 19.115 701.783 0 725.335 0s42.667 19.115 42.667 42.667zM597.333 640c0 58.88-23.936 112.299-62.464 150.869S442.88 853.333 384 853.333s-112.299-23.936-150.869-62.464S170.667 698.88 170.667 640s23.936-112.299 62.464-150.869S325.12 426.667 384 426.667s112.299 23.936 150.869 62.464S597.333 581.12 597.333 640zM512 640c0-35.371-14.293-67.285-37.504-90.496S419.371 512 384 512s-67.285 14.293-90.496 37.504S256 604.629 256 640s14.293 67.285 37.504 90.496S348.629 768 384 768s67.285-14.293 90.496-37.504S512 675.371 512 640zm512-597.333V128c-.043 53.12-19.499 101.76-51.84 139.136-27.819 32.128-65.195 55.936-107.904 67.243-22.784 6.016-46.123-7.552-52.139-30.336s7.552-46.123 30.336-52.139c25.899-6.869 48.469-21.248 65.195-40.619 19.371-22.443 30.976-51.456 31.019-83.285V42.667C938.667 19.115 957.782 0 981.334 0s42.667 19.115 42.667 42.667zM672.085 763.776c34.261-8.789 61.653-30.507 78.379-58.752s22.656-62.72 13.867-96.981c-7.509-29.355-24.533-53.589-47.147-70.485-13.397-10.027-28.8-17.451-45.355-21.803-22.784-5.973-36.437-29.312-30.421-52.096s29.312-36.437 52.096-30.421c27.179 7.125 52.565 19.413 74.752 36.011 37.717 28.16 66.219 68.821 78.72 117.675 14.592 57.045 4.693 114.731-23.125 161.621s-73.6 83.328-130.645 97.963c-22.827 5.845-46.08-7.936-51.925-30.763s7.936-46.08 30.763-51.925z"/><glyph unicode="" glyph-name="video" d="M938.667 557.099V296.235L756.054 426.667zM128 768c-35.328 0-67.413-14.379-90.496-37.504S0 675.328 0 640V213.333c0-35.328 14.379-67.413 37.504-90.496S92.672 85.333 128 85.333h469.333c35.328 0 67.413 14.379 90.496 37.504s37.504 55.168 37.504 90.496v130.432l231.211-165.163c19.157-13.696 45.824-9.259 59.52 9.899 5.376 7.595 7.979 16.341 7.936 24.832V640c0 23.552-19.115 42.667-42.667 42.667-9.301 0-17.92-2.987-24.789-7.936L725.333 509.568V640c0 35.328-14.379 67.413-37.504 90.496S632.661 768 597.333 768zm0-85.333h469.333c11.776 0 22.4-4.736 30.165-12.501s12.501-18.389 12.501-30.165V213.334c0-11.776-4.736-22.4-12.501-30.165s-18.389-12.501-30.165-12.501H128c-11.776 0-22.4 4.736-30.165 12.501s-12.501 18.389-12.501 30.165v426.667c0 11.776 4.736 22.4 12.501 30.165s18.389 12.501 30.165 12.501z"/><glyph unicode="" glyph-name="video-off" d="M454.827 682.667h142.507c11.776 0 22.4-4.736 30.165-12.501S640 651.777 640 640.001V497.494c0-11.776 4.779-22.443 12.501-30.165l42.667-42.667c14.976-14.976 38.315-16.512 55.168-4.395l188.331 136.192V213.334c0-23.552 19.115-42.667 42.667-42.667s42.667 19.115 42.667 42.667v426.667c.043 8.576-2.603 17.408-8.107 25.003-13.824 19.072-40.491 23.381-59.563 9.557L729.814 510.678l-4.48 4.48v124.843c0 35.328-14.379 67.413-37.504 90.496s-55.168 37.504-90.496 37.504H454.827c-23.552 0-42.667-19.115-42.667-42.667s19.115-42.667 42.667-42.667zm-259.158 0L640 238.336v-25.003c0-11.776-4.736-22.4-12.501-30.165s-18.389-12.501-30.165-12.501H128.001c-11.776 0-22.4 4.736-30.165 12.501s-12.501 18.389-12.501 30.165V640c0 11.776 4.736 22.4 12.501 30.165s18.389 12.501 30.165 12.501zM12.501 865.835l98.901-98.901c-28.715-3.712-54.485-16.981-73.899-36.437C14.378 707.414-.001 675.329-.001 640.001V213.334c0-35.328 14.379-67.413 37.504-90.496s55.168-37.504 90.496-37.504h469.333c35.328 0 67.413 14.379 90.496 37.504a128.547 128.547 0 0 1 27.307 40.363L951.167-72.831c16.683-16.683 43.691-16.683 60.331 0s16.683 43.691 0 60.331L72.831 926.167c-16.683 16.683-43.691 16.683-60.331 0s-16.683-43.691 0-60.331z"/><glyph unicode="" glyph-name="volume" d="M426.667 636.544V216.747l-144 115.2A42.42 42.42 0 0 1 256 341.334H128v170.667h128c9.301-.043 18.731 3.029 26.667 9.344zm16 122.112L241.024 597.333H85.333c-23.552 0-42.667-19.115-42.667-42.667v-256c0-23.552 19.115-42.667 42.667-42.667h155.691L442.667 94.676c18.389-14.72 45.269-11.733 59.989 6.656 6.315 7.893 9.387 17.365 9.344 26.667v597.333c0 23.552-19.115 42.667-42.667 42.667a42.633 42.633 0 0 1-26.667-9.344z"/><glyph unicode="" glyph-name="volume-low" d="M426.667 636.544V216.747l-144 115.2A42.42 42.42 0 0 1 256 341.334H128v170.667h128c9.301-.043 18.731 3.029 26.667 9.344zm16 122.112L241.024 597.333H85.333c-23.552 0-42.667-19.115-42.667-42.667v-256c0-23.552 19.115-42.667 42.667-42.667h155.691L442.667 94.676c18.389-14.72 45.269-11.733 59.989 6.656 6.315 7.893 9.387 17.365 9.344 26.667v597.333c0 23.552-19.115 42.667-42.667 42.667a42.633 42.633 0 0 1-26.667-9.344zm190.208-211.114c33.323-33.323 49.963-76.928 49.963-120.661s-16.64-87.339-49.963-120.661c-16.64-16.683-16.64-43.691 0-60.331s43.691-16.64 60.331 0c49.963 49.963 74.965 115.541 74.965 180.992s-25.003 131.029-74.965 180.992c-16.64 16.683-43.691 16.683-60.331 0s-16.683-43.691 0-60.331z"/><glyph unicode="" glyph-name="volume-high" d="M426.667 636.544V216.747l-144 115.2A42.42 42.42 0 0 1 256 341.334H128v170.667h128c9.301-.043 18.731 3.029 26.667 9.344zm16 122.112L241.024 597.333H85.333c-23.552 0-42.667-19.115-42.667-42.667v-256c0-23.552 19.115-42.667 42.667-42.667h155.691L442.667 94.676c18.389-14.72 45.269-11.733 59.989 6.656 6.315 7.893 9.387 17.365 9.344 26.667v597.333c0 23.552-19.115 42.667-42.667 42.667a42.633 42.633 0 0 1-26.667-9.344zm340.821-60.501c74.965-75.008 112.427-173.184 112.427-271.531 0-98.304-37.461-196.48-112.427-271.445-16.64-16.683-16.64-43.691 0-60.331s43.691-16.64 60.331 0c91.605 91.605 137.387 211.755 137.429 331.776 0 120.021-45.824 240.213-137.429 331.861-16.64 16.683-43.691 16.683-60.331 0s-16.683-43.691 0-60.331zM632.875 547.542c33.323-33.323 49.963-76.928 49.963-120.661s-16.64-87.339-49.963-120.661c-16.64-16.683-16.64-43.691 0-60.331s43.691-16.64 60.331 0c49.963 49.963 74.965 115.541 74.965 180.992s-25.003 131.029-74.965 180.992c-16.64 16.683-43.691 16.683-60.331 0s-16.683-43.691 0-60.331z"/><glyph unicode="" glyph-name="volume-off" d="M426.667 636.544V216.747l-144 115.2A42.42 42.42 0 0 1 256 341.334H128v170.667h128c9.301-.043 18.731 3.029 26.667 9.344zm16 122.112L241.024 597.333H85.333c-23.552 0-42.667-19.115-42.667-42.667v-256c0-23.552 19.115-42.667 42.667-42.667h155.691L442.667 94.676c18.389-14.72 45.269-11.733 59.989 6.656 6.315 7.893 9.387 17.365 9.344 26.667v597.333c0 23.552-19.115 42.667-42.667 42.667a42.633 42.633 0 0 1-26.667-9.344zm252.501-234.154 97.835-97.835-97.835-97.835c-16.683-16.683-16.683-43.691 0-60.331s43.691-16.683 60.331 0l97.835 97.835 97.835-97.835c16.683-16.683 43.691-16.683 60.331 0s16.683 43.691 0 60.331l-97.835 97.835 97.835 97.835c16.683 16.683 16.683 43.691 0 60.331s-43.691 16.683-60.331 0l-97.835-97.835-97.835 97.835c-16.683 16.683-43.691 16.683-60.331 0s-16.683-43.691 0-60.331z"/><glyph unicode="" glyph-name="wifi" d="M240.64 370.432c83.712 69.717 186.069 101.931 287.275 98.347 92.459-3.285 183.893-36.48 259.029-98.475 18.176-14.976 45.056-12.416 60.075 5.76s12.416 45.056-5.76 60.075c-89.899 74.155-199.424 113.963-310.272 117.888-121.429 4.309-244.523-34.389-344.917-118.059-18.091-15.061-20.565-41.984-5.461-60.075s41.984-20.565 60.075-5.461zM88.789 522.667c125.312 110.464 281.6 162.987 436.736 159.445 146.901-3.371 292.651-57.045 409.771-159.531 17.749-15.531 44.672-13.739 60.203 4.011s13.739 44.672-4.011 60.203C858.88 702.848 693.803 763.648 527.445 767.446c-175.744 4.011-353.067-55.595-495.061-180.779-17.707-15.573-19.371-42.539-3.797-60.203s42.539-19.371 60.203-3.797zm299.862-306.133c42.24 30.037 91.563 42.453 139.691 38.656 38.016-2.987 75.307-16.128 107.648-38.784 19.285-13.525 45.909-8.832 59.435 10.453s8.832 45.909-10.453 59.435c-44.928 31.488-96.811 49.792-149.888 53.973-67.413 5.333-136.704-12.16-195.84-54.144-19.2-13.653-23.723-40.277-10.069-59.477s40.277-23.723 59.477-10.069zM512 42.667c23.552 0 42.667 19.115 42.667 42.667S535.552 128.001 512 128.001s-42.667-19.115-42.667-42.667S488.448 42.667 512 42.667z"/><glyph unicode="" glyph-name="wifi-off" d="M694.656 428.416c33.664-16.427 63.915-36.565 88.064-57.472 17.835-15.403 44.757-13.483 60.203 4.352s13.483 44.757-4.352 60.203c-29.995 25.984-66.517 50.133-106.496 69.675-21.163 10.325-46.72 1.536-57.045-19.627s-1.536-46.72 19.627-57.045zM460.373 680.662c171.52 13.824 332.629-41.301 456.363-142.379a713.855 713.855 0 0 0 18.432-15.659c17.664-15.573 44.629-13.867 60.203 3.797s13.867 44.629-3.797 60.203a749.638 749.638 0 0 1-20.864 17.707C830.593 718.806 647.894 781.355 453.505 765.654c-23.467-1.835-40.96-22.4-39.083-45.867s22.485-41.003 45.952-39.083zm-71.722-464.128c42.24 30.037 91.563 42.453 139.691 38.656 38.016-2.987 75.307-16.128 107.648-38.784 9.941-6.955 21.845-9.088 32.853-6.912L951.168-72.831c16.683-16.683 43.691-16.683 60.331 0s16.683 43.691 0 60.331l-544 544c-2.133 2.688-4.523 5.12-7.211 7.211L72.832 926.167c-16.683 16.683-43.691 16.683-60.331 0s-16.683-43.691 0-60.331l174.421-174.421C133.29 664.578 80.682 629.42 32.341 586.668c-17.664-15.616-19.328-42.581-3.712-60.245s42.581-19.328 60.245-3.712c50.816 44.928 106.624 80.085 162.219 104.576l99.115-99.115c-57.941-19.499-113.963-50.219-164.224-92.203-18.091-15.104-20.48-42.027-5.376-60.117s42.027-20.48 60.117-5.376c54.187 45.312 116.224 74.667 178.688 88.491L538.41 339.97c-1.109.085-2.219.213-3.328.299-67.413 5.333-136.704-12.16-195.84-54.144-19.2-13.653-23.723-40.277-10.069-59.477s40.277-23.723 59.477-10.069zM512 42.667c23.552 0 42.667 19.115 42.667 42.667S535.552 128.001 512 128.001s-42.667-19.115-42.667-42.667S488.448 42.667 512 42.667z"/><glyph unicode="" glyph-name="x" d="M225.835 652.502 451.67 426.667 225.835 200.832c-16.683-16.683-16.683-43.691 0-60.331s43.691-16.683 60.331 0l225.835 225.835 225.835-225.835c16.683-16.683 43.691-16.683 60.331 0s16.683 43.691 0 60.331L572.332 426.667l225.835 225.835c16.683 16.683 16.683 43.691 0 60.331s-43.691 16.683-60.331 0L512.001 486.998 286.166 712.833c-16.683 16.683-43.691 16.683-60.331 0s-16.683-43.691 0-60.331z"/><glyph unicode="" glyph-name="youtube" d="M920.021 655.488c12.245-65.237 19.115-140.587 18.645-218.667.811-65.195-5.248-139.392-18.645-214.229a78.189 78.189 0 0 0-11.605-24.533c-9.685-13.696-23.808-24.107-40.491-28.8-25.771-6.869-91.989-11.733-165.419-14.549-95.147-3.669-190.507-3.669-190.507-3.669s-95.36 0-190.507 3.627c-73.429 2.816-139.648 7.637-164.949 14.421-8.747 2.432-16.896 6.357-24.149 11.435-13.269 9.387-23.467 22.869-28.587 39.381-12.16 65.109-18.944 140.203-18.475 218.027-.896 65.707 5.163 140.459 18.645 215.893a78.189 78.189 0 0 0 11.605 24.533c9.685 13.696 23.808 24.107 40.491 28.8 25.771 6.869 91.989 11.733 165.419 14.549 95.147 3.627 190.507 3.627 190.507 3.627s95.36 0 190.549-3.328c73.344-2.56 140.032-6.955 164.523-12.928a77.921 77.921 0 0 0 25.515-12.757c13.099-9.899 22.955-23.936 27.435-40.875zm83.072 19.627c-9.259 36.949-30.635 67.84-59.008 89.301-15.915 12.032-33.963 21.077-53.291 26.667-38.315 9.387-115.029 13.781-185.259 16.213-96.725 3.371-193.536 3.371-193.536 3.371s-96.939 0-193.749-3.712c-70.059-2.688-147.2-7.467-184.192-17.365-37.291-10.539-67.456-32.853-88.064-61.867-11.52-16.256-20.011-34.603-25.045-54.101a48.844 48.844 0 0 1-.64-3.029C5.674 589.612-.982 508.758 0 436.737c-.512-82.091 6.869-163.456 20.352-234.752.256-1.323.555-2.645.896-3.755 10.453-36.693 32.853-66.859 61.909-87.381a163.29 163.29 0 0 1 50.432-23.936C171.093 76.886 248.192 72.108 318.25 69.42c96.811-3.712 193.749-3.712 193.749-3.712s96.939 0 193.749 3.712c70.059 2.688 147.157 7.467 184.192 17.365 37.248 10.539 67.456 32.853 88.021 61.867a164.15 164.15 0 0 1 25.045 54.059c.256 1.067.512 2.133.64 3.029 14.507 80.384 21.163 160.64 20.309 232.107.512 82.133-6.869 163.541-20.352 234.837-.171.853-.341 1.707-.512 2.432zM458.667 371.158V503.51l116.352-66.176zm-21.59-110.422 245.333 139.52c20.48 11.648 27.648 37.717 16 58.197-3.968 6.997-9.643 12.459-16 16l-245.333 139.52c-20.48 11.648-46.549 4.48-58.197-16-3.84-6.741-5.632-14.08-5.589-21.077v-279.04c0-23.552 19.115-42.667 42.667-42.667 7.765 0 15.019 2.091 21.077 5.589z"/><glyph unicode="" glyph-name="zoom-in" d="M684.416 262.144c-1.451-1.109-2.859-2.347-4.224-3.712s-2.56-2.731-3.712-4.224c-53.675-51.755-126.677-83.541-207.147-83.541-82.475 0-157.099 33.365-211.2 87.467s-87.467 128.725-87.467 211.2 33.365 157.099 87.467 211.2 128.725 87.467 211.2 87.467 157.099-33.365 211.2-87.467S768 551.809 768 469.334c0-80.469-31.787-153.472-83.584-207.189zM926.165 72.832l-156.8 156.8c52.523 65.707 83.968 149.035 83.968 239.701 0 106.027-43.008 202.069-112.469 271.531S575.36 853.333 469.333 853.333s-202.069-43.008-271.531-112.469S85.333 575.36 85.333 469.333s43.008-202.069 112.469-271.531S363.306 85.333 469.333 85.333c90.667 0 173.995 31.445 239.701 83.968l156.8-156.8c16.683-16.683 43.691-16.683 60.331 0s16.683 43.691 0 60.331zM341.333 426.667h85.333v-85.333c0-23.552 19.115-42.667 42.667-42.667S512 317.782 512 341.334v85.333h85.333c23.552 0 42.667 19.115 42.667 42.667s-19.115 42.667-42.667 42.667H512v85.333c0 23.552-19.115 42.667-42.667 42.667s-42.667-19.115-42.667-42.667v-85.333h-85.333c-23.552 0-42.667-19.115-42.667-42.667s19.115-42.667 42.667-42.667z"/><glyph unicode="" glyph-name="zoom-out" d="M684.416 262.144c-1.451-1.109-2.859-2.347-4.224-3.712s-2.56-2.731-3.712-4.224c-53.675-51.755-126.677-83.541-207.147-83.541-82.475 0-157.099 33.365-211.2 87.467s-87.467 128.725-87.467 211.2 33.365 157.099 87.467 211.2 128.725 87.467 211.2 87.467 157.099-33.365 211.2-87.467S768 551.809 768 469.334c0-80.469-31.787-153.472-83.584-207.189zM926.165 72.832l-156.8 156.8c52.523 65.707 83.968 149.035 83.968 239.701 0 106.027-43.008 202.069-112.469 271.531S575.36 853.333 469.333 853.333s-202.069-43.008-271.531-112.469S85.333 575.36 85.333 469.333s43.008-202.069 112.469-271.531S363.306 85.333 469.333 85.333c90.667 0 173.995 31.445 239.701 83.968l156.8-156.8c16.683-16.683 43.691-16.683 60.331 0s16.683 43.691 0 60.331zM341.333 426.667h256c23.552 0 42.667 19.115 42.667 42.667s-19.115 42.667-42.667 42.667h-256c-23.552 0-42.667-19.115-42.667-42.667s19.115-42.667 42.667-42.667z"/><glyph unicode="" glyph-name="game" horiz-adv-x="1280" d="M992 766.412V768H320C143.27 768 0 624.73 0 448s143.27-320 320-320c104.69 0 197.632 50.278 256.014 128h127.97C762.362 178.278 855.308 128 960 128c176.732 0 320 143.268 320 320 0 165.93-126.292 302.356-288 318.412zM512 384H384V256H256v128H128v128h128v128h128V512h128V384zm384 0c-35.348 0-64 28.654-64 64s28.652 64 64 64 64-28.654 64-64-28.652-64-64-64zm192 0c-35.348 0-64 28.654-64 64 0 35.348 28.652 64 64 64s64-28.652 64-64c0-35.346-28.652-64-64-64z"/><glyph unicode="" glyph-name="google" d="M512 960C229.2 960 0 730.8 0 448S229.2-64 512-64s512 229.2 512 512-229.2 512-512 512zm7.6-896c-212.2 0-384 171.8-384 384s171.8 384 384 384c103.6 0 190.4-37.8 257.2-100.4L672.6 631.2c-28.6 27.4-78.4 59.2-153 59.2-131.2 0-238-108.6-238-242.4s107-242.4 238-242.4c152 0 209 109.2 217.8 165.6H519.6v131.6h362.6c3.2-19.2 6-38.4 6-63.6C888.4 219.8 741.4 64 519.6 64z"/><glyph unicode="" glyph-name="github" d="M512.008 947.358C229.27 947.358 0 718.14 0 435.36 0 209.146 146.704 17.228 350.136-50.476c25.586-4.738 34.992 11.11 34.992 24.632 0 12.204-.48 52.542-.696 95.324-142.448-30.976-172.504 60.41-172.504 60.41-23.282 59.176-56.848 74.916-56.848 74.916-46.452 31.778 3.51 31.124 3.51 31.124 51.4-3.61 78.476-52.766 78.476-52.766 45.672-78.27 119.776-55.64 149.004-42.558 4.588 33.086 17.852 55.68 32.506 68.464C304.846 222.012 185.3 265.92 185.3 462.102c0 55.898 20.004 101.574 52.76 137.428-5.316 12.9-22.854 64.972 4.952 135.5 0 0 43.006 13.752 140.84-52.49 40.836 11.348 84.636 17.036 128.154 17.234 43.502-.198 87.336-5.886 128.256-17.234 97.734 66.244 140.656 52.49 140.656 52.49 27.872-70.528 10.35-122.6 5.036-135.5 32.82-35.856 52.694-81.532 52.694-137.428 0-196.654-119.778-239.95-233.79-252.624 18.364-15.89 34.724-47.046 34.724-94.812 0-68.508-.596-123.644-.596-140.508 0-13.628 9.222-29.594 35.172-24.566C877.48 17.368 1024 209.218 1024 435.36c0 282.78-229.234 511.998-511.992 511.998z"/><glyph unicode="" glyph-name="npm" d="M0 960V-64h1024V960H0zm832-832H704v512H512V128H192v640h640V128z"/><glyph unicode="" glyph-name="html5" d="m60.538 960 82.144-921.63L511.438-64 881.162 38.524 963.462 960H60.538zM784.63 658.572H352.09l10.302-115.75H774.36l-31.042-347.01-231.844-64.254-231.572 64.254-15.83 177.512h113.494l8.048-90.232 125.862-33.916.278.078 125.934 33.992 13.07 146.55h-391.74l-30.494 341.8h566.214L784.63 658.572z"/></font>
</defs>
</svg>
