<?xml version="1.0" encoding="utf-8"?>
<svg x="0pt" y="0pt" width="512pt" height="512pt" viewBox="0 0 512 512" xmlns="http://www.w3.org/2000/svg" xmlns:xlink="http://www.w3.org/1999/xlink">
  <!--Generated by AMDN-->
  <g id="Dark on Light">
    <path id="Path 259" style="fill:#edf3dd;fill-opacity:1;fill-rule:nonzero;opacity:1;stroke:none;" d="M488,0 C490.122,0,492.157,0.843,493.657,2.343 C495.524,4.21,497.391,6.077,499.257,7.944 C499.257,7.944,509.657,18.343,509.657,18.343 C511.157,19.843,512,21.878,512,24 C512,24,512,488,512,488 C512,490.122,511.157,492.157,509.657,493.657 C507.79,495.524,505.923,497.391,504.056,499.257 C501.7,501.613,499.344,503.97,496.988,506.326 C496.988,506.326,493.657,509.657,493.657,509.657 C492.157,511.157,490.122,512,488,512 C488,512,24,512,24,512 C21.878,512,19.843,511.157,18.343,509.657 C16.476,507.79,14.609,505.923,12.743,504.056 C12.743,504.056,2.343,493.657,2.343,493.657 C0.843,492.157,0,490.122,0,488 C0,488,0,24,0,24 C0,21.878,0.843,19.843,2.343,18.343 C4.21,16.476,6.077,14.609,7.944,12.743 C10.3,10.387,12.656,8.03,15.012,5.674 C15.012,5.674,18.343,2.343,18.343,2.343 C19.843,0.843,21.878,0,24,0 C24,0,488,0,488,0 z"/>
    <g id="Alr3_Logo_Color">
      <path id="Path 260" style="fill:#088358;fill-opacity:1;fill-rule:nonzero;opacity:1;stroke:none;" d="M82.9274,65.4164 C86.6387,66.9298,85.207,65.9849,87.4695,67.8325 C87.4695,67.8325,116.448,96.8122,116.448,96.8122 C116.448,96.8122,142.402,70.8575,142.402,70.8575 C144.878,68.383,144.878,68.383,145.427,67.8325 C147.595,65.7343,149.195,65.5098,152.065,65.411 C152.065,65.411,153.331,65.4164,153.331,65.4164 C157.042,66.9298,155.611,65.9849,157.873,67.8325 C161.31,71.2698,161.31,76.8421,157.873,80.2785 C157.323,80.8282,157.323,80.8282,154.848,83.3036 C154.848,83.3036,128.894,109.257,128.894,109.257 C128.894,109.257,157.873,138.236,157.873,138.236 C161.31,141.674,161.31,147.246,157.873,150.682 C154.436,154.12,148.864,154.12,145.427,150.682 C145.427,150.682,116.448,121.703,116.448,121.703 C116.448,121.703,102.94,135.211,102.94,135.211 C102.94,135.211,90.4945,147.657,90.4945,147.657 C88.0192,150.133,88.0192,150.133,87.4695,150.682 C84.0322,154.12,78.4598,154.12,75.0234,150.682 C71.587,147.246,71.587,141.674,75.0234,138.236 C75.5731,137.687,75.5731,137.687,78.0485,135.211 C78.0485,135.211,104.002,109.257,104.002,109.257 C104.002,109.257,75.0234,80.2785,75.0234,80.2785 C71.587,76.8421,71.587,71.2698,75.0234,67.8325 C77.1916,65.7343,78.7904,65.5098,81.661,65.411 C81.661,65.411,82.9274,65.4164,82.9274,65.4164 z"/>
      <path id="Path 261" style="fill:#088358;fill-opacity:1;fill-rule:nonzero;opacity:1;stroke:none;" d="M178.052,65.2556 C182.912,65.2556,186.852,69.195,186.852,74.056 C186.852,74.056,186.852,144.46,186.852,144.46 C186.852,149.32,182.912,153.26,178.052,153.26 C173.191,153.26,169.251,149.32,169.251,144.46 C169.251,144.46,169.251,74.056,169.251,74.056 C169.251,69.195,173.191,65.2556,178.052,65.2556 z"/>
      <path id="Path 262" style="fill:#088358;fill-opacity:1;fill-rule:nonzero;opacity:1;stroke:none;" d="M204.868,65.411 C204.868,65.411,206.134,65.4164,206.134,65.4164 C209.845,66.9298,208.414,65.9849,210.675,67.8325 C211.226,68.383,211.226,68.383,213.701,70.8575 C213.701,70.8575,278.054,135.211,278.054,135.211 C280.53,137.687,280.53,137.687,281.08,138.236 C284.517,141.674,284.517,147.246,281.08,150.682 C277.643,154.12,272.07,154.12,268.634,150.682 C268.634,150.682,198.23,80.2785,198.23,80.2785 C194.793,76.8421,194.793,71.2698,198.23,67.8325 C200.398,65.7343,201.997,65.5098,204.868,65.411 z"/>
      <path id="Path 263" style="fill:#088358;fill-opacity:1;fill-rule:nonzero;opacity:1;stroke:none;" d="M178.052,65.2556 C182.912,65.2556,186.852,69.195,186.852,74.056 C186.852,144.222,186.859,120.754,186.852,144.46 C186.852,149.32,182.912,153.26,178.052,153.26 C173.191,153.26,169.251,149.32,169.251,144.46 C169.251,144.46,169.251,74.056,169.251,74.056 C169.251,69.195,173.191,65.2556,178.052,65.2556 z"/>
      <path id="Path 264" style="fill:#088358;fill-opacity:1;fill-rule:nonzero;opacity:1;stroke:none;" d="M323.259,135.659 C328.12,135.659,332.06,139.599,332.06,144.46 C332.06,144.46,332.06,241.265,332.06,241.265 C332.06,246.126,328.12,250.065,323.259,250.065 C318.399,250.065,314.459,246.126,314.459,241.265 C314.459,241.265,314.459,144.46,314.459,144.46 C314.459,139.599,318.399,135.659,323.259,135.659 z M323.259,140.06 C320.829,140.06,318.859,142.029,318.859,144.46 C318.859,144.46,318.859,241.265,318.859,241.265 C318.859,243.695,320.829,245.665,323.259,245.665 C325.69,245.665,327.66,243.695,327.66,241.265 C327.66,241.265,327.66,144.46,327.66,144.46 C327.456,141.821,326.4,141.097,324.146,140.148 C324.146,140.148,323.259,140.06,323.259,140.06 z"/>
      <path id="Path 265" style="fill:#088358;fill-opacity:1;fill-rule:nonzero;opacity:1;stroke:none;" d="M204.868,65.411 C204.868,65.411,206.134,65.4164,206.134,65.4164 C209.845,66.9298,208.414,65.9849,210.675,67.8325 C211.226,68.383,211.226,68.383,213.701,70.8575 C213.701,70.8575,278.054,135.211,278.054,135.211 C280.53,137.687,280.53,137.687,281.08,138.236 C284.517,141.674,284.517,147.246,281.08,150.682 C277.643,154.12,272.07,154.12,268.634,150.682 C268.634,150.682,198.23,80.2785,198.23,80.2785 C194.793,76.8421,194.793,71.2698,198.23,67.8325 C200.398,65.7343,201.997,65.5098,204.868,65.411 z"/>
      <path id="Path 266" style="fill:#088358;fill-opacity:1;fill-rule:nonzero;opacity:1;stroke:none;" d="M152.065,162.217 C152.065,162.217,153.331,162.221,153.331,162.221 C157.042,163.735,155.611,162.791,157.873,164.638 C161.31,168.075,161.31,173.647,157.873,177.083 C157.498,177.459,157.122,177.834,156.748,178.209 C156.748,178.209,139.485,195.36,139.485,195.36 C139.485,195.36,139.054,195.792,139.054,195.792 C139.054,195.792,129.6,205.266,129.6,205.266 C129.6,205.266,128.849,206.018,128.849,206.018 C128.849,206.018,157.873,235.042,157.873,235.042 C161.31,238.478,161.31,244.051,157.873,247.487 C154.436,250.924,148.864,250.924,145.427,247.487 C144.878,246.937,144.878,246.937,142.402,244.462 C142.402,244.462,116.418,218.478,116.418,218.478 C116.418,218.478,104.771,230.15,104.771,230.15 C103.206,231.719,101.64,233.287,100.075,234.855 C100.075,234.855,87.4695,247.487,87.4695,247.487 C84.0322,250.924,78.4598,250.924,75.0234,247.487 C71.587,244.051,71.587,238.478,75.0234,235.042 C75.0234,235.042,104.002,206.062,104.002,206.062 C104.002,206.062,78.0485,180.108,78.0485,180.108 C77.1018,179.163,76.156,178.216,75.2093,177.27 C75.2093,177.27,75.0234,177.083,75.0234,177.083 C71.587,173.647,71.587,168.075,75.0234,164.638 C77.1916,162.539,78.7904,162.315,81.661,162.217 C81.661,162.217,82.9274,162.221,82.9274,162.221 C86.6387,163.735,85.207,162.791,87.4695,164.638 C87.4695,164.638,116.448,193.617,116.448,193.617 C126.111,183.96,135.767,174.297,145.427,164.638 C147.595,162.539,149.195,162.315,152.065,162.217 z M152.145,166.617 C150.594,166.626,149.686,166.682,148.538,167.749 C145.839,170.449,143.678,172.61,138.818,177.471 C138.818,177.471,138.817,177.471,138.817,177.471 C129.19,187.102,124.91,191.381,119.559,196.729 C117.841,198.447,115.055,198.447,113.337,196.728 C113.337,196.728,84.5082,167.9,84.5082,167.9 C84.2369,167.678,83.9675,167.452,83.6971,167.229 C83.1519,167.038,82.613,166.832,82.0768,166.619 C82.0768,166.619,81.7409,166.617,81.7409,166.617 C80.1906,166.626,79.2826,166.682,78.1347,167.749 C76.4165,169.468,76.4165,172.254,78.1356,173.973 C78.1356,173.973,78.3224,174.16,78.3224,174.16 C78.3224,174.16,78.3215,174.159,78.3215,174.159 C79.3976,175.235,80.2975,176.135,81.1598,176.997 C81.1598,176.997,107.114,202.951,107.114,202.951 C108.833,204.67,108.833,207.455,107.114,209.174 C107.114,209.174,78.1347,238.153,78.1347,238.153 C76.4165,239.871,76.4165,242.658,78.1347,244.376 C79.8529,246.095,82.6391,246.095,84.3546,244.379 C84.3546,244.379,96.9605,231.747,96.9605,231.747 C97.5848,231.121,98.0842,230.621,99.2087,229.494 C100.432,228.268,100.976,227.723,101.656,227.042 C101.656,227.042,113.303,215.37,113.303,215.37 C115.02,213.648,117.809,213.646,119.529,215.366 C119.529,215.366,145.513,241.351,145.513,241.351 C147.857,243.694,146.999,242.835,148.088,243.926 C148.446,244.283,148.296,244.133,148.538,244.376 C150.257,246.095,153.043,246.095,154.762,244.376 C156.48,242.658,156.48,239.871,154.761,238.153 C154.761,238.153,125.738,209.13,125.738,209.13 C124.021,207.413,124.019,204.63,125.735,202.911 C125.735,202.911,126.485,202.158,126.485,202.158 C126.485,202.158,135.942,192.68,135.942,192.68 C135.942,192.68,136.383,192.239,136.383,192.239 C136.383,192.239,153.637,175.097,153.637,175.097 C154.199,174.534,154.199,174.534,154.762,173.972 C156.47,172.043,156.434,169.797,154.828,167.83 C154.585,167.631,154.343,167.429,154.101,167.229 C153.557,167.038,153.017,166.832,152.481,166.619 C152.481,166.619,152.145,166.617,152.145,166.617 z"/>
      <path id="Path 267" style="fill:#088358;fill-opacity:1;fill-rule:nonzero;opacity:1;stroke:none;" d="M178.052,162.06 C182.912,162.06,186.852,166.001,186.852,170.861 C186.852,170.861,186.852,241.265,186.852,241.265 C186.852,246.126,182.912,250.065,178.052,250.065 C173.191,250.065,169.251,246.126,169.251,241.265 C169.251,241.265,169.251,170.861,169.251,170.861 C169.251,166.001,173.191,162.06,178.052,162.06 z M178.052,166.461 C175.621,166.461,173.652,168.431,173.652,170.861 C173.652,170.861,173.652,241.265,173.652,241.265 C173.652,243.695,175.621,245.665,178.052,245.665 C180.482,245.665,182.452,243.695,182.452,241.265 C182.452,241.265,182.452,170.861,182.452,170.861 C182.452,168.431,180.482,166.461,178.052,166.461 z"/>
      <path id="Path 268" style="fill:#088358;fill-opacity:1;fill-rule:nonzero;opacity:1;stroke:none;" d="M275.272,162.217 C275.272,162.217,276.538,162.221,276.538,162.221 C280.249,163.735,278.818,162.791,281.08,164.638 C284.517,168.075,284.517,173.647,281.08,177.083 C280.53,177.634,280.53,177.634,278.054,180.109 C255.508,202.481,233.138,225.03,210.675,247.487 C207.239,250.924,201.667,250.924,198.23,247.487 C194.793,244.051,194.793,238.478,198.23,235.042 C198.605,234.667,198.98,234.292,199.356,233.917 C222.315,210.69,245.544,187.733,268.634,164.638 C270.801,162.539,272.401,162.315,275.272,162.217 z M275.351,166.617 C273.801,166.626,272.893,166.682,271.745,167.749 C271.604,167.89,271.604,167.89,271.482,168.013 C271.482,168.013,271.482,168.013,271.482,168.013 C271.138,168.357,270.93,168.566,268.72,170.775 C268.72,170.775,204.367,235.128,204.367,235.128 C202.158,237.338,201.949,237.546,201.605,237.89 C201.605,237.89,201.605,237.89,201.605,237.89 C201.483,238.012,201.483,238.012,201.342,238.153 C199.623,239.871,199.623,242.658,201.342,244.376 C203.06,246.095,205.846,246.095,207.565,244.376 C207.706,244.235,207.706,244.235,207.828,244.113 C208.749,243.192,209.669,242.271,210.589,241.351 C210.589,241.351,274.943,176.997,274.943,176.997 C274.943,176.997,275.682,176.259,275.682,176.259 C275.682,176.259,277.968,173.972,277.968,173.972 C279.677,172.043,279.641,169.797,278.034,167.83 C277.791,167.631,277.55,167.429,277.308,167.229 C276.763,167.038,276.224,166.832,275.687,166.619 C275.687,166.619,275.351,166.617,275.351,166.617 z"/>
      <path id="Path 269" style="fill:#088358;fill-opacity:1;fill-rule:nonzero;opacity:1;stroke:none;" d="M178.052,162.06 C182.912,162.06,186.852,166.001,186.852,170.861 C186.852,170.861,186.852,241.265,186.852,241.265 C186.852,246.126,182.912,250.065,178.052,250.065 C173.191,250.065,169.251,246.126,169.251,241.265 C169.251,241.265,169.251,170.861,169.251,170.861 C169.251,166.001,173.191,162.06,178.052,162.06 z M178.052,166.461 C175.621,166.461,173.652,168.431,173.652,170.861 C173.652,170.861,173.652,241.265,173.652,241.265 C173.652,243.695,175.621,245.665,178.052,245.665 C180.482,245.665,182.452,243.695,182.452,241.265 C182.452,241.265,182.452,170.861,182.452,170.861 C182.452,168.431,180.482,166.461,178.052,166.461 z"/>
      <path id="Path 270" style="fill:#088358;fill-opacity:1;fill-rule:nonzero;opacity:1;stroke:none;" d="M275.272,162.217 C275.272,162.217,276.538,162.221,276.538,162.221 C280.249,163.735,278.818,162.791,281.08,164.638 C284.517,168.075,284.517,173.647,281.08,177.083 C280.53,177.634,280.53,177.634,278.054,180.109 C255.508,202.481,233.138,225.03,210.675,247.487 C207.239,250.924,201.667,250.924,198.23,247.487 C194.793,244.051,194.793,238.478,198.23,235.042 C198.605,234.667,198.98,234.292,199.356,233.917 C222.315,210.69,245.544,187.733,268.634,164.638 C270.801,162.539,272.401,162.315,275.272,162.217 z M275.351,166.617 C273.801,166.626,272.893,166.682,271.745,167.749 C271.604,167.89,271.604,167.89,271.482,168.013 C271.482,168.013,271.482,168.013,271.482,168.013 C271.138,168.357,270.93,168.566,268.72,170.775 C268.72,170.775,204.367,235.128,204.367,235.128 C202.158,237.338,201.949,237.546,201.605,237.89 C201.605,237.89,201.605,237.89,201.605,237.89 C201.483,238.012,201.483,238.012,201.342,238.153 C199.623,239.871,199.623,242.658,201.342,244.376 C203.06,246.095,205.846,246.095,207.565,244.376 C207.706,244.235,207.706,244.235,207.828,244.113 C208.749,243.192,209.669,242.271,210.589,241.351 C210.589,241.351,274.943,176.997,274.943,176.997 C274.943,176.997,275.682,176.259,275.682,176.259 C275.682,176.259,277.968,173.972,277.968,173.972 C279.677,172.043,279.641,169.797,278.034,167.83 C277.791,167.631,277.55,167.429,277.308,167.229 C276.763,167.038,276.224,166.832,275.687,166.619 C275.687,166.619,275.351,166.617,275.351,166.617 z"/>
      <path id="Path 271" style="fill:#088358;fill-opacity:1;fill-rule:nonzero;opacity:1;stroke:none;" d="M336.46,65.2556 C341.321,65.2556,345.26,69.195,345.26,74.056 C345.26,74.056,345.26,135.659,345.26,135.659 C345.26,137.993,344.333,140.231,342.683,141.882 C342.683,141.882,333.882,150.682,333.882,150.682 C332.232,152.333,329.994,153.26,327.66,153.26 C327.66,153.26,301.259,153.26,301.259,153.26 C296.398,153.26,292.458,149.32,292.458,144.46 C292.458,139.599,296.398,135.659,301.259,135.659 C301.259,135.659,324.014,135.659,324.014,135.659 C324.014,135.659,327.66,132.014,327.66,132.014 C327.66,132.014,327.66,74.056,327.66,74.056 C327.66,69.195,331.6,65.2556,336.46,65.2556 z"/>
      <path id="Path 272" style="fill:#088358;fill-opacity:1;fill-rule:nonzero;opacity:1;stroke:none;" d="M433.266,135.659 C438.126,135.659,442.066,139.599,442.066,144.46 C442.066,149.32,438.126,153.26,433.266,153.26 C433.266,153.26,362.862,153.26,362.862,153.26 C358.001,153.26,354.061,149.32,354.061,144.46 C354.061,139.599,358.001,135.659,362.862,135.659 C362.862,135.659,433.266,135.659,433.266,135.659 z"/>
      <path id="Path 273" style="fill:#088358;fill-opacity:1;fill-rule:nonzero;opacity:1;stroke:none;" d="M433.266,166.461 C438.126,166.461,442.066,170.401,442.066,175.261 C442.066,180.122,438.126,184.061,433.266,184.061 C433.266,184.061,362.862,184.061,362.862,184.061 C358.001,184.061,354.061,180.122,354.061,175.261 C354.061,170.401,358.001,166.461,362.862,166.461 C362.862,166.461,433.266,166.461,433.266,166.461 z M433.266,170.861 C433.266,170.861,362.862,170.861,362.862,170.861 C360.431,170.861,358.462,172.831,358.462,175.261 C358.462,177.691,360.431,179.661,362.862,179.661 C362.862,179.661,433.266,179.661,433.266,179.661 C435.695,179.661,437.666,177.691,437.666,175.261 C437.666,172.831,435.695,170.861,433.266,170.861 z"/>
      <path id="Path 274" style="fill:#088358;fill-opacity:1;fill-rule:nonzero;opacity:1;stroke:none;" d="M433.266,104.857 C438.126,104.857,442.066,108.798,442.066,113.658 C442.066,118.519,438.126,122.458,433.266,122.458 C433.266,122.458,362.862,122.458,362.862,122.458 C358.001,122.458,354.061,118.519,354.061,113.658 C354.061,108.798,358.001,104.857,362.862,104.857 C362.862,104.857,433.266,104.857,433.266,104.857 z"/>
      <path id="Path 275" style="fill:#088358;fill-opacity:1;fill-rule:nonzero;opacity:1;stroke:none;" d="M433.68,65.411 C433.68,65.411,434.946,65.4164,434.946,65.4164 C438.658,66.9298,437.227,65.9849,439.488,67.8325 C442.925,71.2698,442.925,76.8421,439.488,80.2785 C439.488,80.2785,430.688,89.0789,430.688,89.0789 C429.037,90.7297,426.799,91.6567,424.465,91.6567 C424.465,91.6567,362.862,91.6567,362.862,91.6567 C358.001,91.6567,354.061,87.7164,354.061,82.8563 C354.061,77.9963,358.001,74.056,362.862,74.056 C362.862,74.056,420.82,74.056,420.82,74.056 C420.82,74.056,427.042,67.8325,427.042,67.8325 C429.21,65.7343,430.81,65.5098,433.68,65.411 z"/>
      <path id="Path 276" style="fill:#088358;fill-opacity:1;fill-rule:nonzero;opacity:1;stroke:none;" d="M433.266,197.263 C438.126,197.263,442.066,201.202,442.066,206.063 C442.066,206.063,442.066,232.464,442.066,232.464 C442.066,234.799,441.138,237.037,439.488,238.687 C439.488,238.687,430.688,247.487,430.688,247.487 C429.037,249.138,426.799,250.065,424.465,250.065 C424.465,250.065,362.862,250.065,362.862,250.065 C358.001,250.065,354.061,246.126,354.061,241.265 C354.061,241.265,354.061,206.063,354.061,206.063 C354.061,201.202,358.001,197.263,362.862,197.263 C362.862,197.263,433.266,197.263,433.266,197.263 z M433.266,201.663 C433.266,201.663,362.862,201.663,362.862,201.663 C360.431,201.663,358.462,203.633,358.462,206.063 C358.462,206.063,358.462,241.265,358.462,241.265 C358.462,243.695,360.431,245.665,362.862,245.665 C362.862,245.665,424.465,245.665,424.465,245.665 C425.632,245.665,426.751,245.201,427.577,244.376 C427.577,244.376,436.377,235.575,436.377,235.575 C437.202,234.75,437.666,233.631,437.666,232.464 C437.666,232.464,437.666,206.063,437.666,206.063 C437.666,203.633,435.695,201.663,433.266,201.663 z M424.465,210.463 C426.895,210.463,428.866,212.433,428.866,214.863 C428.866,214.863,428.866,228.818,428.866,228.818 C428.866,229.986,428.401,231.105,427.577,231.931 C427.577,231.931,423.931,235.575,423.931,235.575 C423.106,236.401,421.986,236.864,420.82,236.864 C420.82,236.864,371.662,236.864,371.662,236.864 C369.232,236.864,367.262,234.895,367.262,232.464 C367.262,232.464,367.262,214.863,367.262,214.863 C367.262,212.433,369.232,210.463,371.662,210.463 C371.662,210.463,424.465,210.463,424.465,210.463 z M424.465,214.863 C424.465,214.863,371.662,214.863,371.662,214.863 C371.662,214.863,371.662,232.464,371.662,232.464 C371.662,232.464,420.82,232.464,420.82,232.464 C420.82,232.464,424.465,228.818,424.465,228.818 C424.465,228.818,424.465,214.863,424.465,214.863 z"/>
    </g>
    <g id="Group">
      <path id="Compound Group" style="fill:#088357;fill-opacity:1;fill-rule:evenodd;opacity:1;stroke:none;" d="M326.494,276.544 C326.494,276.544,326.494,321.953,326.494,321.953 C326.494,392.03,269.689,448.821,199.625,448.821 C129.549,448.821,72.7573,392.03,72.7573,321.953 C72.7573,321.953,72.7573,276.544,72.7573,276.544 C72.7573,276.544,136.191,276.544,136.191,276.544 C136.191,276.544,136.191,321.953,136.191,321.953 C136.191,356.991,164.587,385.387,199.625,385.387 C234.664,385.387,263.06,356.991,263.06,321.953 C263.06,321.953,263.06,276.544,263.06,276.544 C263.06,276.544,326.494,276.544,326.494,276.544 z"/>
      <path id="Compound Group" style="fill:#088357;fill-opacity:1;fill-rule:evenodd;opacity:1;stroke:none;" d="M382.552,440.618 C382.552,440.618,382.552,276.544,382.552,276.544 C382.552,276.544,445.986,276.544,445.986,276.544 C445.986,276.544,445.986,440.618,445.986,440.618 C445.986,440.618,382.552,440.618,382.552,440.618 z"/>
    </g>
    <g id="Group">
      <path id="Path 279" style="fill:#ecf3dd;fill-opacity:1;fill-rule:nonzero;opacity:1;stroke:none;" d="M360.184,497.569 C348.396,473.468,336.608,449.366,324.821,425.265 C311.15,438.417,297.48,451.57,283.81,464.723 C283.81,405.591,283.81,346.46,283.81,287.328 C330.143,322.783,376.476,358.238,422.809,393.694 C404.339,396.952,385.869,400.211,367.4,403.469 C379.197,427.59,390.994,451.711,402.791,475.832 C388.589,483.078,374.386,490.324,360.184,497.569 C360.184,497.569,360.184,497.569,360.184,497.569 z"/>
      <path id="Path 278" style="fill:#088357;fill-opacity:1;fill-rule:nonzero;opacity:1;stroke:none;" d="M328.699,403.319 C341.169,428.816,353.639,454.314,366.109,479.811 C372.516,476.542,378.923,473.274,385.329,470.006 C372.869,444.528,360.408,419.05,347.947,393.573 C362.332,391.035,376.717,388.497,391.102,385.959 C359.713,361.939,328.325,337.919,296.936,313.899 C296.936,353.893,296.936,393.886,296.936,433.879 C307.523,423.693,318.111,413.506,328.699,403.319 C328.699,403.319,328.699,403.319,328.699,403.319 z"/>
    </g>
  </g>
</svg>
