<?xml version="1.0" encoding="utf-8"?>
<svg x="0pt" y="0pt" width="512pt" height="512pt" viewBox="0 0 512 512" xmlns="http://www.w3.org/2000/svg" xmlns:xlink="http://www.w3.org/1999/xlink">
  <!--Generated by AMDN-->
  <g id="Colored">
    <path id="Path 259" style="fill:#404040;fill-opacity:1;fill-rule:nonzero;opacity:1;stroke:none;" d="M488,0 C490.122,0,492.157,0.843,493.657,2.343 C495.524,4.21,497.391,6.077,499.257,7.944 C499.257,7.944,509.657,18.343,509.657,18.343 C511.157,19.843,512,21.878,512,24 C512,24,512,488,512,488 C512,490.122,511.157,492.157,509.657,493.657 C507.79,495.524,505.923,497.391,504.056,499.257 C501.7,501.613,499.344,503.97,496.988,506.326 C496.988,506.326,493.657,509.657,493.657,509.657 C492.157,511.157,490.122,512,488,512 C488,512,24,512,24,512 C21.878,512,19.843,511.157,18.343,509.657 C16.476,507.79,14.609,505.923,12.743,504.056 C12.743,504.056,2.343,493.657,2.343,493.657 C0.843,492.157,0,490.122,0,488 C0,488,0,24,0,24 C0,21.878,0.843,19.843,2.343,18.343 C4.21,16.476,6.077,14.609,7.944,12.743 C10.3,10.387,12.656,8.03,15.012,5.674 C15.012,5.674,18.343,2.343,18.343,2.343 C19.843,0.843,21.878,0,24,0 C24,0,488,0,488,0 z"/>
    <path id="Path 260" style="fill:#ff1c24;fill-opacity:1;fill-rule:nonzero;opacity:1;stroke:none;" d="M90.8834,65.5384 C97.4118,68.2006,94.8933,66.5385,98.8732,69.7885 C98.8732,69.7885,149.849,120.766,149.849,120.766 C149.849,120.766,195.503,75.1098,195.503,75.1098 C199.858,70.757,199.858,70.757,200.825,69.7885 C204.639,66.0977,207.453,65.7027,212.5,65.5289 C212.5,65.5289,214.728,65.5384,214.728,65.5384 C221.257,68.2006,218.738,66.5385,222.718,69.7885 C228.763,75.835,228.763,85.637,222.718,91.6819 C221.75,92.6489,221.75,92.6489,217.397,97.0032 C217.397,97.0032,171.742,142.658,171.742,142.658 C171.742,142.658,222.718,193.633,222.718,193.633 C228.763,199.68,228.763,209.482,222.718,215.527 C216.672,221.573,206.87,221.573,200.825,215.527 C200.825,215.527,149.849,164.551,149.849,164.551 C149.849,164.551,126.086,188.312,126.086,188.312 C126.086,188.312,104.194,210.205,104.194,210.205 C99.8402,214.56,99.8402,214.56,98.8732,215.527 C92.8267,221.573,83.0247,221.573,76.9798,215.527 C70.9349,209.482,70.9349,199.68,76.9798,193.633 C77.9467,192.666,77.9467,192.666,82.3011,188.312 C82.3011,188.312,127.955,142.658,127.955,142.658 C127.955,142.658,76.9798,91.6819,76.9798,91.6819 C70.9349,85.637,70.9349,75.835,76.9798,69.7885 C80.7938,66.0977,83.6061,65.7027,88.6557,65.5289 C88.6557,65.5289,90.8834,65.5384,90.8834,65.5384 z"/>
    <path id="Path 261" style="fill:#088357;fill-opacity:1;fill-rule:nonzero;opacity:1;stroke:none;" d="M258.213,65.2556 C266.762,65.2556,273.694,72.1853,273.694,80.736 C273.694,80.736,273.694,204.581,273.694,204.581 C273.694,213.13,266.762,220.061,258.213,220.061 C249.663,220.061,242.733,213.13,242.733,204.581 C242.733,204.581,242.733,80.736,242.733,80.736 C242.733,72.1853,249.663,65.2556,258.213,65.2556 z"/>
    <path id="Path 262" style="fill:#088357;fill-opacity:1;fill-rule:nonzero;opacity:1;stroke:none;" d="M305.384,65.5289 C305.384,65.5289,307.612,65.5384,307.612,65.5384 C314.141,68.2006,311.622,66.5385,315.6,69.7885 C316.569,70.757,316.569,70.757,320.923,75.1098 C320.923,75.1098,434.124,188.312,434.124,188.312 C438.478,192.666,438.478,192.666,439.447,193.633 C445.492,199.68,445.492,209.482,439.447,215.527 C433.4,221.573,423.598,221.573,417.553,215.527 C417.553,215.527,293.709,91.6819,293.709,91.6819 C287.662,85.637,287.662,75.835,293.709,69.7885 C297.521,66.0977,300.335,65.7027,305.384,65.5289 z"/>
    <path id="Path 263" style="fill:#8cc63f;fill-opacity:1;fill-rule:nonzero;opacity:1;stroke:none;" d="M258.213,65.2556 C266.762,65.2556,273.694,72.1853,273.694,80.736 C273.694,204.162,273.706,162.881,273.694,204.581 C273.694,213.13,266.762,220.061,258.213,220.061 C249.663,220.061,242.733,213.13,242.733,204.581 C242.733,204.581,242.733,80.736,242.733,80.736 C242.733,72.1853,249.663,65.2556,258.213,65.2556 z"/>
    <path id="Path 265" style="fill:#3da8f4;fill-opacity:1;fill-rule:nonzero;opacity:1;stroke:none;" d="M305.384,65.5289 C305.384,65.5289,307.612,65.5384,307.612,65.5384 C314.141,68.2006,311.622,66.5385,315.6,69.7885 C316.569,70.757,316.569,70.757,320.923,75.1098 C320.923,75.1098,434.124,188.312,434.124,188.312 C438.478,192.666,438.478,192.666,439.447,193.633 C445.492,199.68,445.492,209.482,439.447,215.527 C433.4,221.573,423.598,221.573,417.553,215.527 C417.553,215.527,293.709,91.6819,293.709,91.6819 C287.662,85.637,287.662,75.835,293.709,69.7885 C297.521,66.0977,300.335,65.7027,305.384,65.5289 z"/>
    <path id="Compound Group" style="fill:#ff931d;fill-opacity:1;fill-rule:evenodd;opacity:1;stroke:none;" d="M326.494,248.808 C326.494,248.808,326.494,321.953,326.494,321.953 C326.494,392.03,269.689,448.821,199.625,448.821 C129.549,448.821,72.7573,392.03,72.7573,321.953 C72.7573,321.953,72.7573,248.808,72.7573,248.808 C72.7573,248.808,136.191,248.808,136.191,248.808 C136.191,248.808,136.191,321.953,136.191,321.953 C136.191,356.991,164.587,385.387,199.625,385.387 C234.664,385.387,263.06,356.991,263.06,321.953 C263.06,321.953,263.06,248.808,263.06,248.808 C263.06,248.808,326.494,248.808,326.494,248.808 z"/>
    <path id="Compound Group" style="fill:#fbed21;fill-opacity:1;fill-rule:evenodd;opacity:1;stroke:none;" d="M382.552,440.618 C382.552,440.618,382.552,248.825,382.552,248.825 C382.552,248.825,445.986,248.825,445.986,248.825 C445.986,248.825,445.986,440.618,445.986,440.618 C445.986,440.618,382.552,440.618,382.552,440.618 z"/>
    <g id="Group">
      <path id="Path 279" style="fill:#ffffff;fill-opacity:1;fill-rule:nonzero;opacity:1;stroke:none;" d="M360.184,497.569 C348.396,473.468,336.608,449.366,324.821,425.265 C311.15,438.417,297.48,451.57,283.81,464.723 C283.81,405.591,283.81,346.46,283.81,287.328 C330.143,322.783,376.476,358.238,422.809,393.694 C404.339,396.952,385.869,400.211,367.4,403.469 C379.197,427.59,390.994,451.711,402.791,475.832 C388.589,483.078,374.386,490.324,360.184,497.569 C360.184,497.569,360.184,497.569,360.184,497.569 z"/>
      <path id="Path 278" style="fill:#000000;fill-opacity:1;fill-rule:nonzero;opacity:1;stroke:none;" d="M328.699,403.319 C341.169,428.816,353.639,454.314,366.109,479.811 C372.516,476.542,378.923,473.274,385.329,470.006 C372.869,444.528,360.408,419.05,347.947,393.573 C362.332,391.035,376.717,388.497,391.102,385.959 C359.713,361.939,328.325,337.919,296.936,313.899 C296.936,353.893,296.936,393.886,296.936,433.879 C307.523,423.693,318.111,413.506,328.699,403.319 C328.699,403.319,328.699,403.319,328.699,403.319 z"/>
    </g>
  </g>
</svg>
